<?xml version="1.0" standalone="no"?>
<!DOCTYPE svg PUBLIC "-//W3C//DTD SVG 1.1//EN" "http://www.w3.org/Graphics/SVG/1.1/DTD/svg11.dtd" >
<svg xmlns="http://www.w3.org/2000/svg" xmlns:xlink="http://www.w3.org/1999/xlink" version="1.1">
<metadata>
Created by FontForge 20161116 at Mon Feb 23 16:19:07 2009
 By Jimmy Warting
Copyright (c) 2008 - 2009 Linotype GmbH, www.linotype.com. All rights reserved. This font software may not be reproduced, modified, disclosed or transferred without the express written approval of Linotype GmbH.
</metadata>
<defs>
<font id="DINNextLTPro-LightCondensed" horiz-adv-x="362" >
  <font-face 
    font-family="DIN Next LT Pro"
    font-weight="300"
    font-stretch="condensed"
    units-per-em="1000"
    panose-1="2 11 3 6 2 2 3 5 2 3"
    ascent="750"
    descent="-250"
    x-height="477"
    cap-height="680"
    bbox="-71.617 -211 793 905"
    underline-thickness="50"
    underline-position="-100"
    stemh="40"
    stemv="40"
    unicode-range="U+0020-FB04"
  />
<missing-glyph horiz-adv-x="361" 
d="M0 10v660c0 6 4 10 10 10h341c6 0 10 -4 10 -10v-660c0 -6 -4 -10 -10 -10h-341c-6 0 -10 4 -10 10zM37 41c0 -4 2 -6 6 -6h275c4 0 6 2 6 6v598c0 4 -2 6 -6 6h-275c-4 0 -6 -2 -6 -6v-598zM174 221c-6 0 -10 4 -10 10v47c0 17 3 29 11 45l35 67c14 28 19 41 19 71
c0 18 -1 28 -4 37c-7 21 -22 30 -43 30c-22 0 -37 -9 -43 -30c-3 -9 -4 -18 -4 -48c0 -6 -5 -9 -11 -8l-18 2c-6 1 -9 5 -9 11c0 33 3 45 6 54c11 33 38 54 79 54s69 -21 79 -54c3 -9 6 -23 6 -47c0 -35 -6 -51 -21 -82l-35 -67c-7 -12 -9 -21 -9 -36v-46
c0 -6 -4 -10 -10 -10h-18zM159 125v37c0 6 4 10 10 10h28c6 0 10 -4 10 -10v-37c0 -6 -4 -10 -10 -10h-28c-6 0 -10 4 -10 10z" />
    <glyph glyph-name="napostrophe" unicode="&#x22;n" horiz-adv-x="380" 
d="M33 539c-5 0 -8 3 -8 9v122c0 6 4 10 10 10h32c6 0 10 -4 10 -10v-42c0 -10 -1 -14 -5 -23l-28 -57c-3 -6 -6 -9 -11 -9zM308 0h-29c-6 0 -10 4 -10 10v322c0 69 -23 106 -77 106c-47 0 -77 -34 -77 -106v-322c0 -6 -4 -10 -10 -10h-29c-6 0 -10 4 -10 10v457
c0 6 4 10 10 10h29c6 0 10 -4 10 -10v-39h1c13 31 41 57 91 57c75 0 111 -48 111 -145v-330c0 -6 -4 -10 -10 -10z" />
    <glyph glyph-name="IJ" unicode="IJ" horiz-adv-x="515" 
d="M68 10v660c0 6 4 10 10 10h32c6 0 10 -4 10 -10v-660c0 -6 -4 -10 -10 -10h-32c-6 0 -10 4 -10 10zM222 28c-4 5 -3 10 1 14l23 22c4 4 9 3 13 -1c15 -14 35 -22 56 -22c51 0 81 29 81 99v530c0 6 4 10 10 10h32c6 0 10 -4 10 -10v-526c0 -102 -51 -152 -133 -152
c-37 0 -71 13 -93 36z" />
    <glyph glyph-name="ij" unicode="ij" 
d="M110 606h-39c-6 0 -10 4 -10 10v54c0 6 4 10 10 10h39c6 0 10 -4 10 -10v-54c0 -6 -4 -10 -10 -10zM105 0h-29c-6 0 -10 4 -10 10v457c0 6 4 10 10 10h29c6 0 10 -4 10 -10v-457c0 -6 -4 -10 -10 -10zM291 606h-39c-6 0 -10 4 -10 10v54c0 6 4 10 10 10h39
c6 0 10 -4 10 -10v-54c0 -6 -4 -10 -10 -10zM210 -180h-7c-6 0 -10 4 -10 10v27c0 6 4 10 10 10h7c26 1 37 13 37 44v556c0 6 4 10 10 10h29c6 0 10 -4 10 -10v-555c0 -63 -28 -92 -86 -92z" />
    <glyph glyph-name="fi" unicode="fi" horiz-adv-x="411" 
d="M121 0h-30c-6 0 -10 4 -10 10v419c0 4 -2 6 -6 6h-29c-6 0 -10 4 -10 10v22c0 6 4 10 10 10h29c4 0 6 2 6 6v87c0 72 30 110 104 110h15c6 0 10 -4 10 -10v-27c0 -6 -4 -10 -10 -10h-21c-33 0 -48 -16 -48 -53v-97c0 -4 2 -6 6 -6h62c6 0 10 -4 10 -10v-22
c0 -6 -4 -10 -10 -10h-62c-4 0 -6 -2 -6 -6v-419c0 -6 -4 -10 -10 -10zM340 606h-39c-6 0 -10 4 -10 10v54c0 6 4 10 10 10h39c6 0 10 -4 10 -10v-54c0 -6 -4 -10 -10 -10zM335 0h-29c-6 0 -10 4 -10 10v457c0 6 4 10 10 10h29c6 0 10 -4 10 -10v-457c0 -6 -4 -10 -10 -10z
" />
    <glyph glyph-name="fl" unicode="fl" horiz-adv-x="437" 
d="M121 0h-30c-6 0 -10 4 -10 10v419c0 4 -2 6 -6 6h-29c-6 0 -10 4 -10 10v22c0 6 4 10 10 10h29c4 0 6 2 6 6v87c0 72 30 110 104 110h15c6 0 10 -4 10 -10v-27c0 -6 -4 -10 -10 -10h-21c-33 0 -48 -16 -48 -53v-97c0 -4 2 -6 6 -6h62c6 0 10 -4 10 -10v-22
c0 -6 -4 -10 -10 -10h-62c-4 0 -6 -2 -6 -6v-419c0 -6 -4 -10 -10 -10zM395 -3h-7c-67 5 -92 35 -92 114v559c0 6 4 10 10 10h29c6 0 10 -4 10 -10v-565c0 -38 12 -54 44 -60l5 -1c7 -1 10 -4 10 -10v-28c0 -6 -3 -10 -9 -9z" />
    <glyph glyph-name="f_f" unicode="ff" horiz-adv-x="460" 
d="M121 0h-30c-6 0 -10 4 -10 10v419c0 4 -2 6 -6 6h-29c-6 0 -10 4 -10 10v22c0 6 4 10 10 10h29c4 0 6 2 6 6v87c0 72 30 110 104 110h15c6 0 10 -4 10 -10v-27c0 -6 -4 -10 -10 -10h-21c-33 0 -48 -16 -48 -53v-97c0 -4 2 -6 6 -6h62c6 0 10 -4 10 -10v-22
c0 -6 -4 -10 -10 -10h-62c-4 0 -6 -2 -6 -6v-419c0 -6 -4 -10 -10 -10zM351 0h-30c-6 0 -10 4 -10 10v419c0 4 -2 6 -6 6h-29c-6 0 -10 4 -10 10v22c0 6 4 10 10 10h29c4 0 6 2 6 6v87c0 72 30 110 104 110h15c6 0 10 -4 10 -10v-27c0 -6 -4 -10 -10 -10h-21
c-33 0 -48 -16 -48 -53v-97c0 -4 2 -6 6 -6h62c6 0 10 -4 10 -10v-22c0 -6 -4 -10 -10 -10h-62c-4 0 -6 -2 -6 -6v-419c0 -6 -4 -10 -10 -10z" />
    <glyph glyph-name="f_f_i" unicode="ffi" horiz-adv-x="641" 
d="M121 0h-30c-6 0 -10 4 -10 10v419c0 4 -2 6 -6 6h-29c-6 0 -10 4 -10 10v22c0 6 4 10 10 10h29c4 0 6 2 6 6v87c0 72 30 110 104 110h15c6 0 10 -4 10 -10v-27c0 -6 -4 -10 -10 -10h-21c-33 0 -48 -16 -48 -53v-97c0 -4 2 -6 6 -6h62c6 0 10 -4 10 -10v-22
c0 -6 -4 -10 -10 -10h-62c-4 0 -6 -2 -6 -6v-419c0 -6 -4 -10 -10 -10zM351 0h-30c-6 0 -10 4 -10 10v419c0 4 -2 6 -6 6h-29c-6 0 -10 4 -10 10v22c0 6 4 10 10 10h29c4 0 6 2 6 6v87c0 72 30 110 104 110h15c6 0 10 -4 10 -10v-27c0 -6 -4 -10 -10 -10h-21
c-33 0 -48 -16 -48 -53v-97c0 -4 2 -6 6 -6h62c6 0 10 -4 10 -10v-22c0 -6 -4 -10 -10 -10h-62c-4 0 -6 -2 -6 -6v-419c0 -6 -4 -10 -10 -10zM570 606h-39c-6 0 -10 4 -10 10v54c0 6 4 10 10 10h39c6 0 10 -4 10 -10v-54c0 -6 -4 -10 -10 -10zM565 0h-29c-6 0 -10 4 -10 10
v457c0 6 4 10 10 10h29c6 0 10 -4 10 -10v-457c0 -6 -4 -10 -10 -10z" />
    <glyph glyph-name="f_f_l" unicode="ffl" horiz-adv-x="667" 
d="M121 0h-30c-6 0 -10 4 -10 10v419c0 4 -2 6 -6 6h-29c-6 0 -10 4 -10 10v22c0 6 4 10 10 10h29c4 0 6 2 6 6v87c0 72 30 110 104 110h15c6 0 10 -4 10 -10v-27c0 -6 -4 -10 -10 -10h-21c-33 0 -48 -16 -48 -53v-97c0 -4 2 -6 6 -6h62c6 0 10 -4 10 -10v-22
c0 -6 -4 -10 -10 -10h-62c-4 0 -6 -2 -6 -6v-419c0 -6 -4 -10 -10 -10zM351 0h-30c-6 0 -10 4 -10 10v419c0 4 -2 6 -6 6h-29c-6 0 -10 4 -10 10v22c0 6 4 10 10 10h29c4 0 6 2 6 6v87c0 72 30 110 104 110h15c6 0 10 -4 10 -10v-27c0 -6 -4 -10 -10 -10h-21
c-33 0 -48 -16 -48 -53v-97c0 -4 2 -6 6 -6h62c6 0 10 -4 10 -10v-22c0 -6 -4 -10 -10 -10h-62c-4 0 -6 -2 -6 -6v-419c0 -6 -4 -10 -10 -10zM625 -3h-7c-67 5 -92 35 -92 114v559c0 6 4 10 10 10h29c6 0 10 -4 10 -10v-565c0 -38 12 -54 44 -60l5 -1c7 -1 10 -4 10 -10v-28
c0 -6 -3 -10 -9 -9z" />
    <glyph glyph-name=".notdef" horiz-adv-x="361" 
d="M0 10v660c0 6 4 10 10 10h341c6 0 10 -4 10 -10v-660c0 -6 -4 -10 -10 -10h-341c-6 0 -10 4 -10 10zM37 41c0 -4 2 -6 6 -6h275c4 0 6 2 6 6v598c0 4 -2 6 -6 6h-275c-4 0 -6 -2 -6 -6v-598zM174 221c-6 0 -10 4 -10 10v47c0 17 3 29 11 45l35 67c14 28 19 41 19 71
c0 18 -1 28 -4 37c-7 21 -22 30 -43 30c-22 0 -37 -9 -43 -30c-3 -9 -4 -18 -4 -48c0 -6 -5 -9 -11 -8l-18 2c-6 1 -9 5 -9 11c0 33 3 45 6 54c11 33 38 54 79 54s69 -21 79 -54c3 -9 6 -23 6 -47c0 -35 -6 -51 -21 -82l-35 -67c-7 -12 -9 -21 -9 -36v-46
c0 -6 -4 -10 -10 -10h-18zM159 125v37c0 6 4 10 10 10h28c6 0 10 -4 10 -10v-37c0 -6 -4 -10 -10 -10h-28c-6 0 -10 4 -10 10z" />
    <glyph glyph-name=".null" horiz-adv-x="500" 
 />
    <glyph glyph-name="CR" horiz-adv-x="0" 
 />
    <glyph glyph-name="space" unicode=" " horiz-adv-x="184" 
 />
    <glyph glyph-name="exclam" unicode="!" horiz-adv-x="211" 
d="M96 170c-6 0 -10 4 -10 10l-8 490c0 6 4 10 10 10h34c6 0 10 -4 10 -10l-8 -490c0 -6 -4 -10 -10 -10h-18zM73 10v65c0 6 4 10 10 10h45c6 0 10 -4 10 -10v-65c0 -6 -4 -10 -10 -10h-45c-6 0 -10 4 -10 10z" />
    <glyph glyph-name="quotedbl" unicode="&#x22;" horiz-adv-x="227" 
d="M153 523c-6 0 -10 4 -10 10v137c0 6 4 10 10 10h22c6 0 10 -4 10 -10v-137c0 -6 -4 -10 -10 -10h-22zM52 523c-6 0 -10 4 -10 10v137c0 6 4 10 10 10h22c6 0 10 -4 10 -10v-137c0 -6 -4 -10 -10 -10h-22z" />
    <glyph glyph-name="numbersign" unicode="#" horiz-adv-x="514" 
d="M112 11l23 220h-56c-6 0 -10 4 -10 10v21c0 6 4 10 10 10h60l17 164h-58c-6 0 -10 4 -10 10v20c0 6 4 10 10 10h62l21 194c1 6 4 10 11 10h21c6 0 10 -4 9 -11l-21 -193h133l21 194c1 6 4 10 11 10h21c6 0 10 -4 9 -11l-21 -193h60c6 0 10 -4 10 -10v-20
c0 -6 -4 -10 -10 -10h-64l-17 -164h62c6 0 10 -4 10 -10v-21c0 -6 -4 -10 -10 -10h-66l-23 -221c-1 -6 -4 -10 -11 -10h-21c-6 0 -10 4 -9 11l23 220h-133l-23 -221c-1 -6 -4 -10 -11 -10h-21c-6 0 -10 4 -9 11zM180 272h133l17 164h-133z" />
    <glyph glyph-name="dollar" unicode="$" horiz-adv-x="371" 
d="M47 158c0 6 2 10 8 11l27 5c8 1 11 -3 11 -9c5 -88 29 -121 79 -126v294l-11 5c-82 32 -105 75 -105 179c0 110 38 165 116 170v43c0 6 4 10 10 10h11c6 0 10 -4 10 -10v-43c74 -7 108 -56 112 -153c1 -6 -1 -10 -7 -11l-26 -4c-6 -1 -11 3 -11 9c-5 71 -23 104 -68 111
v-262l12 -4c79 -31 106 -74 106 -186c0 -133 -38 -187 -118 -194v-64c0 -6 -4 -10 -10 -10h-11c-6 0 -10 4 -10 10v64c-83 5 -121 60 -125 165zM172 389v251c-48 -4 -68 -39 -68 -121c0 -79 14 -108 68 -130zM203 40c46 5 70 38 70 143c0 84 -19 117 -70 138v-281z" />
    <glyph glyph-name="percent" unicode="%" horiz-adv-x="620" 
d="M170 2l238 676c3 8 7 10 13 10h22c6 0 9 -4 7 -10l-238 -676c-3 -8 -7 -10 -13 -10h-22c-6 0 -9 4 -7 10zM145 331c-40 0 -68 21 -78 54c-6 17 -7 29 -7 123c0 95 1 107 7 124c10 33 38 54 78 54c41 0 69 -21 79 -54c6 -17 7 -29 7 -124c0 -94 -1 -106 -7 -123
c-10 -33 -38 -54 -79 -54zM145 367c22 0 36 11 42 29c2 8 4 21 4 112c0 92 -2 105 -4 113c-6 18 -20 28 -42 28c-21 0 -35 -10 -41 -28c-3 -8 -4 -21 -4 -113c0 -91 1 -104 4 -112c6 -18 20 -29 41 -29zM396 48c-6 17 -7 29 -7 124c0 94 1 106 7 123c10 33 38 54 79 54
c40 0 68 -21 79 -54c5 -17 6 -29 6 -123c0 -95 -1 -107 -6 -124c-11 -33 -39 -54 -79 -54c-41 0 -69 21 -79 54zM433 59c6 -17 20 -28 42 -28c21 0 35 11 41 28c3 8 4 21 4 113c0 91 -1 104 -4 112c-6 18 -20 29 -41 29c-22 0 -36 -11 -42 -29c-2 -8 -4 -21 -4 -112
c0 -92 2 -105 4 -113z" />
    <glyph glyph-name="ampersand" unicode="&#x26;" horiz-adv-x="511" 
d="M68 134c0 66 37 130 129 238c-59 104 -77 148 -77 192c0 77 49 124 118 124s117 -47 117 -124c0 -60 -29 -110 -102 -196l105 -190l46 84c3 6 8 8 14 5l20 -12c5 -3 7 -8 4 -13l-60 -107l35 -61c12 -24 19 -28 31 -28h4c6 0 10 -4 10 -10v-26c0 -6 -4 -10 -10 -10h-13
c-27 0 -39 8 -57 41l-27 48c-41 -63 -88 -97 -152 -97c-84 0 -135 57 -135 142zM229 410c63 74 79 109 79 155c0 52 -28 81 -70 81s-70 -29 -70 -81c0 -32 12 -65 61 -155zM116 135c0 -62 33 -98 89 -98c46 0 85 27 126 94l-110 198c-76 -89 -105 -137 -105 -194z" />
    <glyph glyph-name="quotesingle" unicode="'" horiz-adv-x="126" 
d="M52 523c-6 0 -10 4 -10 10v137c0 6 4 10 10 10h22c6 0 10 -4 10 -10v-137c0 -6 -4 -10 -10 -10h-22z" />
    <glyph glyph-name="parenleft" unicode="(" horiz-adv-x="238" 
d="M152 -74c-52 120 -81 266 -81 402s29 282 81 402c3 6 7 10 13 10h19c6 0 9 -4 7 -10c-46 -129 -70 -273 -70 -402s24 -273 70 -402c2 -6 -1 -10 -7 -10h-19c-6 0 -10 4 -13 10z" />
    <glyph glyph-name="parenright" unicode=")" horiz-adv-x="238" 
d="M47 -74c46 129 70 273 70 402s-24 273 -70 402c-2 6 1 10 7 10h18c6 0 11 -4 13 -10c52 -120 81 -266 81 -402s-29 -282 -81 -402c-2 -6 -7 -10 -13 -10h-18c-6 0 -9 4 -7 10z" />
    <glyph glyph-name="asterisk" unicode="*" horiz-adv-x="324" 
d="M155 402c-6 0 -10 4 -10 10v99l-73 -43c-5 -3 -10 -2 -13 3l-8 15c-3 5 -2 11 3 14l72 41l-72 41c-5 3 -6 9 -3 14l8 15c3 5 8 6 13 3l73 -43v99c0 6 4 10 10 10h15c6 0 10 -4 10 -10l-1 -99l73 43c5 3 10 2 13 -3l8 -15c3 -5 2 -11 -3 -14l-72 -41l72 -41
c5 -3 6 -9 3 -14l-8 -15c-3 -5 -8 -6 -13 -3l-73 43l1 -99c0 -6 -4 -10 -10 -10h-15z" />
    <glyph glyph-name="plus" unicode="+" horiz-adv-x="371" 
d="M162 139v108c0 4 -2 6 -6 6h-107c-6 0 -10 4 -10 10v26c0 6 4 10 10 10h107c4 0 6 2 6 6v108c0 6 4 10 10 10h27c6 0 10 -4 10 -10v-108c0 -4 2 -6 6 -6h107c6 0 10 -4 10 -10v-26c0 -6 -4 -10 -10 -10h-107c-4 0 -6 -2 -6 -6v-108c0 -6 -4 -10 -10 -10h-27
c-6 0 -10 4 -10 10z" />
    <glyph glyph-name="comma" unicode="," horiz-adv-x="165" 
d="M53 75c0 6 4 10 10 10h39c6 0 10 -4 10 -10v-65c0 -11 -2 -16 -5 -25l-36 -80c-2 -5 -5 -7 -10 -7c-6 0 -8 3 -8 8v169z" />
    <glyph glyph-name="hyphen" unicode="-" horiz-adv-x="297" 
d="M51 243c-6 0 -10 4 -10 10v27c0 6 4 10 10 10h196c6 0 10 -4 10 -10v-27c0 -6 -4 -10 -10 -10h-196z" />
    <glyph glyph-name="period" unicode="." horiz-adv-x="171" 
d="M53 10v65c0 6 4 10 10 10h45c6 0 10 -4 10 -10v-65c0 -6 -4 -10 -10 -10h-45c-6 0 -10 4 -10 10z" />
    <glyph glyph-name="slash" unicode="/" horiz-adv-x="223" 
d="M28 2l124 676c1 6 5 10 11 10h23c6 0 10 -4 9 -10l-125 -676c-1 -7 -5 -10 -11 -10h-22c-6 0 -10 4 -9 10z" />
    <glyph glyph-name="zero" unicode="0" horiz-adv-x="371" 
d="M65 75c-7 21 -11 49 -11 265s4 244 11 266c19 56 62 82 121 82c58 0 101 -26 120 -82c7 -22 11 -50 11 -266s-4 -244 -11 -265c-19 -57 -62 -83 -120 -83c-59 0 -102 26 -121 83zM113 90c11 -34 35 -51 73 -51c37 0 61 17 72 51c6 17 9 42 9 250c0 209 -3 233 -9 250
c-11 34 -35 51 -72 51c-38 0 -62 -17 -73 -51c-6 -17 -9 -41 -9 -250c0 -208 3 -233 9 -250z" />
    <glyph glyph-name="one" unicode="1" horiz-adv-x="371" 
d="M184 10v606h-2l-86 -69c-6 -4 -11 -2 -11 7v34c0 6 2 10 8 15l88 71c5 4 8 6 15 6h27c6 0 10 -4 10 -10v-660c0 -6 -4 -10 -10 -10h-29c-6 0 -10 4 -10 10z" />
    <glyph glyph-name="two" unicode="2" horiz-adv-x="371" 
d="M56 10v26c0 7 1 11 4 16l171 340c21 42 33 77 33 133c0 40 -2 53 -7 66c-10 32 -35 50 -73 50c-37 0 -62 -18 -73 -50c-4 -13 -6 -26 -6 -78c0 -7 -4 -11 -11 -10l-28 3c-7 1 -10 5 -10 12c0 51 3 69 9 88c17 52 58 82 120 82s103 -29 120 -82c6 -19 8 -37 8 -81
c0 -67 -14 -107 -39 -157l-163 -320v-1h192c6 0 10 -4 10 -10v-27c0 -6 -4 -10 -10 -10h-237c-6 0 -10 4 -10 10z" />
    <glyph glyph-name="three" unicode="3" horiz-adv-x="371" 
d="M64 74c-6 19 -8 38 -8 83c0 7 3 11 9 12l28 3c7 1 12 -3 12 -9c0 -48 1 -61 6 -74c10 -32 35 -50 73 -50c37 0 62 17 73 50c4 13 6 26 6 97c0 72 -2 84 -6 97c-11 32 -36 49 -78 49h-16c-6 0 -10 4 -10 10v27c0 6 4 10 10 10h16c42 0 67 17 78 49c4 13 6 25 6 82
c0 55 -2 68 -6 81c-11 33 -36 50 -73 50c-38 0 -63 -18 -73 -50c-5 -13 -6 -26 -6 -74c0 -6 -5 -10 -12 -9l-28 3c-6 1 -9 5 -9 12c0 46 2 64 8 83c17 52 58 82 120 82c63 0 103 -29 120 -82c6 -19 9 -38 9 -96c0 -57 -2 -73 -8 -91c-10 -29 -24 -47 -53 -62v-2
c29 -15 43 -32 53 -61c6 -18 8 -34 8 -108s-3 -93 -9 -112c-17 -53 -57 -82 -120 -82c-62 0 -103 30 -120 82z" />
    <glyph glyph-name="four" unicode="4" horiz-adv-x="371" 
d="M37 126c-6 0 -10 4 -10 10v26c0 4 1 9 2 12l140 498c2 6 5 8 12 8h30c6 0 10 -4 8 -11l-140 -494v-2h137c4 0 6 2 6 6v201c0 6 4 10 10 10h30c6 0 10 -4 10 -10v-201c0 -4 2 -6 6 -6h57c6 0 10 -4 10 -10v-27c0 -6 -4 -10 -10 -10h-57c-4 0 -6 -2 -6 -6v-110
c0 -6 -4 -10 -10 -10h-30c-6 0 -10 4 -10 10v110c0 4 -2 6 -6 6h-179z" />
    <glyph glyph-name="five" unicode="5" horiz-adv-x="371" 
d="M68 74c-6 19 -9 38 -9 77c0 7 3 11 10 12l28 3c7 1 11 -2 11 -9c0 -42 2 -55 6 -68c11 -32 36 -50 73 -50c38 0 61 16 72 48c4 13 8 28 8 127c0 100 -4 113 -8 127c-11 32 -34 49 -72 49c-34 0 -54 -15 -70 -38c-4 -7 -7 -9 -15 -9h-25c-6 0 -10 4 -10 10v317
c0 6 4 10 10 10h229c6 0 10 -4 10 -10v-27c0 -6 -4 -10 -10 -10h-187c-4 0 -6 -2 -6 -6v-226h1c17 21 45 36 81 36c59 0 96 -27 112 -77c6 -20 9 -39 9 -146c0 -102 -4 -122 -10 -141c-17 -53 -56 -81 -118 -81s-103 30 -120 82z" />
    <glyph glyph-name="six" unicode="6" horiz-adv-x="371" 
d="M65 75c-6 19 -8 37 -8 117c0 105 6 128 32 194l111 285c2 7 6 9 12 9h33c7 0 9 -3 6 -10l-112 -290l1 -2c8 8 29 14 52 14c60 0 97 -30 114 -81c6 -19 8 -39 8 -119s-2 -98 -8 -117c-17 -53 -58 -83 -120 -83c-63 0 -104 30 -121 83zM113 89c10 -32 35 -50 73 -50
c37 0 62 18 73 50c4 13 6 26 6 103s-2 90 -6 103c-11 32 -36 50 -73 50c-38 0 -63 -18 -73 -50c-5 -13 -7 -26 -7 -103s2 -90 7 -103z" />
    <glyph glyph-name="seven" unicode="7" horiz-adv-x="371" 
d="M93 11l183 620v2h-168c-4 0 -6 -2 -6 -6v-88c0 -6 -4 -10 -10 -10h-27c-6 0 -10 4 -10 10v131c0 6 4 10 10 10h252c6 0 10 -4 10 -10v-27c0 -6 -1 -11 -3 -16l-181 -617c-2 -7 -5 -10 -13 -10h-31c-6 0 -8 4 -6 11z" />
    <glyph glyph-name="eight" unicode="8" horiz-adv-x="371" 
d="M65 75c-6 19 -8 36 -8 111c0 72 2 88 8 107c10 31 29 51 49 63v1c-22 12 -39 33 -49 62c-6 19 -8 37 -8 91c0 59 2 76 8 95c17 53 58 83 121 83c62 0 103 -30 120 -83c6 -19 8 -36 8 -95c0 -54 -2 -72 -8 -91c-9 -29 -27 -50 -49 -62v-1c20 -12 39 -32 49 -63
c6 -19 8 -35 8 -107c0 -75 -2 -92 -8 -111c-17 -53 -58 -83 -120 -83c-63 0 -104 30 -121 83zM186 380c37 0 62 18 73 50c4 13 6 25 6 80s-2 68 -6 81c-11 32 -36 50 -73 50c-38 0 -63 -18 -73 -50c-5 -13 -7 -26 -7 -81s2 -67 7 -80c10 -32 35 -50 73 -50zM113 89
c10 -32 35 -50 73 -50c37 0 62 18 73 50c4 13 6 25 6 97c0 71 -2 83 -6 96c-11 33 -36 51 -73 51c-38 0 -63 -18 -73 -51c-5 -13 -7 -25 -7 -96c0 -72 2 -84 7 -97z" />
    <glyph glyph-name="nine" unicode="9" horiz-adv-x="371" 
d="M120 10l113 290l-2 2c-8 -8 -29 -14 -52 -14c-60 0 -97 30 -114 81c-6 19 -8 39 -8 119c0 81 2 98 8 117c17 53 58 83 121 83c62 0 103 -30 120 -83c6 -19 8 -36 8 -117c0 -105 -5 -128 -32 -194l-111 -285c-2 -7 -5 -9 -12 -9h-33c-6 0 -9 3 -6 10zM186 335
c37 0 62 18 73 50c4 13 6 26 6 103s-2 90 -6 103c-11 32 -36 50 -73 50c-38 0 -63 -18 -73 -50c-5 -13 -7 -26 -7 -103s2 -90 7 -103c10 -32 35 -50 73 -50z" />
    <glyph glyph-name="colon" unicode=":" horiz-adv-x="181" 
d="M68 392c-6 0 -10 4 -10 10v65c0 6 4 10 10 10h45c6 0 10 -4 10 -10v-65c0 -6 -4 -10 -10 -10h-45zM58 10v65c0 6 4 10 10 10h45c6 0 10 -4 10 -10v-65c0 -6 -4 -10 -10 -10h-45c-6 0 -10 4 -10 10z" />
    <glyph glyph-name="semicolon" unicode=";" horiz-adv-x="181" 
d="M68 392c-6 0 -10 4 -10 10v65c0 6 4 10 10 10h45c6 0 10 -4 10 -10v-65c0 -6 -4 -10 -10 -10h-45zM61 75c0 6 4 10 10 10h39c6 0 10 -4 10 -10v-62c0 -11 -1 -16 -5 -25l-36 -80c-2 -5 -5 -7 -10 -7s-8 3 -8 8v166z" />
    <glyph glyph-name="less" unicode="&#x3c;" horiz-adv-x="371" 
d="M49 251c-6 2 -10 7 -10 14v22c0 7 4 12 10 14l273 113c6 2 10 0 10 -6v-31c0 -6 -2 -10 -10 -13l-216 -87v-2l216 -87c8 -3 10 -7 10 -13v-30c0 -6 -4 -9 -10 -7z" />
    <glyph glyph-name="equal" unicode="=" horiz-adv-x="371" 
d="M49 329c-6 0 -10 4 -10 10v26c0 6 4 10 10 10h273c6 0 10 -4 10 -10v-26c0 -6 -4 -10 -10 -10h-273zM49 177c-6 0 -10 4 -10 10v26c0 6 4 10 10 10h273c6 0 10 -4 10 -10v-26c0 -6 -4 -10 -10 -10h-273z" />
    <glyph glyph-name="greater" unicode="&#x3e;" horiz-adv-x="371" 
d="M49 138c-5 -2 -10 1 -10 7v30c0 6 3 10 10 13l217 87v2l-217 87c-7 3 -10 7 -10 13v31c0 6 5 8 10 6l273 -113c7 -2 10 -7 10 -14v-22c0 -7 -3 -12 -10 -14z" />
    <glyph glyph-name="question" unicode="?" horiz-adv-x="325" 
d="M144 170c-6 0 -10 4 -10 10v72c0 26 4 45 16 69l55 104c20 37 28 62 28 109c0 27 -3 44 -7 57c-11 33 -32 50 -69 50c-35 0 -59 -15 -70 -50c-4 -13 -7 -27 -7 -78c0 -7 -4 -11 -11 -10l-28 3c-7 1 -10 5 -10 12c0 52 3 71 9 89c17 51 59 81 117 81c60 0 100 -28 116 -81
c6 -16 9 -38 9 -73c0 -51 -6 -77 -31 -125l-54 -103c-10 -19 -14 -33 -14 -56v-70c0 -6 -4 -10 -10 -10h-29zM126 10v65c0 6 4 10 10 10h45c6 0 10 -4 10 -10v-65c0 -6 -4 -10 -10 -10h-45c-6 0 -10 4 -10 10z" />
    <glyph glyph-name="at" unicode="@" horiz-adv-x="686" 
d="M70 67c-13 39 -18 76 -18 202c0 125 5 163 18 201c39 120 141 190 273 190s234 -70 273 -190c13 -38 18 -76 18 -201c0 -99 -3 -118 -9 -137c-16 -50 -54 -73 -101 -73c-46 0 -81 19 -97 60h-1c-16 -43 -46 -60 -92 -60c-50 0 -81 22 -95 66c-6 19 -9 38 -9 137
s3 118 9 137c14 43 45 66 95 66c35 0 61 -15 73 -39h2v22c0 6 4 10 10 10h27c6 0 10 -4 10 -10v-269c0 -56 29 -79 68 -79c31 0 52 15 62 43c4 14 6 23 6 126c0 126 -6 159 -16 191c-33 101 -120 160 -233 160c-114 0 -200 -59 -233 -160c-11 -32 -16 -65 -16 -191
s5 -160 16 -191c33 -101 119 -160 233 -160c64 0 112 13 156 44c5 3 10 4 14 -2l11 -16c4 -4 3 -10 -2 -13c-48 -35 -107 -54 -179 -54c-132 0 -234 70 -273 190zM280 145c10 -30 31 -44 63 -44c31 0 53 14 63 44c4 14 6 27 6 117s-2 103 -6 117c-10 29 -32 44 -63 44
c-32 0 -53 -15 -63 -44c-5 -14 -6 -27 -6 -117s1 -103 6 -117z" />
    <glyph glyph-name="A" unicode="A" horiz-adv-x="388" 
d="M25 10l143 660c2 6 5 10 11 10h33c6 0 10 -4 11 -10l140 -660c1 -6 -3 -10 -9 -10h-32c-7 0 -10 4 -11 10l-34 163h-166l-34 -163c-1 -6 -4 -10 -10 -10h-32c-6 0 -11 4 -10 10zM121 220h146l-71 347h-2z" />
    <glyph glyph-name="B" unicode="B" horiz-adv-x="392" 
d="M68 10v660c0 6 4 10 10 10h106c115 0 160 -45 160 -173c0 -88 -27 -131 -79 -151v-2c51 -18 86 -59 86 -166c0 -139 -51 -188 -171 -188h-102c-6 0 -10 4 -10 10zM126 375h60c71 0 106 31 106 127c0 101 -29 129 -109 129h-57c-4 0 -6 -2 -6 -6v-244c0 -4 2 -6 6 -6z
M120 55c0 -4 2 -6 6 -6h55c84 0 118 30 118 140c0 106 -37 139 -112 139h-61c-4 0 -6 -2 -6 -6v-267z" />
    <glyph glyph-name="C" unicode="C" horiz-adv-x="374" 
d="M70 85c-9 29 -13 56 -13 255s4 226 13 255c20 61 64 93 133 93c80 0 130 -50 139 -138c1 -7 0 -11 -6 -13l-30 -6c-6 -2 -11 1 -11 8c-8 64 -37 100 -91 100c-43 0 -70 -19 -84 -60c-7 -22 -10 -45 -10 -239s3 -217 10 -239c14 -41 41 -60 84 -60c54 0 83 36 91 101
c0 6 5 9 11 7l30 -6c6 -1 7 -6 6 -12c-9 -89 -59 -139 -139 -139c-69 0 -113 32 -133 93z" />
    <glyph glyph-name="D" unicode="D" horiz-adv-x="422" 
d="M68 10v660c0 6 4 10 10 10h122c82 0 127 -36 148 -101c12 -37 16 -81 16 -239c0 -157 -4 -202 -16 -239c-21 -65 -66 -101 -148 -101h-122c-6 0 -10 4 -10 10zM120 55c0 -4 2 -6 6 -6h68c57 0 88 22 104 69c10 31 14 72 14 222s-4 191 -14 222c-16 47 -47 69 -104 69h-68
c-4 0 -6 -2 -6 -6v-570z" />
    <glyph glyph-name="E" unicode="E" horiz-adv-x="351" 
d="M68 10v660c0 6 4 10 10 10h231c6 0 10 -4 10 -10v-29c0 -6 -4 -10 -10 -10h-183c-4 0 -6 -2 -6 -6v-250c0 -4 2 -6 6 -6h160c6 0 10 -4 10 -10v-29c0 -6 -4 -10 -10 -10h-160c-4 0 -6 -2 -6 -6v-259c0 -4 2 -6 6 -6h183c6 0 10 -4 10 -10v-29c0 -6 -4 -10 -10 -10h-231
c-6 0 -10 4 -10 10z" />
    <glyph glyph-name="F" unicode="F" horiz-adv-x="348" 
d="M68 10v660c0 6 4 10 10 10h231c6 0 10 -4 10 -10v-29c0 -6 -4 -10 -10 -10h-183c-4 0 -6 -2 -6 -6v-254c0 -4 2 -6 6 -6h160c6 0 10 -4 10 -10v-29c0 -6 -4 -10 -10 -10h-160c-4 0 -6 -2 -6 -6v-300c0 -6 -4 -10 -10 -10h-32c-6 0 -10 4 -10 10z" />
    <glyph glyph-name="G" unicode="G" horiz-adv-x="411" 
d="M70 85c-10 30 -13 56 -13 255s3 225 13 255c20 61 67 93 137 93c88 0 135 -52 146 -134c1 -7 -1 -11 -7 -13l-29 -6c-7 -2 -11 1 -12 7c-9 60 -38 97 -98 97c-43 0 -73 -19 -87 -60c-7 -23 -10 -44 -10 -239s3 -216 10 -239c14 -40 45 -60 88 -60s74 20 88 60
c7 23 10 44 10 199c0 4 -2 6 -6 6h-81c-6 0 -10 4 -10 10v28c0 6 4 10 10 10h128c6 0 10 -4 10 -10v-27c0 -176 -3 -202 -13 -232c-20 -61 -67 -93 -137 -93s-117 32 -137 93z" />
    <glyph glyph-name="H" unicode="H" horiz-adv-x="431" 
d="M68 10v660c0 6 4 10 10 10h32c6 0 10 -4 10 -10v-290c0 -4 2 -6 6 -6h179c4 0 6 2 6 6v290c0 6 4 10 10 10h32c6 0 10 -4 10 -10v-660c0 -6 -4 -10 -10 -10h-32c-6 0 -10 4 -10 10v309c0 4 -2 6 -6 6h-179c-4 0 -6 -2 -6 -6v-309c0 -6 -4 -10 -10 -10h-32
c-6 0 -10 4 -10 10z" />
    <glyph glyph-name="I" unicode="I" horiz-adv-x="188" 
d="M68 10v660c0 6 4 10 10 10h32c6 0 10 -4 10 -10v-660c0 -6 -4 -10 -10 -10h-32c-6 0 -10 4 -10 10z" />
    <glyph glyph-name="J" unicode="J" horiz-adv-x="327" 
d="M34 28c-4 5 -3 10 1 14l23 22c4 4 9 3 13 -1c15 -14 35 -22 56 -22c51 0 81 29 81 99v530c0 6 4 10 10 10h32c6 0 10 -4 10 -10v-526c0 -102 -51 -152 -133 -152c-37 0 -71 13 -93 36z" />
    <glyph glyph-name="K" unicode="K" horiz-adv-x="400" 
d="M68 10v660c0 6 4 10 10 10h32c6 0 10 -4 10 -10v-348l176 350c3 6 6 8 12 8h36c6 0 8 -4 6 -9l-132 -257l153 -404c2 -6 0 -10 -5 -10h-38c-6 0 -9 2 -11 8l-130 349l-67 -130v-217c0 -6 -4 -10 -10 -10h-32c-6 0 -10 4 -10 10z" />
    <glyph glyph-name="L" unicode="L" horiz-adv-x="344" 
d="M68 10v660c0 6 4 10 10 10h32c6 0 10 -4 10 -10v-615c0 -4 2 -6 6 -6h182c6 0 10 -4 10 -10v-29c0 -6 -4 -10 -10 -10h-230c-6 0 -10 4 -10 10z" />
    <glyph glyph-name="M" unicode="M" horiz-adv-x="522" 
d="M68 10v660c0 6 4 10 10 10h34c7 0 11 -3 13 -10l136 -456h2l134 456c2 7 7 10 13 10h34c6 0 10 -4 10 -10v-660c0 -6 -4 -10 -10 -10h-29c-6 0 -10 4 -10 10v522h-3l-120 -401c-2 -7 -5 -10 -11 -10h-20c-6 0 -9 3 -11 10l-120 401h-3v-522c0 -6 -4 -10 -10 -10h-29
c-6 0 -10 4 -10 10z" />
    <glyph glyph-name="N" unicode="N" horiz-adv-x="441" 
d="M68 10v660c0 6 4 10 10 10h40c9 0 13 -2 16 -10l188 -557h3v557c0 6 4 10 10 10h28c6 0 10 -4 10 -10v-660c0 -6 -4 -10 -10 -10h-38c-9 0 -13 2 -16 10l-190 557h-3v-557c0 -6 -4 -10 -10 -10h-28c-6 0 -10 4 -10 10z" />
    <glyph glyph-name="O" unicode="O" horiz-adv-x="414" 
d="M207 -8c-70 0 -117 32 -137 93c-10 30 -13 56 -13 255s3 225 13 255c20 61 67 93 137 93s117 -32 137 -93c10 -30 13 -56 13 -255s-3 -225 -13 -255c-20 -61 -67 -93 -137 -93zM207 41c43 0 74 20 87 60c7 23 11 44 11 239s-4 216 -11 239c-13 41 -44 60 -87 60
s-73 -19 -87 -60c-7 -23 -10 -44 -10 -239s3 -216 10 -239c14 -40 44 -60 87 -60z" />
    <glyph glyph-name="P" unicode="P" horiz-adv-x="387" 
d="M110 0h-32c-6 0 -10 4 -10 10v660c0 6 4 10 10 10h98c119 0 174 -55 174 -197c0 -141 -56 -198 -174 -198h-50c-4 0 -6 -2 -6 -6v-269c0 -6 -4 -10 -10 -10zM176 334c89 0 122 40 122 149c0 108 -33 148 -122 148h-50c-4 0 -6 -2 -6 -6v-285c0 -4 2 -6 6 -6h50z" />
    <glyph glyph-name="Q" unicode="Q" horiz-adv-x="414" 
d="M392 12l-17 -22c-4 -4 -10 -4 -14 0l-47 43c-25 -27 -61 -41 -107 -41c-70 0 -117 32 -137 93c-10 30 -13 56 -13 255s3 225 13 255c20 61 67 93 137 93s117 -32 137 -93c10 -30 13 -56 13 -255s-3 -225 -13 -255l-5 -12l52 -47c5 -4 5 -10 1 -14zM207 40
c29 0 53 9 69 28l-51 47c-5 5 -5 10 -2 15l17 20c4 5 10 5 14 1l43 -40c6 23 8 62 8 229c0 195 -3 216 -11 239c-13 41 -44 60 -87 60s-74 -19 -87 -60c-8 -23 -11 -44 -11 -239s3 -216 11 -239c13 -41 44 -61 87 -61z" />
    <glyph glyph-name="R" unicode="R" horiz-adv-x="404" 
d="M351 0h-37c-6 0 -9 2 -11 7l-88 300c-13 -2 -27 -3 -42 -3h-47c-4 0 -6 -2 -6 -6v-288c0 -6 -4 -10 -10 -10h-32c-6 0 -10 4 -10 10v660c0 6 4 10 10 10h97c119 0 173 -50 173 -188c0 -95 -30 -148 -84 -172l92 -310c2 -6 0 -10 -5 -10zM179 352c81 0 117 31 117 140
c0 105 -34 139 -117 139h-53c-4 0 -6 -2 -6 -6v-267c0 -4 2 -6 6 -6h53z" />
    <glyph glyph-name="S" unicode="S" horiz-adv-x="377" 
d="M333 187c0 -140 -43 -195 -144 -195c-94 0 -141 56 -146 171c0 6 1 10 7 11l30 6c8 2 11 -2 11 -8c7 -99 39 -132 99 -132c61 0 92 29 92 141c0 86 -21 119 -75 140l-41 16c-90 35 -115 79 -115 182c0 114 46 169 138 169c90 0 135 -51 138 -157c0 -6 -1 -9 -7 -11
l-29 -5c-7 -2 -11 2 -11 8c-3 80 -30 117 -90 117c-61 0 -88 -35 -88 -119c0 -79 20 -109 76 -131l41 -16c85 -34 114 -77 114 -187z" />
    <glyph glyph-name="T" unicode="T" horiz-adv-x="360" 
d="M196 0h-32c-6 0 -10 4 -10 10v615c0 4 -2 6 -6 6h-120c-6 0 -10 4 -10 10v29c0 6 4 10 10 10h304c6 0 10 -4 10 -10v-29c0 -6 -4 -10 -10 -10h-120c-4 0 -6 -2 -6 -6v-615c0 -6 -4 -10 -10 -10z" />
    <glyph glyph-name="U" unicode="U" horiz-adv-x="428" 
d="M214 -8c-88 0 -147 55 -147 168v510c0 6 4 10 10 10h32c6 0 10 -4 10 -10v-514c0 -79 38 -115 95 -115s96 36 96 115v514c0 6 4 10 10 10h31c6 0 10 -4 10 -10v-510c0 -113 -59 -168 -147 -168z" />
    <glyph glyph-name="V" unicode="V" horiz-adv-x="377" 
d="M204 0h-31c-6 0 -9 4 -10 10l-135 660c-1 6 1 10 8 10h33c6 0 10 -4 11 -10l108 -548h3l107 548c1 6 4 10 10 10h33c7 0 9 -4 8 -10l-135 -660c-1 -6 -4 -10 -10 -10z" />
    <glyph glyph-name="W" unicode="W" horiz-adv-x="572" 
d="M418 0h-29c-6 0 -9 4 -10 10l-91 540h-2l-92 -540c-1 -6 -4 -10 -10 -10h-30c-6 0 -9 4 -10 10l-112 660c-1 6 1 10 8 10h33c6 0 10 -4 11 -10l85 -542h2l92 542c1 6 4 10 10 10h26c6 0 9 -4 10 -10l93 -542h3l85 542c1 6 4 10 10 10h33c6 0 8 -4 7 -10l-112 -660
c-1 -6 -4 -10 -10 -10z" />
    <glyph glyph-name="X" unicode="X" horiz-adv-x="380" 
d="M342 0h-35c-6 0 -9 3 -11 9l-106 276h-1l-105 -276c-2 -6 -5 -9 -11 -9h-36c-6 0 -8 4 -6 10l132 344l-122 316c-2 6 1 10 7 10h35c6 0 9 -3 11 -9l95 -251h1l95 251c2 6 5 9 11 9h36c6 0 8 -4 6 -10l-122 -316l133 -344c2 -6 -1 -10 -7 -10z" />
    <glyph glyph-name="Y" unicode="Y" horiz-adv-x="360" 
d="M196 0h-32c-6 0 -10 4 -10 10v276l-131 384c-2 6 0 10 6 10h35c6 0 9 -4 11 -10l105 -309h2l103 309c2 6 5 10 11 10h35c6 0 8 -4 6 -10l-131 -384v-276c0 -6 -4 -10 -10 -10z" />
    <glyph glyph-name="Z" unicode="Z" horiz-adv-x="350" 
d="M306 0h-262c-6 0 -10 4 -10 10v27c0 6 1 9 3 14l224 579v1h-209c-6 0 -10 4 -10 10v29c0 6 4 10 10 10h253c6 0 10 -4 10 -10v-28c0 -5 0 -8 -2 -13l-223 -579v-1h216c6 0 10 -4 10 -10v-29c0 -6 -4 -10 -10 -10z" />
    <glyph glyph-name="bracketleft" unicode="[" horiz-adv-x="240" 
d="M190 -84h-94c-6 0 -10 4 -10 10v804c0 6 4 10 10 10h94c6 0 10 -4 10 -10v-24c0 -6 -4 -10 -10 -10h-51c-4 0 -6 -2 -6 -6v-724c0 -4 2 -6 6 -6h51c6 0 10 -4 10 -10v-24c0 -6 -4 -10 -10 -10z" />
    <glyph glyph-name="backslash" unicode="\" horiz-adv-x="223" 
d="M186 -8h-23c-6 0 -10 3 -11 10l-124 676c-1 6 3 10 9 10h22c6 0 10 -4 11 -10l125 -676c1 -6 -3 -10 -9 -10z" />
    <glyph glyph-name="bracketright" unicode="]" horiz-adv-x="240" 
d="M144 -84h-94c-6 0 -10 4 -10 10v24c0 6 4 10 10 10h51c4 0 6 2 6 6v724c0 4 -2 6 -6 6h-51c-6 0 -10 4 -10 10v24c0 6 4 10 10 10h94c6 0 10 -4 10 -10v-804c0 -6 -4 -10 -10 -10z" />
    <glyph glyph-name="asciicircum" unicode="^" horiz-adv-x="371" 
d="M326 283h-28c-6 0 -10 3 -13 10l-98 317h-2l-99 -317c-2 -7 -7 -10 -13 -10h-28c-6 0 -9 4 -7 10l122 377c2 6 7 10 14 10h23c7 0 12 -4 14 -10l122 -377c2 -6 -1 -10 -7 -10z" />
    <glyph glyph-name="underscore" unicode="_" horiz-adv-x="364" 
d="M364 -119h-364v36h364v-36z" />
    <glyph glyph-name="grave" unicode="`" 
d="M237 559h-20c-8 0 -11 2 -17 10l-82 121c-3 5 -1 10 5 10h33c8 0 12 -3 16 -10l71 -121c3 -6 0 -10 -6 -10z" />
    <glyph glyph-name="a" unicode="a" horiz-adv-x="359" 
d="M288 0h-28c-6 0 -10 4 -10 10v46h-1c-13 -41 -50 -64 -92 -64c-59 0 -110 36 -110 138s52 142 135 142h62c4 0 6 2 6 6v52c0 77 -25 108 -76 108c-38 0 -63 -13 -84 -35c-4 -5 -10 -5 -14 -1l-14 21c-3 5 -2 10 2 15c23 27 61 47 114 47c81 0 120 -41 120 -151v-324
c0 -6 -4 -10 -10 -10zM167 36c47 0 83 44 83 110v76c0 4 -2 6 -6 6h-57c-66 0 -91 -30 -91 -97c0 -66 28 -95 71 -95z" />
    <glyph glyph-name="b" unicode="b" horiz-adv-x="376" 
d="M208 -8c-53 0 -79 27 -92 57h-1v-39c0 -6 -4 -10 -10 -10h-29c-6 0 -10 4 -10 10v660c0 6 4 10 10 10h29c6 0 10 -4 10 -10v-243h1c13 31 39 58 92 58c50 0 86 -23 103 -76c9 -28 11 -47 11 -171c0 -123 -2 -143 -11 -170c-17 -53 -53 -76 -103 -76zM194 39
c35 0 59 16 70 50c7 21 9 36 9 149s-2 128 -9 150c-11 34 -35 50 -70 50c-34 0 -59 -19 -69 -50c-7 -22 -10 -37 -10 -150s3 -128 10 -149c10 -32 35 -50 69 -50z" />
    <glyph glyph-name="c" unicode="c" horiz-adv-x="336" 
d="M53 238c0 124 2 138 11 166c17 53 56 81 114 81c68 0 112 -41 121 -113c1 -5 -1 -9 -6 -11l-29 -6c-6 -2 -11 1 -12 7c-8 54 -33 76 -74 76c-30 0 -55 -14 -67 -49c-6 -22 -9 -34 -9 -151s3 -129 9 -151c12 -35 37 -49 67 -49c41 0 66 22 74 76c1 6 6 9 12 7l29 -6
c5 -2 7 -6 6 -11c-9 -72 -53 -113 -121 -113c-58 0 -97 28 -114 81c-9 28 -11 42 -11 166z" />
    <glyph glyph-name="d" unicode="d" horiz-adv-x="376" 
d="M168 -8c-50 0 -86 23 -103 76c-9 27 -11 47 -11 170c0 124 2 143 11 171c17 53 53 76 103 76c53 0 79 -27 92 -58h1v243c0 6 4 10 10 10h29c6 0 10 -4 10 -10v-660c0 -6 -4 -10 -10 -10h-29c-6 0 -10 4 -10 10v39h-1c-13 -30 -39 -57 -92 -57zM182 39c34 0 59 18 69 50
c7 21 10 36 10 149s-3 128 -10 150c-10 31 -35 50 -69 50c-35 0 -59 -16 -70 -50c-7 -22 -9 -37 -9 -150s2 -128 9 -149c11 -34 35 -50 70 -50z" />
    <glyph glyph-name="e" unicode="e" horiz-adv-x="355" 
d="M305 238c0 -6 -4 -10 -10 -10h-187c-4 0 -6 -2 -6 -6c0 -98 4 -117 9 -134c11 -33 35 -49 67 -49c41 0 64 19 77 66c2 7 6 9 12 7l27 -6c5 -1 8 -5 6 -12c-14 -67 -57 -102 -123 -102c-56 0 -96 28 -113 81c-7 20 -11 44 -11 165s4 145 11 166c17 53 57 81 115 81
s98 -28 115 -81c7 -21 11 -45 11 -166zM250 272c4 0 6 2 6 6c0 78 -4 97 -9 111c-11 33 -35 50 -68 50s-57 -17 -68 -50c-5 -14 -9 -33 -9 -111c0 -4 2 -6 6 -6h142z" />
    <glyph glyph-name="f" unicode="f" horiz-adv-x="230" 
d="M121 0h-30c-6 0 -10 4 -10 10v419c0 4 -2 6 -6 6h-29c-6 0 -10 4 -10 10v22c0 6 4 10 10 10h29c4 0 6 2 6 6v87c0 72 30 110 104 110h15c6 0 10 -4 10 -10v-27c0 -6 -4 -10 -10 -10h-21c-33 0 -48 -16 -48 -53v-97c0 -4 2 -6 6 -6h62c6 0 10 -4 10 -10v-22
c0 -6 -4 -10 -10 -10h-62c-4 0 -6 -2 -6 -6v-419c0 -6 -4 -10 -10 -10z" />
    <glyph glyph-name="g" unicode="g" horiz-adv-x="372" 
d="M179 -188c-56 0 -103 30 -117 81c-1 5 0 10 5 12l28 10c6 3 11 0 13 -6c11 -33 39 -50 71 -50c48 0 78 28 78 90v105h-1c-13 -31 -37 -58 -90 -58c-54 0 -86 27 -102 77c-7 24 -11 51 -11 167c0 117 4 144 11 168c16 49 48 77 102 77c53 0 77 -27 90 -58h1v40
c0 6 4 10 10 10h29c6 0 10 -4 10 -10v-513c0 -95 -49 -142 -127 -142zM179 43c34 0 57 18 68 50c6 18 10 38 10 147s-4 130 -10 148c-11 32 -34 50 -68 50c-36 0 -58 -17 -68 -50c-6 -18 -9 -39 -9 -148s3 -129 9 -147c10 -33 32 -50 68 -50z" />
    <glyph glyph-name="h" unicode="h" horiz-adv-x="380" 
d="M308 0h-29c-6 0 -10 4 -10 10v322c0 69 -23 106 -77 106c-47 0 -77 -34 -77 -106v-322c0 -6 -4 -10 -10 -10h-29c-6 0 -10 4 -10 10v660c0 6 4 10 10 10h29c6 0 10 -4 10 -10v-242h1c13 31 41 57 91 57c75 0 111 -48 111 -145v-330c0 -6 -4 -10 -10 -10z" />
    <glyph glyph-name="i" unicode="i" horiz-adv-x="181" 
d="M110 606h-39c-6 0 -10 4 -10 10v54c0 6 4 10 10 10h39c6 0 10 -4 10 -10v-54c0 -6 -4 -10 -10 -10zM105 0h-29c-6 0 -10 4 -10 10v457c0 6 4 10 10 10h29c6 0 10 -4 10 -10v-457c0 -6 -4 -10 -10 -10z" />
    <glyph glyph-name="j" unicode="j" horiz-adv-x="181" 
d="M110 606h-39c-6 0 -10 4 -10 10v54c0 6 4 10 10 10h39c6 0 10 -4 10 -10v-54c0 -6 -4 -10 -10 -10zM29 -180h-7c-6 0 -10 4 -10 10v27c0 6 4 10 10 10h7c26 1 37 13 37 44v556c0 6 4 10 10 10h29c6 0 10 -4 10 -10v-555c0 -63 -28 -92 -86 -92z" />
    <glyph glyph-name="k" unicode="k" horiz-adv-x="351" 
d="M317 0h-31c-7 0 -11 3 -14 10l-100 232l-57 -102v-130c0 -6 -4 -10 -10 -10h-29c-6 0 -10 4 -10 10v660c0 6 4 10 10 10h29c6 0 10 -4 10 -10v-450l137 247c4 7 7 10 14 10h33c6 0 9 -4 6 -10l-104 -178l124 -279c2 -6 -2 -10 -8 -10z" />
    <glyph glyph-name="l" unicode="l" horiz-adv-x="207" 
d="M165 -3h-7c-67 5 -92 35 -92 114v559c0 6 4 10 10 10h29c6 0 10 -4 10 -10v-565c0 -38 12 -54 44 -60l5 -1c7 -1 10 -4 10 -10v-28c0 -6 -3 -10 -9 -9z" />
    <glyph glyph-name="m" unicode="m" horiz-adv-x="583" 
d="M511 0h-29c-6 0 -10 4 -10 10v322c0 71 -25 106 -78 106c-46 0 -75 -34 -76 -103v-325c0 -6 -4 -10 -10 -10h-29c-6 0 -10 4 -10 10v322c0 69 -23 106 -77 106c-47 0 -77 -34 -77 -106v-322c0 -6 -4 -10 -10 -10h-29c-6 0 -10 4 -10 10v457c0 6 4 10 10 10h29
c6 0 10 -4 10 -10v-39h1c13 31 41 57 91 57c49 0 82 -21 98 -63h1c16 37 51 63 100 63c77 0 115 -47 115 -145v-330c0 -6 -4 -10 -10 -10z" />
    <glyph glyph-name="n" unicode="n" horiz-adv-x="380" 
d="M308 0h-29c-6 0 -10 4 -10 10v322c0 69 -23 106 -77 106c-47 0 -77 -34 -77 -106v-322c0 -6 -4 -10 -10 -10h-29c-6 0 -10 4 -10 10v457c0 6 4 10 10 10h29c6 0 10 -4 10 -10v-39h1c13 31 41 57 91 57c75 0 111 -48 111 -145v-330c0 -6 -4 -10 -10 -10z" />
    <glyph glyph-name="o" unicode="o" 
d="M309 239c0 -119 -2 -138 -10 -165c-17 -54 -60 -82 -118 -82s-101 28 -118 82c-8 27 -10 46 -10 165c0 118 2 137 10 164c17 54 60 82 118 82s101 -28 118 -82c8 -27 10 -46 10 -164zM260 239c0 112 -1 128 -8 149c-11 34 -36 50 -71 50s-60 -16 -71 -50
c-7 -21 -8 -37 -8 -149c0 -113 1 -129 8 -150c11 -34 36 -50 71 -50s60 16 71 50c7 21 8 37 8 150z" />
    <glyph glyph-name="p" unicode="p" horiz-adv-x="376" 
d="M105 -180h-29c-6 0 -10 4 -10 10v637c0 6 4 10 10 10h29c6 0 10 -4 10 -10v-40h1c13 31 39 58 92 58c50 0 86 -23 103 -76c9 -28 11 -47 11 -171c0 -123 -2 -143 -11 -170c-17 -53 -53 -76 -103 -76c-53 0 -79 27 -92 57h-1v-219c0 -6 -4 -10 -10 -10zM194 39
c35 0 59 16 70 50c7 21 9 36 9 149s-2 128 -9 150c-11 34 -35 50 -70 50c-34 0 -59 -19 -69 -50c-7 -22 -10 -37 -10 -150s3 -128 10 -149c10 -32 35 -50 69 -50z" />
    <glyph glyph-name="q" unicode="q" horiz-adv-x="376" 
d="M300 -180h-29c-6 0 -10 4 -10 10v219h-1c-13 -30 -39 -57 -92 -57c-50 0 -86 23 -103 76c-9 27 -11 47 -11 170c0 124 2 143 11 171c17 53 53 76 103 76c53 0 79 -27 92 -58h1v40c0 6 4 10 10 10h29c6 0 10 -4 10 -10v-637c0 -6 -4 -10 -10 -10zM182 39c34 0 59 18 69 50
c7 21 10 36 10 149s-3 128 -10 150c-10 31 -35 50 -69 50c-35 0 -59 -16 -70 -50c-7 -22 -9 -37 -9 -150s2 -128 9 -149c11 -34 35 -50 70 -50z" />
    <glyph glyph-name="r" unicode="r" horiz-adv-x="248" 
d="M105 0h-29c-6 0 -10 4 -10 10v457c0 6 4 10 10 10h29c6 0 10 -4 10 -10v-43h1c12 34 42 61 85 61c7 0 15 -1 20 -3c6 -2 8 -6 6 -12l-8 -30c-2 -6 -6 -7 -12 -6c-4 1 -9 1 -15 1c-41 0 -77 -37 -77 -115v-310c0 -6 -4 -10 -10 -10z" />
    <glyph glyph-name="s" unicode="s" horiz-adv-x="335" 
d="M169 -8c-73 0 -117 41 -125 119c-1 6 1 11 7 12l27 5c6 1 11 -2 12 -8c6 -61 38 -84 79 -84c46 0 74 25 74 87c0 46 -13 72 -58 90l-42 16c-61 24 -91 62 -91 128c0 76 42 128 117 128c72 0 109 -49 115 -104c1 -6 -2 -12 -7 -13l-24 -5c-6 -1 -11 2 -12 8
c-8 41 -29 70 -73 70c-45 0 -68 -31 -68 -82c0 -38 12 -64 59 -82l41 -16c70 -27 91 -68 91 -136c0 -82 -43 -133 -122 -133z" />
    <glyph glyph-name="t" unicode="t" horiz-adv-x="229" 
d="M184 -3h-18c-61 0 -85 26 -85 91v341c0 4 -2 6 -6 6h-29c-6 0 -10 4 -10 10v22c0 6 4 10 10 10h29c4 0 6 2 6 6v137c0 6 4 10 10 10h29c6 0 10 -4 10 -10v-137c0 -4 2 -6 6 -6h48c6 0 10 -4 10 -10v-22c0 -6 -4 -10 -10 -10h-48c-4 0 -6 -2 -6 -6v-341
c0 -30 12 -44 41 -44h13c6 0 10 -4 10 -10v-27c0 -6 -4 -10 -10 -10z" />
    <glyph glyph-name="u" unicode="u" horiz-adv-x="376" 
d="M300 0h-29c-6 0 -10 4 -10 10v39h-1c-13 -31 -39 -57 -89 -57c-74 0 -110 47 -110 144v331c0 6 4 10 10 10h29c6 0 10 -4 10 -10v-322c0 -70 23 -106 76 -106c47 0 75 33 75 106v322c0 6 4 10 10 10h29c6 0 10 -4 10 -10v-457c0 -6 -4 -10 -10 -10z" />
    <glyph glyph-name="v" unicode="v" horiz-adv-x="335" 
d="M181 0h-26c-7 0 -10 4 -11 10l-113 457c-1 6 2 10 8 10h31c6 0 9 -4 10 -10l88 -365h2l86 365c1 6 4 10 10 10h31c6 0 9 -4 7 -10l-113 -457c-1 -6 -4 -10 -10 -10z" />
    <glyph glyph-name="w" unicode="w" horiz-adv-x="509" 
d="M363 0h-26c-6 0 -9 4 -10 10l-72 354h-2l-71 -354c-1 -6 -4 -10 -10 -10h-26c-6 0 -9 4 -11 10l-98 457c-1 6 2 10 8 10h31c7 0 10 -4 11 -10l71 -361h2l73 361c1 6 4 10 10 10h23c7 0 10 -4 11 -10l72 -361h2l72 361c1 6 4 10 10 10h31c6 0 9 -4 8 -10l-98 -457
c-1 -6 -4 -10 -11 -10z" />
    <glyph glyph-name="x" unicode="x" horiz-adv-x="342" 
d="M304 0h-35c-7 0 -10 3 -13 9l-85 187h-1l-84 -187c-3 -6 -6 -9 -13 -9h-35c-6 0 -8 4 -5 10l112 237l-102 220c-3 6 -1 10 5 10h34c7 0 10 -2 13 -9l77 -170h1l76 170c3 7 6 9 13 9h33c6 0 8 -4 5 -10l-103 -220l112 -237c3 -6 1 -10 -5 -10z" />
    <glyph glyph-name="y" unicode="y" horiz-adv-x="339" 
d="M70 -180h-9c-6 0 -10 4 -10 10v27c0 6 4 10 10 10l11 1c27 0 41 12 52 55l22 89l-113 455c-1 6 2 10 8 10h33c6 0 9 -4 10 -10l86 -362h1l86 362c1 6 4 10 10 10h32c6 0 9 -4 8 -10l-136 -540c-20 -85 -46 -107 -101 -107z" />
    <glyph glyph-name="z" unicode="z" horiz-adv-x="321" 
d="M276 0h-228c-6 0 -10 4 -10 10v25c0 4 1 7 3 11l186 384v2h-169c-6 0 -10 4 -10 10v25c0 6 4 10 10 10h218c6 0 10 -4 10 -10v-21c0 -5 -1 -8 -3 -12l-189 -386v-2h182c6 0 10 -4 10 -10v-26c0 -6 -4 -10 -10 -10z" />
    <glyph glyph-name="braceleft" unicode="{" horiz-adv-x="271" 
d="M221 -84h-16c-62 0 -90 29 -90 103v215c0 49 -14 70 -52 75c-6 1 -10 4 -10 10v24c0 6 4 9 10 10c38 5 52 26 52 75v210c0 73 28 102 90 102h16c6 0 10 -4 10 -10v-24c0 -6 -4 -10 -10 -10h-12c-32 0 -46 -16 -46 -57v-195c0 -71 -10 -95 -46 -112v-2
c36 -17 46 -41 46 -112v-201c0 -41 14 -57 46 -57h12c6 0 10 -4 10 -10v-24c0 -6 -4 -10 -10 -10z" />
    <glyph glyph-name="bar" unicode="|" horiz-adv-x="233" 
d="M128 -84h-23c-6 0 -10 4 -10 10v804c0 6 4 10 10 10h23c6 0 10 -4 10 -10v-804c0 -6 -4 -10 -10 -10z" />
    <glyph glyph-name="braceright" unicode="}" horiz-adv-x="271" 
d="M66 -84h-16c-6 0 -10 4 -10 10v24c0 6 4 10 10 10h12c32 0 46 16 46 57v201c0 71 10 95 46 112v2c-36 17 -46 41 -46 112v195c0 41 -14 57 -46 57h-12c-6 0 -10 4 -10 10v24c0 6 4 10 10 10h16c62 0 90 -29 90 -102v-210c0 -49 14 -70 52 -75c6 -1 10 -4 10 -10v-24
c0 -6 -4 -9 -10 -10c-38 -5 -52 -26 -52 -75v-215c0 -74 -28 -103 -90 -103z" />
    <glyph glyph-name="asciitilde" unicode="~" horiz-adv-x="371" 
d="M245 230c-24 0 -45 12 -66 26c-20 12 -37 23 -52 23c-24 0 -38 -13 -57 -43c-3 -5 -8 -7 -14 -4l-17 10c-5 3 -7 9 -4 14c22 40 48 66 91 66c24 0 45 -12 66 -26c20 -12 37 -23 52 -23c25 0 38 13 57 43c3 5 8 7 14 4l17 -10c5 -3 7 -8 4 -14c-22 -40 -48 -66 -91 -66z
" />
    <glyph glyph-name="uni00A0" unicode="&#xa0;" horiz-adv-x="184" 
 />
    <glyph glyph-name="Agrave" unicode="&#xc0;" horiz-adv-x="388" 
d="M25 10l143 660c2 6 5 10 11 10h33c6 0 10 -4 11 -10l140 -660c1 -6 -3 -10 -9 -10h-32c-7 0 -10 4 -11 10l-34 163h-166l-34 -163c-1 -6 -4 -10 -10 -10h-32c-6 0 -11 4 -10 10zM121 220h146l-71 347h-2zM206 765h-20c-7 0 -11 2 -18 10l-87 103c-4 5 -1 10 5 10h33
c8 0 11 -3 16 -10l76 -103c4 -5 1 -10 -5 -10z" />
    <glyph glyph-name="Aacute" unicode="&#xc1;" horiz-adv-x="388" 
d="M25 10l143 660c2 6 5 10 11 10h33c6 0 10 -4 11 -10l140 -660c1 -6 -3 -10 -9 -10h-32c-7 0 -10 4 -11 10l-34 163h-166l-34 -163c-1 -6 -4 -10 -10 -10h-32c-6 0 -11 4 -10 10zM121 220h146l-71 347h-2zM207 765h-21c-6 0 -8 5 -4 10l75 103c5 7 8 10 17 10h33
c6 0 8 -5 4 -10l-87 -103c-7 -8 -10 -10 -17 -10z" />
    <glyph glyph-name="Acircumflex" unicode="&#xc2;" horiz-adv-x="388" 
d="M25 10l143 660c2 6 5 10 11 10h33c6 0 10 -4 11 -10l140 -660c1 -6 -3 -10 -9 -10h-32c-7 0 -10 4 -11 10l-34 163h-166l-34 -163c-1 -6 -4 -10 -10 -10h-32c-6 0 -11 4 -10 10zM121 220h146l-71 347h-2zM289 754h-23c-7 0 -10 3 -15 10l-57 86h-2l-57 -86
c-5 -7 -8 -10 -16 -10h-22c-6 0 -9 4 -5 10l76 122c4 6 9 9 15 9h20c6 0 11 -3 15 -9l76 -122c4 -6 1 -10 -5 -10z" />
    <glyph glyph-name="Atilde" unicode="&#xc3;" horiz-adv-x="388" 
d="M25 10l143 660c2 6 5 10 11 10h33c6 0 10 -4 11 -10l140 -660c1 -6 -3 -10 -9 -10h-32c-7 0 -10 4 -11 10l-34 163h-166l-34 -163c-1 -6 -4 -10 -10 -10h-32c-6 0 -11 4 -10 10zM121 220h146l-71 347h-2zM232 784c-19 0 -33 10 -45 21c-12 9 -21 16 -33 16
c-16 0 -26 -10 -39 -29c-5 -5 -12 -4 -12 3v30c0 6 2 10 8 16c11 14 25 24 44 24s33 -10 46 -20c12 -10 20 -17 32 -17c16 0 27 10 40 29c4 5 11 4 11 -3v-30c0 -6 -1 -10 -7 -16c-12 -14 -26 -24 -45 -24z" />
    <glyph glyph-name="Adieresis" unicode="&#xc4;" horiz-adv-x="388" 
d="M25 10l143 660c2 6 5 10 11 10h33c6 0 10 -4 11 -10l140 -660c1 -6 -3 -10 -9 -10h-32c-7 0 -10 4 -11 10l-34 163h-166l-34 -163c-1 -6 -4 -10 -10 -10h-32c-6 0 -11 4 -10 10zM121 220h146l-71 347h-2zM279 787h-34c-6 0 -10 4 -10 10v54c0 6 4 10 10 10h34
c6 0 10 -4 10 -10v-54c0 -6 -4 -10 -10 -10zM141 787h-34c-6 0 -10 4 -10 10v54c0 6 4 10 10 10h34c6 0 10 -4 10 -10v-54c0 -6 -4 -10 -10 -10z" />
    <glyph glyph-name="Amacron" unicode="&#x100;" horiz-adv-x="388" 
d="M25 10l143 660c2 6 5 10 11 10h33c6 0 10 -4 11 -10l140 -660c1 -6 -3 -10 -9 -10h-32c-7 0 -10 4 -11 10l-34 163h-166l-34 -163c-1 -6 -4 -10 -10 -10h-32c-6 0 -11 4 -10 10zM121 220h146l-71 347h-2zM284 801h-182c-6 0 -10 4 -10 10v23c0 6 4 10 10 10h182
c6 0 10 -4 10 -10v-23c0 -6 -4 -10 -10 -10z" />
    <glyph glyph-name="Abreve" unicode="&#x102;" horiz-adv-x="388" 
d="M25 10l143 660c2 6 5 10 11 10h33c6 0 10 -4 11 -10l140 -660c1 -6 -3 -10 -9 -10h-32c-7 0 -10 4 -11 10l-34 163h-166l-34 -163c-1 -6 -4 -10 -10 -10h-32c-6 0 -11 4 -10 10zM121 220h146l-71 347h-2zM193 765c-60 0 -94 41 -102 102c0 6 4 10 10 10h17
c7 0 10 -4 11 -10c8 -40 30 -62 64 -62s55 22 64 62c1 6 4 10 11 10h17c6 0 10 -4 9 -10c-7 -61 -41 -102 -101 -102z" />
    <glyph glyph-name="Aring" unicode="&#xc5;" horiz-adv-x="388" 
d="M25 10l143 660c2 6 5 10 11 10h33c6 0 10 -4 11 -10l140 -660c1 -6 -3 -10 -9 -10h-32c-7 0 -10 4 -11 10l-34 163h-166l-34 -163c-1 -6 -4 -10 -10 -10h-32c-6 0 -11 4 -10 10zM121 220h146l-71 347h-2zM193 742c-47 0 -81 35 -81 82s34 81 81 81s81 -34 81 -81
s-34 -82 -81 -82zM193 772c29 0 49 23 49 52s-20 51 -49 51s-49 -22 -49 -51s20 -52 49 -52z" />
    <glyph glyph-name="Aringacute" unicode="&#x1fa;" horiz-adv-x="388" 
d="M203 777h-21c-6 0 -8 5 -4 10l83 91c6 7 11 10 20 10h31c6 0 8 -5 4 -10l-95 -91c-7 -8 -11 -10 -18 -10zM354 0h-32c-7 0 -10 4 -11 10l-34 163h-166l-34 -163c-1 -6 -4 -10 -10 -10h-32c-6 0 -11 4 -10 10l129 588c-25 14 -41 40 -41 72c0 47 34 81 81 81
s81 -34 81 -81c0 -31 -15 -57 -38 -70v-1l126 -589c1 -6 -3 -10 -9 -10zM194 619c29 0 50 22 50 51s-21 51 -50 51s-49 -22 -49 -51s20 -51 49 -51zM194 565l-73 -345h146l-71 345h-2z" />
    <glyph glyph-name="Aogonek" unicode="&#x104;" horiz-adv-x="388" 
d="M311 -171c-36 0 -62 23 -62 62c0 32 20 64 66 111c-2 2 -3 4 -4 8l-33 163h-167l-34 -163c-1 -6 -4 -10 -10 -10h-32c-6 0 -11 4 -10 10l143 660c2 6 5 10 11 10h33c6 0 10 -4 11 -10l140 -660c1 -5 0 -8 -4 -11c-48 -46 -67 -79 -67 -102c0 -17 10 -28 25 -28
c8 0 15 3 22 7c5 3 10 3 12 -2l8 -18c3 -5 2 -10 -4 -13c-11 -8 -26 -14 -44 -14zM268 220l-72 347h-2l-74 -347h148z" />
    <glyph glyph-name="AE" unicode="&#xc6;" horiz-adv-x="596" 
d="M554 0h-231c-6 0 -10 4 -10 10v157c0 4 -2 6 -6 6h-167l-63 -163c-3 -7 -6 -10 -13 -10h-32c-6 0 -9 4 -7 10l255 660c2 6 7 10 13 10h261c6 0 10 -4 10 -10v-29c0 -6 -4 -10 -10 -10h-183c-4 0 -6 -2 -6 -6v-250c0 -4 2 -6 6 -6h160c6 0 10 -4 10 -10v-29
c0 -6 -4 -10 -10 -10h-160c-4 0 -6 -2 -6 -6v-259c0 -4 2 -6 6 -6h183c6 0 10 -4 10 -10v-29c0 -6 -4 -10 -10 -10zM311 616l-153 -396h149c4 0 6 2 6 6v390h-2z" />
    <glyph glyph-name="AEacute" unicode="&#x1fc;" horiz-adv-x="596" 
d="M352 765h-21c-6 0 -8 5 -4 10l75 103c5 7 8 10 17 10h33c6 0 8 -5 4 -10l-87 -103c-7 -8 -10 -10 -17 -10zM554 0h-231c-6 0 -10 4 -10 10v157c0 4 -2 6 -6 6h-167l-63 -163c-3 -7 -6 -10 -13 -10h-32c-6 0 -9 4 -7 10l255 660c2 6 7 10 13 10h261c6 0 10 -4 10 -10v-29
c0 -6 -4 -10 -10 -10h-183c-4 0 -6 -2 -6 -6v-250c0 -4 2 -6 6 -6h160c6 0 10 -4 10 -10v-29c0 -6 -4 -10 -10 -10h-160c-4 0 -6 -2 -6 -6v-259c0 -4 2 -6 6 -6h183c6 0 10 -4 10 -10v-29c0 -6 -4 -10 -10 -10zM311 616l-153 -396h149c4 0 6 2 6 6v390h-2z" />
    <glyph glyph-name="Cacute" unicode="&#x106;" horiz-adv-x="374" 
d="M70 85c-9 29 -13 56 -13 255s4 226 13 255c20 61 64 93 133 93c80 0 130 -50 139 -138c1 -7 0 -11 -6 -13l-30 -6c-6 -2 -11 1 -11 8c-8 64 -37 100 -91 100c-43 0 -70 -19 -84 -60c-7 -22 -10 -45 -10 -239s3 -217 10 -239c14 -41 41 -60 84 -60c54 0 83 36 91 101
c0 6 5 9 11 7l30 -6c6 -1 7 -6 6 -12c-9 -89 -59 -139 -139 -139c-69 0 -113 32 -133 93zM201 765h-21c-6 0 -8 5 -4 10l75 103c5 7 8 10 17 10h33c6 0 8 -5 4 -10l-87 -103c-7 -8 -10 -10 -17 -10z" />
    <glyph glyph-name="Ccircumflex" unicode="&#x108;" horiz-adv-x="374" 
d="M70 85c-9 29 -13 56 -13 255s4 226 13 255c20 61 64 93 133 93c80 0 130 -50 139 -138c1 -7 0 -11 -6 -13l-30 -6c-6 -2 -11 1 -11 8c-8 64 -37 100 -91 100c-43 0 -70 -19 -84 -60c-7 -22 -10 -45 -10 -239s3 -217 10 -239c14 -41 41 -60 84 -60c54 0 83 36 91 101
c0 6 5 9 11 7l30 -6c6 -1 7 -6 6 -12c-9 -89 -59 -139 -139 -139c-69 0 -113 32 -133 93zM299 754h-23c-7 0 -10 3 -15 10l-57 86h-2l-57 -86c-5 -7 -8 -10 -16 -10h-22c-6 0 -9 4 -5 10l76 122c4 6 9 9 15 9h20c6 0 11 -3 15 -9l76 -122c4 -6 1 -10 -5 -10z" />
    <glyph glyph-name="Ccaron" unicode="&#x10c;" horiz-adv-x="374" 
d="M70 85c-9 29 -13 56 -13 255s4 226 13 255c20 61 64 93 133 93c80 0 130 -50 139 -138c1 -7 0 -11 -6 -13l-30 -6c-6 -2 -11 1 -11 8c-8 64 -37 100 -91 100c-43 0 -70 -19 -84 -60c-7 -22 -10 -45 -10 -239s3 -217 10 -239c14 -41 41 -60 84 -60c54 0 83 36 91 101
c0 6 5 9 11 7l30 -6c6 -1 7 -6 6 -12c-9 -89 -59 -139 -139 -139c-69 0 -113 32 -133 93zM213 753h-20c-6 0 -11 2 -15 9l-76 122c-4 6 -1 10 5 10h22c8 0 11 -3 16 -10l57 -86h2l57 86c5 7 8 10 15 10h23c6 0 9 -4 5 -10l-76 -122c-4 -7 -9 -9 -15 -9z" />
    <glyph glyph-name="Cdotaccent" unicode="&#x10a;" horiz-adv-x="374" 
d="M223 787h-40c-6 0 -10 4 -10 10v54c0 6 4 10 10 10h40c6 0 10 -4 10 -10v-54c0 -6 -4 -10 -10 -10zM70 85c-9 29 -13 56 -13 255s4 226 13 255c20 61 64 93 133 93c80 0 130 -50 139 -138c1 -7 0 -11 -6 -13l-30 -6c-6 -2 -11 1 -11 8c-8 64 -37 100 -91 100
c-43 0 -70 -19 -84 -60c-7 -22 -10 -45 -10 -239s3 -217 10 -239c14 -41 41 -60 84 -60c54 0 83 36 91 101c0 6 5 9 11 7l30 -6c6 -1 7 -6 6 -12c-9 -89 -59 -139 -139 -139c-69 0 -113 32 -133 93z" />
    <glyph glyph-name="Ccedilla" unicode="&#xc7;" horiz-adv-x="374" 
d="M132 -138l49 131c-57 6 -93 37 -111 92c-9 29 -13 56 -13 255s4 226 13 255c20 61 64 93 133 93c80 0 130 -50 139 -138c1 -7 0 -11 -6 -13l-30 -6c-6 -2 -11 1 -11 8c-8 64 -37 100 -91 100c-43 0 -70 -19 -84 -60c-7 -22 -10 -45 -10 -239s3 -217 10 -239
c14 -41 41 -60 84 -60c54 0 83 36 91 101c0 6 5 9 11 7l30 -6c6 -1 7 -6 6 -12c-8 -81 -51 -130 -118 -137l-43 -132c-2 -7 -8 -10 -16 -10h-26c-6 0 -9 4 -7 10z" />
    <glyph glyph-name="Dcaron" unicode="&#x10e;" horiz-adv-x="422" 
d="M207 753h-20c-6 0 -11 2 -15 9l-76 122c-4 6 -1 10 5 10h22c8 0 11 -3 16 -10l57 -86h2l57 86c5 7 8 10 15 10h23c6 0 9 -4 5 -10l-76 -122c-4 -7 -9 -9 -15 -9zM68 10v660c0 6 4 10 10 10h122c82 0 127 -36 148 -101c12 -37 16 -81 16 -239c0 -157 -4 -202 -16 -239
c-21 -65 -66 -101 -148 -101h-122c-6 0 -10 4 -10 10zM120 55c0 -4 2 -6 6 -6h68c57 0 88 22 104 69c10 31 14 72 14 222s-4 191 -14 222c-16 47 -47 69 -104 69h-68c-4 0 -6 -2 -6 -6v-570z" />
    <glyph glyph-name="Dcroat" unicode="&#x110;" horiz-adv-x="422" 
d="M200 0h-122c-6 0 -10 4 -10 10v307c0 4 -2 6 -6 6h-34c-6 0 -10 4 -10 10v24c0 6 4 10 10 10h34c4 0 6 2 6 6v297c0 6 4 10 10 10h122c82 0 127 -36 148 -101c12 -37 16 -81 16 -239c0 -157 -4 -202 -16 -239c-21 -65 -66 -101 -148 -101zM194 49c57 0 88 22 104 69
c10 31 14 72 14 222s-4 191 -14 222c-16 47 -47 69 -104 69h-68c-4 0 -6 -2 -6 -6v-252c0 -4 2 -6 6 -6h75c6 0 10 -4 10 -10v-24c0 -6 -4 -10 -10 -10h-75c-4 0 -6 -2 -6 -6v-262c0 -4 2 -6 6 -6h68z" />
    <glyph glyph-name="Eth" unicode="&#xd0;" horiz-adv-x="422" 
d="M200 0h-122c-6 0 -10 4 -10 10v307c0 4 -2 6 -6 6h-34c-6 0 -10 4 -10 10v24c0 6 4 10 10 10h34c4 0 6 2 6 6v297c0 6 4 10 10 10h122c82 0 127 -36 148 -101c12 -37 16 -81 16 -239c0 -157 -4 -202 -16 -239c-21 -65 -66 -101 -148 -101zM194 49c57 0 88 22 104 69
c10 31 14 72 14 222s-4 191 -14 222c-16 47 -47 69 -104 69h-68c-4 0 -6 -2 -6 -6v-252c0 -4 2 -6 6 -6h75c6 0 10 -4 10 -10v-24c0 -6 -4 -10 -10 -10h-75c-4 0 -6 -2 -6 -6v-262c0 -4 2 -6 6 -6h68z" />
    <glyph glyph-name="Egrave" unicode="&#xc8;" horiz-adv-x="351" 
d="M213 765h-20c-7 0 -11 2 -18 10l-87 103c-4 5 -1 10 5 10h33c8 0 11 -3 16 -10l76 -103c4 -5 1 -10 -5 -10zM68 10v660c0 6 4 10 10 10h231c6 0 10 -4 10 -10v-29c0 -6 -4 -10 -10 -10h-183c-4 0 -6 -2 -6 -6v-250c0 -4 2 -6 6 -6h160c6 0 10 -4 10 -10v-29
c0 -6 -4 -10 -10 -10h-160c-4 0 -6 -2 -6 -6v-259c0 -4 2 -6 6 -6h183c6 0 10 -4 10 -10v-29c0 -6 -4 -10 -10 -10h-231c-6 0 -10 4 -10 10z" />
    <glyph glyph-name="Eacute" unicode="&#xc9;" horiz-adv-x="351" 
d="M195 765h-21c-6 0 -8 5 -4 10l75 103c5 7 8 10 17 10h33c6 0 8 -5 4 -10l-87 -103c-7 -8 -10 -10 -17 -10zM68 10v660c0 6 4 10 10 10h231c6 0 10 -4 10 -10v-29c0 -6 -4 -10 -10 -10h-183c-4 0 -6 -2 -6 -6v-250c0 -4 2 -6 6 -6h160c6 0 10 -4 10 -10v-29
c0 -6 -4 -10 -10 -10h-160c-4 0 -6 -2 -6 -6v-259c0 -4 2 -6 6 -6h183c6 0 10 -4 10 -10v-29c0 -6 -4 -10 -10 -10h-231c-6 0 -10 4 -10 10z" />
    <glyph glyph-name="Ecircumflex" unicode="&#xca;" horiz-adv-x="351" 
d="M68 10v660c0 6 4 10 10 10h231c6 0 10 -4 10 -10v-29c0 -6 -4 -10 -10 -10h-183c-4 0 -6 -2 -6 -6v-250c0 -4 2 -6 6 -6h160c6 0 10 -4 10 -10v-29c0 -6 -4 -10 -10 -10h-160c-4 0 -6 -2 -6 -6v-259c0 -4 2 -6 6 -6h183c6 0 10 -4 10 -10v-29c0 -6 -4 -10 -10 -10h-231
c-6 0 -10 4 -10 10zM283 754h-23c-7 0 -10 3 -15 10l-57 86h-2l-57 -86c-5 -7 -8 -10 -16 -10h-22c-6 0 -9 4 -5 10l76 122c4 6 9 9 15 9h20c6 0 11 -3 15 -9l76 -122c4 -6 1 -10 -5 -10z" />
    <glyph glyph-name="Ecaron" unicode="&#x11a;" horiz-adv-x="351" 
d="M199 753h-20c-6 0 -11 2 -15 9l-76 122c-4 6 -1 10 5 10h22c8 0 11 -3 16 -10l57 -86h2l57 86c5 7 8 10 15 10h23c6 0 9 -4 5 -10l-76 -122c-4 -7 -9 -9 -15 -9zM68 10v660c0 6 4 10 10 10h231c6 0 10 -4 10 -10v-29c0 -6 -4 -10 -10 -10h-183c-4 0 -6 -2 -6 -6v-250
c0 -4 2 -6 6 -6h160c6 0 10 -4 10 -10v-29c0 -6 -4 -10 -10 -10h-160c-4 0 -6 -2 -6 -6v-259c0 -4 2 -6 6 -6h183c6 0 10 -4 10 -10v-29c0 -6 -4 -10 -10 -10h-231c-6 0 -10 4 -10 10z" />
    <glyph glyph-name="Edieresis" unicode="&#xcb;" horiz-adv-x="351" 
d="M276 787h-34c-6 0 -10 4 -10 10v54c0 6 4 10 10 10h34c6 0 10 -4 10 -10v-54c0 -6 -4 -10 -10 -10zM138 787h-34c-6 0 -10 4 -10 10v54c0 6 4 10 10 10h34c6 0 10 -4 10 -10v-54c0 -6 -4 -10 -10 -10zM68 10v660c0 6 4 10 10 10h231c6 0 10 -4 10 -10v-29
c0 -6 -4 -10 -10 -10h-183c-4 0 -6 -2 -6 -6v-250c0 -4 2 -6 6 -6h160c6 0 10 -4 10 -10v-29c0 -6 -4 -10 -10 -10h-160c-4 0 -6 -2 -6 -6v-259c0 -4 2 -6 6 -6h183c6 0 10 -4 10 -10v-29c0 -6 -4 -10 -10 -10h-231c-6 0 -10 4 -10 10z" />
    <glyph glyph-name="Emacron" unicode="&#x112;" horiz-adv-x="351" 
d="M277 801h-182c-6 0 -10 4 -10 10v23c0 6 4 10 10 10h182c6 0 10 -4 10 -10v-23c0 -6 -4 -10 -10 -10zM68 10v660c0 6 4 10 10 10h231c6 0 10 -4 10 -10v-29c0 -6 -4 -10 -10 -10h-183c-4 0 -6 -2 -6 -6v-250c0 -4 2 -6 6 -6h160c6 0 10 -4 10 -10v-29
c0 -6 -4 -10 -10 -10h-160c-4 0 -6 -2 -6 -6v-259c0 -4 2 -6 6 -6h183c6 0 10 -4 10 -10v-29c0 -6 -4 -10 -10 -10h-231c-6 0 -10 4 -10 10z" />
    <glyph glyph-name="Ebreve" unicode="&#x114;" horiz-adv-x="351" 
d="M187 765c-60 0 -94 41 -102 102c0 6 4 10 10 10h17c7 0 10 -4 11 -10c8 -40 30 -62 64 -62s55 22 64 62c1 6 4 10 11 10h17c6 0 10 -4 9 -10c-7 -61 -41 -102 -101 -102zM68 10v660c0 6 4 10 10 10h231c6 0 10 -4 10 -10v-29c0 -6 -4 -10 -10 -10h-183c-4 0 -6 -2 -6 -6
v-250c0 -4 2 -6 6 -6h160c6 0 10 -4 10 -10v-29c0 -6 -4 -10 -10 -10h-160c-4 0 -6 -2 -6 -6v-259c0 -4 2 -6 6 -6h183c6 0 10 -4 10 -10v-29c0 -6 -4 -10 -10 -10h-231c-6 0 -10 4 -10 10z" />
    <glyph glyph-name="Edotaccent" unicode="&#x116;" horiz-adv-x="351" 
d="M208 787h-40c-6 0 -10 4 -10 10v54c0 6 4 10 10 10h40c6 0 10 -4 10 -10v-54c0 -6 -4 -10 -10 -10zM68 10v660c0 6 4 10 10 10h231c6 0 10 -4 10 -10v-29c0 -6 -4 -10 -10 -10h-183c-4 0 -6 -2 -6 -6v-250c0 -4 2 -6 6 -6h160c6 0 10 -4 10 -10v-29c0 -6 -4 -10 -10 -10
h-160c-4 0 -6 -2 -6 -6v-259c0 -4 2 -6 6 -6h183c6 0 10 -4 10 -10v-29c0 -6 -4 -10 -10 -10h-231c-6 0 -10 4 -10 10z" />
    <glyph glyph-name="Eogonek" unicode="&#x118;" horiz-adv-x="351" 
d="M254 -171c-35 0 -61 23 -61 62c0 33 19 63 61 109h-176c-6 0 -10 4 -10 10v660c0 6 4 10 10 10h231c6 0 10 -4 10 -10v-29c0 -6 -4 -10 -10 -10h-183c-4 0 -6 -2 -6 -6v-250c0 -4 2 -6 6 -6h160c6 0 10 -4 10 -10v-29c0 -6 -4 -10 -10 -10h-160c-4 0 -6 -2 -6 -6v-259
c0 -4 2 -6 6 -6h183c6 0 10 -4 10 -10v-29c0 -6 -4 -10 -10 -10h-7c-50 -51 -66 -80 -66 -103c0 -17 10 -28 25 -28c8 0 15 3 22 7c5 3 9 3 12 -2l8 -18c3 -5 2 -10 -4 -13c-11 -8 -26 -14 -45 -14z" />
    <glyph glyph-name="Gcircumflex" unicode="&#x11c;" horiz-adv-x="411" 
d="M70 85c-10 30 -13 56 -13 255s3 225 13 255c20 61 67 93 137 93c88 0 135 -52 146 -134c1 -7 -1 -11 -7 -13l-29 -6c-7 -2 -11 1 -12 7c-9 60 -38 97 -98 97c-43 0 -73 -19 -87 -60c-7 -23 -10 -44 -10 -239s3 -216 10 -239c14 -40 45 -60 88 -60s74 20 88 60
c7 23 10 44 10 199c0 4 -2 6 -6 6h-81c-6 0 -10 4 -10 10v28c0 6 4 10 10 10h128c6 0 10 -4 10 -10v-27c0 -176 -3 -202 -13 -232c-20 -61 -67 -93 -137 -93s-117 32 -137 93zM301 754h-23c-7 0 -10 3 -15 10l-57 86h-2l-57 -86c-5 -7 -8 -10 -16 -10h-22c-6 0 -9 4 -5 10
l76 122c4 6 9 9 15 9h20c6 0 11 -3 15 -9l76 -122c4 -6 1 -10 -5 -10z" />
    <glyph glyph-name="Gbreve" unicode="&#x11e;" horiz-adv-x="411" 
d="M205 765c-60 0 -94 41 -102 102c0 6 4 10 10 10h17c7 0 10 -4 11 -10c8 -40 30 -62 64 -62s55 22 64 62c1 6 4 10 11 10h17c6 0 10 -4 9 -10c-7 -61 -41 -102 -101 -102zM70 85c-10 30 -13 56 -13 255s3 225 13 255c20 61 67 93 137 93c88 0 135 -52 146 -134
c1 -7 -1 -11 -7 -13l-29 -6c-7 -2 -11 1 -12 7c-9 60 -38 97 -98 97c-43 0 -73 -19 -87 -60c-7 -23 -10 -44 -10 -239s3 -216 10 -239c14 -40 45 -60 88 -60s74 20 88 60c7 23 10 44 10 199c0 4 -2 6 -6 6h-81c-6 0 -10 4 -10 10v28c0 6 4 10 10 10h128c6 0 10 -4 10 -10
v-27c0 -176 -3 -202 -13 -232c-20 -61 -67 -93 -137 -93s-117 32 -137 93z" />
    <glyph glyph-name="Gdotaccent" unicode="&#x120;" horiz-adv-x="411" 
d="M225 787h-40c-6 0 -10 4 -10 10v54c0 6 4 10 10 10h40c6 0 10 -4 10 -10v-54c0 -6 -4 -10 -10 -10zM70 85c-10 30 -13 56 -13 255s3 225 13 255c20 61 67 93 137 93c88 0 135 -52 146 -134c1 -7 -1 -11 -7 -13l-29 -6c-7 -2 -11 1 -12 7c-9 60 -38 97 -98 97
c-43 0 -73 -19 -87 -60c-7 -23 -10 -44 -10 -239s3 -216 10 -239c14 -40 45 -60 88 -60s74 20 88 60c7 23 10 44 10 199c0 4 -2 6 -6 6h-81c-6 0 -10 4 -10 10v28c0 6 4 10 10 10h128c6 0 10 -4 10 -10v-27c0 -176 -3 -202 -13 -232c-20 -61 -67 -93 -137 -93
s-117 32 -137 93z" />
    <glyph glyph-name="Gcommaaccent" unicode="&#x122;" horiz-adv-x="411" 
d="M187 -192c-6 0 -9 3 -9 9v121c0 6 4 10 10 10h34c6 0 10 -4 10 -10v-41c0 -10 -2 -15 -5 -23l-30 -58c-2 -6 -5 -8 -10 -8zM70 85c-10 30 -13 56 -13 255s3 225 13 255c20 61 67 93 137 93c88 0 135 -52 146 -134c1 -7 -1 -11 -7 -13l-29 -6c-7 -2 -11 1 -12 7
c-9 60 -38 97 -98 97c-43 0 -73 -19 -87 -60c-7 -23 -10 -44 -10 -239s3 -216 10 -239c14 -40 45 -60 88 -60s74 20 88 60c7 23 10 44 10 199c0 4 -2 6 -6 6h-81c-6 0 -10 4 -10 10v28c0 6 4 10 10 10h128c6 0 10 -4 10 -10v-27c0 -176 -3 -202 -13 -232
c-20 -61 -67 -93 -137 -93s-117 32 -137 93z" />
    <glyph glyph-name="Hcircumflex" unicode="&#x124;" horiz-adv-x="431" 
d="M68 10v660c0 6 4 10 10 10h32c6 0 10 -4 10 -10v-290c0 -4 2 -6 6 -6h179c4 0 6 2 6 6v290c0 6 4 10 10 10h32c6 0 10 -4 10 -10v-660c0 -6 -4 -10 -10 -10h-32c-6 0 -10 4 -10 10v309c0 4 -2 6 -6 6h-179c-4 0 -6 -2 -6 -6v-309c0 -6 -4 -10 -10 -10h-32
c-6 0 -10 4 -10 10zM311 754h-23c-7 0 -10 3 -15 10l-57 86h-2l-57 -86c-5 -7 -8 -10 -16 -10h-22c-6 0 -9 4 -5 10l76 122c4 6 9 9 15 9h20c6 0 11 -3 15 -9l76 -122c4 -6 1 -10 -5 -10z" />
    <glyph glyph-name="Hbar" unicode="&#x126;" horiz-adv-x="431" 
d="M353 0h-32c-6 0 -10 4 -10 10v309c0 4 -2 6 -6 6h-179c-4 0 -6 -2 -6 -6v-309c0 -6 -4 -10 -10 -10h-32c-6 0 -10 4 -10 10v478c0 4 -2 6 -6 6h-24c-6 0 -10 4 -10 10v23c0 6 4 10 10 10h24c4 0 6 2 6 6v127c0 6 4 10 10 10h32c6 0 10 -4 10 -10v-127c0 -4 2 -6 6 -6h179
c4 0 6 2 6 6v127c0 6 4 10 10 10h32c6 0 10 -4 10 -10v-127c0 -4 2 -6 6 -6h24c6 0 10 -4 10 -10v-23c0 -6 -4 -10 -10 -10h-24c-4 0 -6 -2 -6 -6v-478c0 -6 -4 -10 -10 -10zM305 374c4 0 6 2 6 6v108c0 4 -2 6 -6 6h-179c-4 0 -6 -2 -6 -6v-108c0 -4 2 -6 6 -6h179z" />
    <glyph glyph-name="Igrave" unicode="&#xcc;" horiz-adv-x="188" 
d="M68 10v660c0 6 4 10 10 10h32c6 0 10 -4 10 -10v-660c0 -6 -4 -10 -10 -10h-32c-6 0 -10 4 -10 10zM103 765h-20c-7 0 -11 2 -18 10l-87 103c-4 5 -1 10 5 10h33c8 0 11 -3 16 -10l76 -103c4 -5 1 -10 -5 -10z" />
    <glyph glyph-name="Iacute" unicode="&#xcd;" horiz-adv-x="188" 
d="M68 10v660c0 6 4 10 10 10h32c6 0 10 -4 10 -10v-660c0 -6 -4 -10 -10 -10h-32c-6 0 -10 4 -10 10zM106 765h-21c-6 0 -8 5 -4 10l75 103c5 7 8 10 17 10h33c6 0 8 -5 4 -10l-87 -103c-7 -8 -10 -10 -17 -10z" />
    <glyph glyph-name="Ibreve" unicode="&#x12c;" horiz-adv-x="188" 
d="M68 10v660c0 6 4 10 10 10h32c6 0 10 -4 10 -10v-660c0 -6 -4 -10 -10 -10h-32c-6 0 -10 4 -10 10zM95 765c-60 0 -94 41 -102 102c0 6 4 10 10 10h17c7 0 10 -4 11 -10c8 -40 30 -62 64 -62s55 22 64 62c1 6 4 10 11 10h17c6 0 10 -4 9 -10c-7 -61 -41 -102 -101 -102z
" />
    <glyph glyph-name="Icircumflex" unicode="&#xce;" horiz-adv-x="188" 
d="M68 10v660c0 6 4 10 10 10h32c6 0 10 -4 10 -10v-660c0 -6 -4 -10 -10 -10h-32c-6 0 -10 4 -10 10zM191 754h-23c-7 0 -10 3 -15 10l-57 86h-2l-57 -86c-5 -7 -8 -10 -16 -10h-22c-6 0 -9 4 -5 10l76 122c4 6 9 9 15 9h20c6 0 11 -3 15 -9l76 -122c4 -6 1 -10 -5 -10z
" />
    <glyph glyph-name="Itilde" unicode="&#x128;" horiz-adv-x="188" 
d="M68 10v660c0 6 4 10 10 10h32c6 0 10 -4 10 -10v-660c0 -6 -4 -10 -10 -10h-32c-6 0 -10 4 -10 10zM133 784c-19 0 -33 10 -45 21c-12 9 -21 16 -33 16c-16 0 -26 -10 -39 -29c-5 -5 -12 -4 -12 3v30c0 6 2 10 8 16c11 14 25 24 44 24s33 -10 46 -20
c12 -10 20 -17 32 -17c16 0 27 10 40 29c4 5 11 4 11 -3v-30c0 -6 -1 -10 -7 -16c-12 -14 -26 -24 -45 -24z" />
    <glyph glyph-name="Idieresis" unicode="&#xcf;" horiz-adv-x="188" 
d="M68 10v660c0 6 4 10 10 10h32c6 0 10 -4 10 -10v-660c0 -6 -4 -10 -10 -10h-32c-6 0 -10 4 -10 10zM181 787h-34c-6 0 -10 4 -10 10v54c0 6 4 10 10 10h34c6 0 10 -4 10 -10v-54c0 -6 -4 -10 -10 -10zM43 787h-34c-6 0 -10 4 -10 10v54c0 6 4 10 10 10h34
c6 0 10 -4 10 -10v-54c0 -6 -4 -10 -10 -10z" />
    <glyph glyph-name="Imacron" unicode="&#x12a;" horiz-adv-x="188" 
d="M68 10v660c0 6 4 10 10 10h32c6 0 10 -4 10 -10v-660c0 -6 -4 -10 -10 -10h-32c-6 0 -10 4 -10 10zM186 801h-182c-6 0 -10 4 -10 10v23c0 6 4 10 10 10h182c6 0 10 -4 10 -10v-23c0 -6 -4 -10 -10 -10z" />
    <glyph glyph-name="Idotaccent" unicode="&#x130;" horiz-adv-x="188" 
d="M68 10v660c0 6 4 10 10 10h32c6 0 10 -4 10 -10v-660c0 -6 -4 -10 -10 -10h-32c-6 0 -10 4 -10 10zM115 787h-40c-6 0 -10 4 -10 10v54c0 6 4 10 10 10h40c6 0 10 -4 10 -10v-54c0 -6 -4 -10 -10 -10z" />
    <glyph glyph-name="Iogonek" unicode="&#x12e;" horiz-adv-x="188" 
d="M79 -171c-35 0 -61 23 -61 62c0 32 12 59 54 109c-3 2 -4 6 -4 10v660c0 6 4 10 10 10h32c6 0 10 -4 10 -10v-660c0 -4 -1 -7 -4 -10c-48 -58 -55 -81 -55 -103c0 -17 10 -28 24 -28c9 0 16 3 23 7c5 3 9 3 12 -2l8 -18c3 -5 2 -10 -4 -13c-11 -8 -26 -14 -45 -14z" />
    <glyph glyph-name="Jcircumflex" unicode="&#x134;" horiz-adv-x="327" 
d="M34 28c-4 5 -3 10 1 14l23 22c4 4 9 3 13 -1c15 -14 35 -22 56 -22c51 0 81 29 81 99v530c0 6 4 10 10 10h32c6 0 10 -4 10 -10v-526c0 -102 -51 -152 -133 -152c-37 0 -71 13 -93 36zM328 754h-23c-7 0 -10 3 -15 10l-57 86h-2l-57 -86c-5 -7 -8 -10 -16 -10h-22
c-6 0 -9 4 -5 10l76 122c4 6 9 9 15 9h20c6 0 11 -3 15 -9l76 -122c4 -6 1 -10 -5 -10z" />
    <glyph glyph-name="Kcommaaccent" unicode="&#x136;" horiz-adv-x="400" 
d="M186 -192c-6 0 -9 3 -9 9v121c0 6 4 10 10 10h34c6 0 10 -4 10 -10v-41c0 -10 -2 -15 -5 -23l-30 -58c-2 -6 -5 -8 -10 -8zM68 10v660c0 6 4 10 10 10h32c6 0 10 -4 10 -10v-348l176 350c3 6 6 8 12 8h36c6 0 8 -4 6 -9l-132 -257l153 -404c2 -6 0 -10 -5 -10h-38
c-6 0 -9 2 -11 8l-130 349l-67 -130v-217c0 -6 -4 -10 -10 -10h-32c-6 0 -10 4 -10 10z" />
    <glyph glyph-name="Lacute" unicode="&#x139;" horiz-adv-x="344" 
d="M114 765h-21c-6 0 -8 5 -4 10l75 103c5 7 8 10 17 10h33c6 0 8 -5 4 -10l-87 -103c-7 -8 -10 -10 -17 -10zM68 10v660c0 6 4 10 10 10h32c6 0 10 -4 10 -10v-615c0 -4 2 -6 6 -6h182c6 0 10 -4 10 -10v-29c0 -6 -4 -10 -10 -10h-230c-6 0 -10 4 -10 10z" />
    <glyph glyph-name="Lcaron" unicode="&#x13d;" horiz-adv-x="344" 
d="M174 539c-5 0 -8 3 -8 9v122c0 6 4 10 10 10h32c6 0 10 -4 10 -10v-42c0 -10 -1 -14 -5 -23l-28 -57c-3 -6 -6 -9 -11 -9zM68 10v660c0 6 4 10 10 10h32c6 0 10 -4 10 -10v-615c0 -4 2 -6 6 -6h182c6 0 10 -4 10 -10v-29c0 -6 -4 -10 -10 -10h-230c-6 0 -10 4 -10 10z
" />
    <glyph glyph-name="Lcommaaccent" unicode="&#x13b;" horiz-adv-x="344" 
d="M172 -192c-6 0 -9 3 -9 9v121c0 6 4 10 10 10h34c6 0 10 -4 10 -10v-41c0 -10 -2 -15 -5 -23l-30 -58c-2 -6 -5 -8 -10 -8zM68 10v660c0 6 4 10 10 10h32c6 0 10 -4 10 -10v-615c0 -4 2 -6 6 -6h182c6 0 10 -4 10 -10v-29c0 -6 -4 -10 -10 -10h-230c-6 0 -10 4 -10 10z
" />
    <glyph glyph-name="Lslash" unicode="&#x141;" horiz-adv-x="344" 
d="M211 394l-91 -63v-276c0 -4 2 -6 6 -6h182c6 0 10 -4 10 -10v-29c0 -6 -4 -10 -10 -10h-230c-6 0 -10 4 -10 10v285l-44 -30c-5 -3 -10 0 -10 5v31c0 7 3 11 10 16l44 30v323c0 6 4 10 10 10h32c6 0 10 -4 10 -10v-287l91 63c5 3 10 0 10 -5v-31c0 -7 -3 -11 -10 -16z
" />
    <glyph glyph-name="Ldot" unicode="&#x13f;" horiz-adv-x="344" 
d="M68 10v660c0 6 4 10 10 10h32c6 0 10 -4 10 -10v-615c0 -4 2 -6 6 -6h182c6 0 10 -4 10 -10v-29c0 -6 -4 -10 -10 -10h-230c-6 0 -10 4 -10 10zM288 266h-45c-6 0 -10 4 -10 10v65c0 6 4 10 10 10h45c6 0 10 -4 10 -10v-65c0 -6 -4 -10 -10 -10z" />
    <glyph glyph-name="Nacute" unicode="&#x143;" horiz-adv-x="441" 
d="M214 765h-21c-6 0 -8 5 -4 10l75 103c5 7 8 10 17 10h33c6 0 8 -5 4 -10l-87 -103c-7 -8 -10 -10 -17 -10zM68 10v660c0 6 4 10 10 10h40c9 0 13 -2 16 -10l188 -557h3v557c0 6 4 10 10 10h28c6 0 10 -4 10 -10v-660c0 -6 -4 -10 -10 -10h-38c-9 0 -13 2 -16 10l-190 557
h-3v-557c0 -6 -4 -10 -10 -10h-28c-6 0 -10 4 -10 10z" />
    <glyph glyph-name="Ncaron" unicode="&#x147;" horiz-adv-x="441" 
d="M227 753h-20c-6 0 -11 2 -15 9l-76 122c-4 6 -1 10 5 10h22c8 0 11 -3 16 -10l57 -86h2l57 86c5 7 8 10 15 10h23c6 0 9 -4 5 -10l-76 -122c-4 -7 -9 -9 -15 -9zM68 10v660c0 6 4 10 10 10h40c9 0 13 -2 16 -10l188 -557h3v557c0 6 4 10 10 10h28c6 0 10 -4 10 -10v-660
c0 -6 -4 -10 -10 -10h-38c-9 0 -13 2 -16 10l-190 557h-3v-557c0 -6 -4 -10 -10 -10h-28c-6 0 -10 4 -10 10z" />
    <glyph glyph-name="Ntilde" unicode="&#xd1;" horiz-adv-x="441" 
d="M255 784c-19 0 -33 10 -45 21c-12 9 -21 16 -33 16c-16 0 -26 -10 -39 -29c-5 -5 -12 -4 -12 3v30c0 6 2 10 8 16c11 14 25 24 44 24s33 -10 46 -20c12 -10 20 -17 32 -17c16 0 27 10 40 29c4 5 11 4 11 -3v-30c0 -6 -1 -10 -7 -16c-12 -14 -26 -24 -45 -24zM68 10v660
c0 6 4 10 10 10h40c9 0 13 -2 16 -10l188 -557h3v557c0 6 4 10 10 10h28c6 0 10 -4 10 -10v-660c0 -6 -4 -10 -10 -10h-38c-9 0 -13 2 -16 10l-190 557h-3v-557c0 -6 -4 -10 -10 -10h-28c-6 0 -10 4 -10 10z" />
    <glyph glyph-name="Ncommaaccent" unicode="&#x145;" horiz-adv-x="441" 
d="M202 -192c-6 0 -9 3 -9 9v121c0 6 4 10 10 10h34c6 0 10 -4 10 -10v-41c0 -10 -2 -15 -5 -23l-30 -58c-2 -6 -5 -8 -10 -8zM68 10v660c0 6 4 10 10 10h40c9 0 13 -2 16 -10l188 -557h3v557c0 6 4 10 10 10h28c6 0 10 -4 10 -10v-660c0 -6 -4 -10 -10 -10h-38
c-9 0 -13 2 -16 10l-190 557h-3v-557c0 -6 -4 -10 -10 -10h-28c-6 0 -10 4 -10 10z" />
    <glyph glyph-name="Ograve" unicode="&#xd2;" horiz-adv-x="414" 
d="M218 765h-20c-7 0 -11 2 -18 10l-87 103c-4 5 -1 10 5 10h33c8 0 11 -3 16 -10l76 -103c4 -5 1 -10 -5 -10zM207 -8c-70 0 -117 32 -137 93c-10 30 -13 56 -13 255s3 225 13 255c20 61 67 93 137 93s117 -32 137 -93c10 -30 13 -56 13 -255s-3 -225 -13 -255
c-20 -61 -67 -93 -137 -93zM207 41c43 0 74 20 87 60c7 23 11 44 11 239s-4 216 -11 239c-13 41 -44 60 -87 60s-73 -19 -87 -60c-7 -23 -10 -44 -10 -239s3 -216 10 -239c14 -40 44 -60 87 -60z" />
    <glyph glyph-name="Oacute" unicode="&#xd3;" horiz-adv-x="414" 
d="M212 765h-21c-6 0 -8 5 -4 10l75 103c5 7 8 10 17 10h33c6 0 8 -5 4 -10l-87 -103c-7 -8 -10 -10 -17 -10zM207 -8c-70 0 -117 32 -137 93c-10 30 -13 56 -13 255s3 225 13 255c20 61 67 93 137 93s117 -32 137 -93c10 -30 13 -56 13 -255s-3 -225 -13 -255
c-20 -61 -67 -93 -137 -93zM207 41c43 0 74 20 87 60c7 23 11 44 11 239s-4 216 -11 239c-13 41 -44 60 -87 60s-73 -19 -87 -60c-7 -23 -10 -44 -10 -239s3 -216 10 -239c14 -40 44 -60 87 -60z" />
    <glyph glyph-name="Ocircumflex" unicode="&#xd4;" horiz-adv-x="414" 
d="M207 -8c-70 0 -117 32 -137 93c-10 30 -13 56 -13 255s3 225 13 255c20 61 67 93 137 93s117 -32 137 -93c10 -30 13 -56 13 -255s-3 -225 -13 -255c-20 -61 -67 -93 -137 -93zM207 41c43 0 74 20 87 60c7 23 11 44 11 239s-4 216 -11 239c-13 41 -44 60 -87 60
s-73 -19 -87 -60c-7 -23 -10 -44 -10 -239s3 -216 10 -239c14 -40 44 -60 87 -60zM303 754h-23c-7 0 -10 3 -15 10l-57 86h-2l-57 -86c-5 -7 -8 -10 -16 -10h-22c-6 0 -9 4 -5 10l76 122c4 6 9 9 15 9h20c6 0 11 -3 15 -9l76 -122c4 -6 1 -10 -5 -10z" />
    <glyph glyph-name="Otilde" unicode="&#xd5;" horiz-adv-x="414" 
d="M245 784c-19 0 -33 10 -45 21c-12 9 -21 16 -33 16c-16 0 -26 -10 -39 -29c-5 -5 -12 -4 -12 3v30c0 6 2 10 8 16c11 14 25 24 44 24s33 -10 46 -20c12 -10 20 -17 32 -17c16 0 27 10 40 29c4 5 11 4 11 -3v-30c0 -6 -1 -10 -7 -16c-12 -14 -26 -24 -45 -24zM207 -8
c-70 0 -117 32 -137 93c-10 30 -13 56 -13 255s3 225 13 255c20 61 67 93 137 93s117 -32 137 -93c10 -30 13 -56 13 -255s-3 -225 -13 -255c-20 -61 -67 -93 -137 -93zM207 41c43 0 74 20 87 60c7 23 11 44 11 239s-4 216 -11 239c-13 41 -44 60 -87 60s-73 -19 -87 -60
c-7 -23 -10 -44 -10 -239s3 -216 10 -239c14 -40 44 -60 87 -60z" />
    <glyph glyph-name="Odieresis" unicode="&#xd6;" horiz-adv-x="414" 
d="M293 787h-34c-6 0 -10 4 -10 10v54c0 6 4 10 10 10h34c6 0 10 -4 10 -10v-54c0 -6 -4 -10 -10 -10zM155 787h-34c-6 0 -10 4 -10 10v54c0 6 4 10 10 10h34c6 0 10 -4 10 -10v-54c0 -6 -4 -10 -10 -10zM207 -8c-70 0 -117 32 -137 93c-10 30 -13 56 -13 255s3 225 13 255
c20 61 67 93 137 93s117 -32 137 -93c10 -30 13 -56 13 -255s-3 -225 -13 -255c-20 -61 -67 -93 -137 -93zM207 41c43 0 74 20 87 60c7 23 11 44 11 239s-4 216 -11 239c-13 41 -44 60 -87 60s-73 -19 -87 -60c-7 -23 -10 -44 -10 -239s3 -216 10 -239c14 -40 44 -60 87 -60
z" />
    <glyph glyph-name="Omacron" unicode="&#x14c;" horiz-adv-x="414" 
d="M298 801h-182c-6 0 -10 4 -10 10v23c0 6 4 10 10 10h182c6 0 10 -4 10 -10v-23c0 -6 -4 -10 -10 -10zM207 -8c-70 0 -117 32 -137 93c-10 30 -13 56 -13 255s3 225 13 255c20 61 67 93 137 93s117 -32 137 -93c10 -30 13 -56 13 -255s-3 -225 -13 -255
c-20 -61 -67 -93 -137 -93zM207 41c43 0 74 20 87 60c7 23 11 44 11 239s-4 216 -11 239c-13 41 -44 60 -87 60s-73 -19 -87 -60c-7 -23 -10 -44 -10 -239s3 -216 10 -239c14 -40 44 -60 87 -60z" />
    <glyph glyph-name="Obreve" unicode="&#x14e;" horiz-adv-x="414" 
d="M207 765c-60 0 -94 41 -102 102c0 6 4 10 10 10h17c7 0 10 -4 11 -10c8 -40 30 -62 64 -62s55 22 64 62c1 6 4 10 11 10h17c6 0 10 -4 9 -10c-7 -61 -41 -102 -101 -102zM207 -8c-70 0 -117 32 -137 93c-10 30 -13 56 -13 255s3 225 13 255c20 61 67 93 137 93
s117 -32 137 -93c10 -30 13 -56 13 -255s-3 -225 -13 -255c-20 -61 -67 -93 -137 -93zM207 41c43 0 74 20 87 60c7 23 11 44 11 239s-4 216 -11 239c-13 41 -44 60 -87 60s-73 -19 -87 -60c-7 -23 -10 -44 -10 -239s3 -216 10 -239c14 -40 44 -60 87 -60z" />
    <glyph glyph-name="Ohungarumlaut" unicode="&#x150;" horiz-adv-x="414" 
d="M207 -8c-70 0 -117 32 -137 93c-10 30 -13 56 -13 255s3 225 13 255c20 61 67 93 137 93s117 -32 137 -93c10 -30 13 -56 13 -255s-3 -225 -13 -255c-20 -61 -67 -93 -137 -93zM207 41c43 0 74 20 87 60c7 23 11 44 11 239s-4 216 -11 239c-13 41 -44 60 -87 60
s-73 -19 -87 -60c-7 -23 -10 -44 -10 -239s3 -216 10 -239c14 -40 44 -60 87 -60zM264 765h-18c-6 0 -8 4 -5 10l65 103c4 7 8 10 16 10h29c6 0 8 -5 4 -10l-74 -103c-6 -9 -9 -10 -17 -10zM151 765h-18c-6 0 -8 4 -5 10l65 103c4 7 8 10 16 10h29c6 0 8 -5 4 -10l-74 -103
c-6 -9 -9 -10 -17 -10z" />
    <glyph glyph-name="Oslash" unicode="&#xd8;" horiz-adv-x="414" 
d="M81 -30h-15c-6 0 -9 4 -7 10l26 72c-6 10 -11 21 -15 33c-10 30 -13 56 -13 255s3 225 13 255c20 61 67 93 137 93c40 0 73 -11 98 -32l16 44c2 7 6 10 12 10h15c6 0 10 -4 7 -10l-27 -71c7 -10 12 -22 16 -34c10 -30 13 -56 13 -255s-3 -225 -13 -255
c-20 -61 -67 -93 -137 -93c-41 0 -73 10 -98 31l-16 -43c-2 -7 -6 -10 -12 -10zM110 340c0 -134 1 -186 4 -213l169 476c-16 24 -43 36 -76 36c-43 0 -73 -19 -87 -60c-7 -23 -10 -44 -10 -239zM207 41c43 0 74 20 87 60c7 23 11 44 11 239c0 134 -2 186 -5 212l-169 -475
c17 -24 42 -36 76 -36z" />
    <glyph glyph-name="Oslashacute" unicode="&#x1fe;" horiz-adv-x="414" 
d="M81 -30h-15c-6 0 -9 4 -7 10l26 72c-6 10 -11 21 -15 33c-10 30 -13 56 -13 255s3 225 13 255c20 61 67 93 137 93c40 0 73 -11 98 -32l16 44c2 7 6 10 12 10h15c6 0 10 -4 7 -10l-27 -71c7 -10 12 -22 16 -34c10 -30 13 -56 13 -255s-3 -225 -13 -255
c-20 -61 -67 -93 -137 -93c-41 0 -73 10 -98 31l-16 -43c-2 -7 -6 -10 -12 -10zM110 340c0 -134 1 -186 4 -213l169 476c-16 24 -43 36 -76 36c-43 0 -73 -19 -87 -60c-7 -23 -10 -44 -10 -239zM207 41c43 0 74 20 87 60c7 23 11 44 11 239c0 134 -2 186 -5 212l-169 -475
c17 -24 42 -36 76 -36zM212 765h-21c-6 0 -8 5 -4 10l75 103c5 7 8 10 17 10h33c6 0 8 -5 4 -10l-87 -103c-7 -8 -10 -10 -17 -10z" />
    <glyph glyph-name="OE" unicode="&#x152;" horiz-adv-x="588" 
d="M546 0h-231c-6 0 -10 4 -10 10v32h-1c-17 -30 -52 -50 -102 -50c-66 0 -112 31 -132 92c-10 30 -13 57 -13 256s3 226 13 256c20 62 66 92 132 92c50 0 85 -20 102 -50h1v32c0 6 4 10 10 10h231c6 0 10 -4 10 -10v-29c0 -6 -4 -10 -10 -10h-183c-4 0 -6 -2 -6 -6v-250
c0 -4 2 -6 6 -6h160c6 0 10 -4 10 -10v-29c0 -6 -4 -10 -10 -10h-160c-4 0 -6 -2 -6 -6v-259c0 -4 2 -6 6 -6h183c6 0 10 -4 10 -10v-29c0 -6 -4 -10 -10 -10zM207 41c43 0 74 20 87 60c7 23 11 44 11 239s-4 216 -11 239c-13 41 -44 60 -87 60s-73 -19 -87 -60
c-7 -23 -10 -44 -10 -239s3 -216 10 -239c14 -40 44 -60 87 -60z" />
    <glyph glyph-name="Racute" unicode="&#x154;" horiz-adv-x="404" 
d="M351 0h-37c-6 0 -9 2 -11 7l-88 300c-13 -2 -27 -3 -42 -3h-47c-4 0 -6 -2 -6 -6v-288c0 -6 -4 -10 -10 -10h-32c-6 0 -10 4 -10 10v660c0 6 4 10 10 10h97c119 0 173 -50 173 -188c0 -95 -30 -148 -84 -172l92 -310c2 -6 0 -10 -5 -10zM179 352c81 0 117 31 117 140
c0 105 -34 139 -117 139h-53c-4 0 -6 -2 -6 -6v-267c0 -4 2 -6 6 -6h53zM168 765h-21c-6 0 -8 5 -4 10l75 103c5 7 8 10 17 10h33c6 0 8 -5 4 -10l-87 -103c-7 -8 -10 -10 -17 -10z" />
    <glyph glyph-name="Rcaron" unicode="&#x158;" horiz-adv-x="404" 
d="M198 753h-20c-6 0 -11 2 -15 9l-76 122c-4 6 -1 10 5 10h22c8 0 11 -3 16 -10l57 -86h2l57 86c5 7 8 10 15 10h23c6 0 9 -4 5 -10l-76 -122c-4 -7 -9 -9 -15 -9zM351 0h-37c-6 0 -9 2 -11 7l-88 300c-13 -2 -27 -3 -42 -3h-47c-4 0 -6 -2 -6 -6v-288c0 -6 -4 -10 -10 -10
h-32c-6 0 -10 4 -10 10v660c0 6 4 10 10 10h97c119 0 173 -50 173 -188c0 -95 -30 -148 -84 -172l92 -310c2 -6 0 -10 -5 -10zM179 352c81 0 117 31 117 140c0 105 -34 139 -117 139h-53c-4 0 -6 -2 -6 -6v-267c0 -4 2 -6 6 -6h53z" />
    <glyph glyph-name="Rcommaaccent" unicode="&#x156;" horiz-adv-x="404" 
d="M181 -192c-6 0 -9 3 -9 9v121c0 6 4 10 10 10h34c6 0 10 -4 10 -10v-41c0 -10 -2 -15 -5 -23l-30 -58c-2 -6 -5 -8 -10 -8zM351 0h-37c-6 0 -9 2 -11 7l-88 300c-13 -2 -27 -3 -42 -3h-47c-4 0 -6 -2 -6 -6v-288c0 -6 -4 -10 -10 -10h-32c-6 0 -10 4 -10 10v660
c0 6 4 10 10 10h97c119 0 173 -50 173 -188c0 -95 -30 -148 -84 -172l92 -310c2 -6 0 -10 -5 -10zM179 352c81 0 117 31 117 140c0 105 -34 139 -117 139h-53c-4 0 -6 -2 -6 -6v-267c0 -4 2 -6 6 -6h53z" />
    <glyph glyph-name="Sacute" unicode="&#x15a;" horiz-adv-x="377" 
d="M333 187c0 -140 -43 -195 -144 -195c-94 0 -141 56 -146 171c0 6 1 10 7 11l30 6c8 2 11 -2 11 -8c7 -99 39 -132 99 -132c61 0 92 29 92 141c0 86 -21 119 -75 140l-41 16c-90 35 -115 79 -115 182c0 114 46 169 138 169c90 0 135 -51 138 -157c0 -6 -1 -9 -7 -11
l-29 -5c-7 -2 -11 2 -11 8c-3 80 -30 117 -90 117c-61 0 -88 -35 -88 -119c0 -79 20 -109 76 -131l41 -16c85 -34 114 -77 114 -187zM198 765h-21c-6 0 -8 5 -4 10l75 103c5 7 8 10 17 10h33c6 0 8 -5 4 -10l-87 -103c-7 -8 -10 -10 -17 -10z" />
    <glyph glyph-name="Scircumflex" unicode="&#x15c;" horiz-adv-x="377" 
d="M333 187c0 -140 -43 -195 -144 -195c-94 0 -141 56 -146 171c0 6 1 10 7 11l30 6c8 2 11 -2 11 -8c7 -99 39 -132 99 -132c61 0 92 29 92 141c0 86 -21 119 -75 140l-41 16c-90 35 -115 79 -115 182c0 114 46 169 138 169c90 0 135 -51 138 -157c0 -6 -1 -9 -7 -11
l-29 -5c-7 -2 -11 2 -11 8c-3 80 -30 117 -90 117c-61 0 -88 -35 -88 -119c0 -79 20 -109 76 -131l41 -16c85 -34 114 -77 114 -187zM285 754h-23c-7 0 -10 3 -15 10l-57 86h-2l-57 -86c-5 -7 -8 -10 -16 -10h-22c-6 0 -9 4 -5 10l76 122c4 6 9 9 15 9h20c6 0 11 -3 15 -9
l76 -122c4 -6 1 -10 -5 -10z" />
    <glyph glyph-name="Scaron" unicode="&#x160;" horiz-adv-x="377" 
d="M333 187c0 -140 -43 -195 -144 -195c-94 0 -141 56 -146 171c0 6 1 10 7 11l30 6c8 2 11 -2 11 -8c7 -99 39 -132 99 -132c61 0 92 29 92 141c0 86 -21 119 -75 140l-41 16c-90 35 -115 79 -115 182c0 114 46 169 138 169c90 0 135 -51 138 -157c0 -6 -1 -9 -7 -11
l-29 -5c-7 -2 -11 2 -11 8c-3 80 -30 117 -90 117c-61 0 -88 -35 -88 -119c0 -79 20 -109 76 -131l41 -16c85 -34 114 -77 114 -187zM196 753h-20c-6 0 -11 2 -15 9l-76 122c-4 6 -1 10 5 10h22c8 0 11 -3 16 -10l57 -86h2l57 86c5 7 8 10 15 10h23c6 0 9 -4 5 -10l-76 -122
c-4 -7 -9 -9 -15 -9z" />
    <glyph glyph-name="Scedilla" unicode="&#x15e;" horiz-adv-x="377" 
d="M126 -138l49 131c-85 5 -128 61 -132 170c0 6 1 10 7 11l30 6c8 2 11 -2 11 -8c7 -99 39 -132 99 -132c61 0 92 29 92 141c0 86 -21 119 -75 140l-41 16c-90 35 -115 79 -115 182c0 114 46 169 138 169c90 0 135 -51 138 -157c0 -6 -1 -9 -7 -11l-29 -5
c-7 -2 -11 2 -11 8c-3 80 -30 117 -90 117c-61 0 -88 -35 -88 -119c0 -79 20 -109 76 -131l41 -16c85 -34 114 -77 114 -187c0 -126 -35 -183 -115 -193l-43 -132c-2 -7 -8 -10 -16 -10h-26c-6 0 -9 4 -7 10z" />
    <glyph glyph-name="Scommaaccent" unicode="&#x218;" horiz-adv-x="377" 
d="M171 -192c-6 0 -9 3 -9 9v121c0 6 4 10 10 10h34c6 0 10 -4 10 -10v-41c0 -10 -2 -15 -5 -23l-30 -58c-2 -6 -5 -8 -10 -8zM333 187c0 -140 -43 -195 -144 -195c-94 0 -141 56 -146 171c0 6 1 10 7 11l30 6c8 2 11 -2 11 -8c7 -99 39 -132 99 -132c61 0 92 29 92 141
c0 86 -21 119 -75 140l-41 16c-90 35 -115 79 -115 182c0 114 46 169 138 169c90 0 135 -51 138 -157c0 -6 -1 -9 -7 -11l-29 -5c-7 -2 -11 2 -11 8c-3 80 -30 117 -90 117c-61 0 -88 -35 -88 -119c0 -79 20 -109 76 -131l41 -16c85 -34 114 -77 114 -187z" />
    <glyph glyph-name="Tcaron" unicode="&#x164;" horiz-adv-x="360" 
d="M189 753h-20c-6 0 -11 2 -15 9l-76 122c-4 6 -1 10 5 10h22c8 0 11 -3 16 -10l57 -86h2l57 86c5 7 8 10 15 10h23c6 0 9 -4 5 -10l-76 -122c-4 -7 -9 -9 -15 -9zM196 0h-32c-6 0 -10 4 -10 10v615c0 4 -2 6 -6 6h-120c-6 0 -10 4 -10 10v29c0 6 4 10 10 10h304
c6 0 10 -4 10 -10v-29c0 -6 -4 -10 -10 -10h-120c-4 0 -6 -2 -6 -6v-615c0 -6 -4 -10 -10 -10z" />
    <glyph glyph-name="Tcommaaccent" unicode="&#x162;" horiz-adv-x="360" 
d="M161 -192c-6 0 -9 3 -9 9v121c0 6 4 10 10 10h34c6 0 10 -4 10 -10v-41c0 -10 -2 -15 -5 -23l-30 -58c-2 -6 -5 -8 -10 -8zM196 0h-32c-6 0 -10 4 -10 10v615c0 4 -2 6 -6 6h-120c-6 0 -10 4 -10 10v29c0 6 4 10 10 10h304c6 0 10 -4 10 -10v-29c0 -6 -4 -10 -10 -10
h-120c-4 0 -6 -2 -6 -6v-615c0 -6 -4 -10 -10 -10z" />
    <glyph glyph-name="uni021A" unicode="&#x21a;" horiz-adv-x="360" 
d="M161 -192c-6 0 -9 3 -9 9v121c0 6 4 10 10 10h34c6 0 10 -4 10 -10v-41c0 -10 -2 -15 -5 -23l-30 -58c-2 -6 -5 -8 -10 -8zM196 0h-32c-6 0 -10 4 -10 10v615c0 4 -2 6 -6 6h-120c-6 0 -10 4 -10 10v29c0 6 4 10 10 10h304c6 0 10 -4 10 -10v-29c0 -6 -4 -10 -10 -10
h-120c-4 0 -6 -2 -6 -6v-615c0 -6 -4 -10 -10 -10z" />
    <glyph glyph-name="Tbar" unicode="&#x166;" horiz-adv-x="360" 
d="M196 0h-32c-6 0 -10 4 -10 10v395c0 4 -2 6 -6 6h-75c-6 0 -10 4 -10 10v24c0 6 4 10 10 10h75c4 0 6 2 6 6v164c0 4 -2 6 -6 6h-120c-6 0 -10 4 -10 10v29c0 6 4 10 10 10h304c6 0 10 -4 10 -10v-29c0 -6 -4 -10 -10 -10h-120c-4 0 -6 -2 -6 -6v-164c0 -4 2 -6 6 -6h75
c6 0 10 -4 10 -10v-24c0 -6 -4 -10 -10 -10h-75c-4 0 -6 -2 -6 -6v-395c0 -6 -4 -10 -10 -10z" />
    <glyph glyph-name="Thorn" unicode="&#xde;" horiz-adv-x="387" 
d="M176 150h-50c-4 0 -6 -2 -6 -6v-134c0 -6 -4 -10 -10 -10h-32c-6 0 -10 4 -10 10v660c0 6 4 10 10 10h32c6 0 10 -4 10 -10v-119c0 -4 2 -6 6 -6h50c119 0 174 -55 174 -197c0 -141 -56 -198 -174 -198zM176 199c89 0 122 40 122 149c0 108 -33 148 -122 148h-50
c-4 0 -6 -2 -6 -6v-285c0 -4 2 -6 6 -6h50z" />
    <glyph glyph-name="Ugrave" unicode="&#xd9;" horiz-adv-x="428" 
d="M234 765h-20c-7 0 -11 2 -18 10l-87 103c-4 5 -1 10 5 10h33c8 0 11 -3 16 -10l76 -103c4 -5 1 -10 -5 -10zM214 -8c-88 0 -147 55 -147 168v510c0 6 4 10 10 10h32c6 0 10 -4 10 -10v-514c0 -79 38 -115 95 -115s96 36 96 115v514c0 6 4 10 10 10h31c6 0 10 -4 10 -10
v-510c0 -113 -59 -168 -147 -168z" />
    <glyph glyph-name="Uacute" unicode="&#xda;" horiz-adv-x="428" 
d="M219 765h-21c-6 0 -8 5 -4 10l75 103c5 7 8 10 17 10h33c6 0 8 -5 4 -10l-87 -103c-7 -8 -10 -10 -17 -10zM214 -8c-88 0 -147 55 -147 168v510c0 6 4 10 10 10h32c6 0 10 -4 10 -10v-514c0 -79 38 -115 95 -115s96 36 96 115v514c0 6 4 10 10 10h31c6 0 10 -4 10 -10
v-510c0 -113 -59 -168 -147 -168z" />
    <glyph glyph-name="Ucircumflex" unicode="&#xdb;" horiz-adv-x="428" 
d="M214 -8c-88 0 -147 55 -147 168v510c0 6 4 10 10 10h32c6 0 10 -4 10 -10v-514c0 -79 38 -115 95 -115s96 36 96 115v514c0 6 4 10 10 10h31c6 0 10 -4 10 -10v-510c0 -113 -59 -168 -147 -168zM310 754h-23c-7 0 -10 3 -15 10l-57 86h-2l-57 -86c-5 -7 -8 -10 -16 -10
h-22c-6 0 -9 4 -5 10l76 122c4 6 9 9 15 9h20c6 0 11 -3 15 -9l76 -122c4 -6 1 -10 -5 -10z" />
    <glyph glyph-name="Utilde" unicode="&#x168;" horiz-adv-x="428" 
d="M252 784c-19 0 -33 10 -45 21c-12 9 -21 16 -33 16c-16 0 -26 -10 -39 -29c-5 -5 -12 -4 -12 3v30c0 6 2 10 8 16c11 14 25 24 44 24s33 -10 46 -20c12 -10 20 -17 32 -17c16 0 27 10 40 29c4 5 11 4 11 -3v-30c0 -6 -1 -10 -7 -16c-12 -14 -26 -24 -45 -24zM214 -8
c-88 0 -147 55 -147 168v510c0 6 4 10 10 10h32c6 0 10 -4 10 -10v-514c0 -79 38 -115 95 -115s96 36 96 115v514c0 6 4 10 10 10h31c6 0 10 -4 10 -10v-510c0 -113 -59 -168 -147 -168z" />
    <glyph glyph-name="Udieresis" unicode="&#xdc;" horiz-adv-x="428" 
d="M300 787h-34c-6 0 -10 4 -10 10v54c0 6 4 10 10 10h34c6 0 10 -4 10 -10v-54c0 -6 -4 -10 -10 -10zM162 787h-34c-6 0 -10 4 -10 10v54c0 6 4 10 10 10h34c6 0 10 -4 10 -10v-54c0 -6 -4 -10 -10 -10zM214 -8c-88 0 -147 55 -147 168v510c0 6 4 10 10 10h32
c6 0 10 -4 10 -10v-514c0 -79 38 -115 95 -115s96 36 96 115v514c0 6 4 10 10 10h31c6 0 10 -4 10 -10v-510c0 -113 -59 -168 -147 -168z" />
    <glyph glyph-name="Umacron" unicode="&#x16a;" horiz-adv-x="428" 
d="M305 801h-182c-6 0 -10 4 -10 10v23c0 6 4 10 10 10h182c6 0 10 -4 10 -10v-23c0 -6 -4 -10 -10 -10zM214 -8c-88 0 -147 55 -147 168v510c0 6 4 10 10 10h32c6 0 10 -4 10 -10v-514c0 -79 38 -115 95 -115s96 36 96 115v514c0 6 4 10 10 10h31c6 0 10 -4 10 -10v-510
c0 -113 -59 -168 -147 -168z" />
    <glyph glyph-name="Ubreve" unicode="&#x16c;" horiz-adv-x="428" 
d="M214 765c-60 0 -94 41 -102 102c0 6 4 10 10 10h17c7 0 10 -4 11 -10c8 -40 30 -62 64 -62s55 22 64 62c1 6 4 10 11 10h17c6 0 10 -4 9 -10c-7 -61 -41 -102 -101 -102zM214 -8c-88 0 -147 55 -147 168v510c0 6 4 10 10 10h32c6 0 10 -4 10 -10v-514
c0 -79 38 -115 95 -115s96 36 96 115v514c0 6 4 10 10 10h31c6 0 10 -4 10 -10v-510c0 -113 -59 -168 -147 -168z" />
    <glyph glyph-name="Uring" unicode="&#x16e;" horiz-adv-x="428" 
d="M214 -8c-88 0 -147 55 -147 168v510c0 6 4 10 10 10h32c6 0 10 -4 10 -10v-514c0 -79 38 -115 95 -115s96 36 96 115v514c0 6 4 10 10 10h31c6 0 10 -4 10 -10v-510c0 -113 -59 -168 -147 -168zM214 742c-47 0 -81 35 -81 82s34 81 81 81s81 -34 81 -81s-34 -82 -81 -82z
M214 772c29 0 49 23 49 52s-20 51 -49 51s-49 -22 -49 -51s20 -52 49 -52z" />
    <glyph glyph-name="Uhungarumlaut" unicode="&#x170;" horiz-adv-x="428" 
d="M214 -8c-88 0 -147 55 -147 168v510c0 6 4 10 10 10h32c6 0 10 -4 10 -10v-514c0 -79 38 -115 95 -115s96 36 96 115v514c0 6 4 10 10 10h31c6 0 10 -4 10 -10v-510c0 -113 -59 -168 -147 -168zM273 765h-18c-6 0 -8 4 -5 10l65 103c4 7 8 10 16 10h29c6 0 8 -5 4 -10
l-74 -103c-6 -9 -9 -10 -17 -10zM160 765h-18c-6 0 -8 4 -5 10l65 103c4 7 8 10 16 10h29c6 0 8 -5 4 -10l-74 -103c-6 -9 -9 -10 -17 -10z" />
    <glyph glyph-name="Uogonek" unicode="&#x172;" horiz-adv-x="428" 
d="M217 -171c-35 0 -61 23 -61 62c0 29 10 55 44 102c-78 4 -133 59 -133 167v510c0 6 4 10 10 10h32c6 0 10 -4 10 -10v-514c0 -79 38 -115 95 -115s96 36 96 115v514c0 6 4 10 10 10h31c6 0 10 -4 10 -10v-510c0 -100 -48 -156 -116 -166c-40 -54 -47 -76 -47 -97
c0 -17 11 -28 25 -28c9 0 15 3 22 7c5 3 10 3 13 -2l8 -18c3 -5 1 -10 -4 -13c-11 -8 -27 -14 -45 -14z" />
    <glyph glyph-name="Wacute" unicode="&#x1e82;" horiz-adv-x="572" 
d="M298 765h-21c-6 0 -8 5 -4 10l75 103c5 7 8 10 17 10h33c6 0 8 -5 4 -10l-87 -103c-7 -8 -10 -10 -17 -10zM418 0h-29c-6 0 -9 4 -10 10l-91 540h-2l-92 -540c-1 -6 -4 -10 -10 -10h-30c-6 0 -9 4 -10 10l-112 660c-1 6 1 10 8 10h33c6 0 10 -4 11 -10l85 -542h2l92 542
c1 6 4 10 10 10h26c6 0 9 -4 10 -10l93 -542h3l85 542c1 6 4 10 10 10h33c6 0 8 -4 7 -10l-112 -660c-1 -6 -4 -10 -10 -10z" />
    <glyph glyph-name="Wcircumflex" unicode="&#x174;" horiz-adv-x="572" 
d="M418 0h-29c-6 0 -9 4 -10 10l-91 540h-2l-92 -540c-1 -6 -4 -10 -10 -10h-30c-6 0 -9 4 -10 10l-112 660c-1 6 1 10 8 10h33c6 0 10 -4 11 -10l85 -542h2l92 542c1 6 4 10 10 10h26c6 0 9 -4 10 -10l93 -542h3l85 542c1 6 4 10 10 10h33c6 0 8 -4 7 -10l-112 -660
c-1 -6 -4 -10 -10 -10zM382 754h-23c-7 0 -10 3 -15 10l-57 86h-2l-57 -86c-5 -7 -8 -10 -16 -10h-22c-6 0 -9 4 -5 10l76 122c4 6 9 9 15 9h20c6 0 11 -3 15 -9l76 -122c4 -6 1 -10 -5 -10z" />
    <glyph glyph-name="Wdieresis" unicode="&#x1e84;" horiz-adv-x="572" 
d="M372 787h-34c-6 0 -10 4 -10 10v54c0 6 4 10 10 10h34c6 0 10 -4 10 -10v-54c0 -6 -4 -10 -10 -10zM234 787h-34c-6 0 -10 4 -10 10v54c0 6 4 10 10 10h34c6 0 10 -4 10 -10v-54c0 -6 -4 -10 -10 -10zM418 0h-29c-6 0 -9 4 -10 10l-91 540h-2l-92 -540
c-1 -6 -4 -10 -10 -10h-30c-6 0 -9 4 -10 10l-112 660c-1 6 1 10 8 10h33c6 0 10 -4 11 -10l85 -542h2l92 542c1 6 4 10 10 10h26c6 0 9 -4 10 -10l93 -542h3l85 542c1 6 4 10 10 10h33c6 0 8 -4 7 -10l-112 -660c-1 -6 -4 -10 -10 -10z" />
    <glyph glyph-name="Wgrave" unicode="&#x1e80;" horiz-adv-x="572" 
d="M295 765h-20c-7 0 -11 2 -18 10l-87 103c-4 5 -1 10 5 10h33c8 0 11 -3 16 -10l76 -103c4 -5 1 -10 -5 -10zM418 0h-29c-6 0 -9 4 -10 10l-91 540h-2l-92 -540c-1 -6 -4 -10 -10 -10h-30c-6 0 -9 4 -10 10l-112 660c-1 6 1 10 8 10h33c6 0 10 -4 11 -10l85 -542h2l92 542
c1 6 4 10 10 10h26c6 0 9 -4 10 -10l93 -542h3l85 542c1 6 4 10 10 10h33c6 0 8 -4 7 -10l-112 -660c-1 -6 -4 -10 -10 -10z" />
    <glyph glyph-name="Yacute" unicode="&#xdd;" horiz-adv-x="360" 
d="M196 0h-32c-6 0 -10 4 -10 10v276l-131 384c-2 6 0 10 6 10h35c6 0 9 -4 11 -10l105 -309h2l103 309c2 6 5 10 11 10h35c6 0 8 -4 6 -10l-131 -384v-276c0 -6 -4 -10 -10 -10zM184 765h-21c-6 0 -8 5 -4 10l75 103c5 7 8 10 17 10h33c6 0 8 -5 4 -10l-87 -103
c-7 -8 -10 -10 -17 -10z" />
    <glyph glyph-name="Ycircumflex" unicode="&#x176;" horiz-adv-x="360" 
d="M196 0h-32c-6 0 -10 4 -10 10v276l-131 384c-2 6 0 10 6 10h35c6 0 9 -4 11 -10l105 -309h2l103 309c2 6 5 10 11 10h35c6 0 8 -4 6 -10l-131 -384v-276c0 -6 -4 -10 -10 -10zM276 754h-23c-7 0 -10 3 -15 10l-57 86h-2l-57 -86c-5 -7 -8 -10 -16 -10h-22
c-6 0 -9 4 -5 10l76 122c4 6 9 9 15 9h20c6 0 11 -3 15 -9l76 -122c4 -6 1 -10 -5 -10z" />
    <glyph glyph-name="Ydieresis" unicode="&#x178;" horiz-adv-x="360" 
d="M196 0h-32c-6 0 -10 4 -10 10v276l-131 384c-2 6 0 10 6 10h35c6 0 9 -4 11 -10l105 -309h2l103 309c2 6 5 10 11 10h35c6 0 8 -4 6 -10l-131 -384v-276c0 -6 -4 -10 -10 -10zM266 787h-34c-6 0 -10 4 -10 10v54c0 6 4 10 10 10h34c6 0 10 -4 10 -10v-54
c0 -6 -4 -10 -10 -10zM128 787h-34c-6 0 -10 4 -10 10v54c0 6 4 10 10 10h34c6 0 10 -4 10 -10v-54c0 -6 -4 -10 -10 -10z" />
    <glyph glyph-name="Ygrave" unicode="&#x1ef2;" horiz-adv-x="360" 
d="M196 0h-32c-6 0 -10 4 -10 10v276l-131 384c-2 6 0 10 6 10h35c6 0 9 -4 11 -10l105 -309h2l103 309c2 6 5 10 11 10h35c6 0 8 -4 6 -10l-131 -384v-276c0 -6 -4 -10 -10 -10zM199 765h-20c-7 0 -11 2 -18 10l-87 103c-4 5 -1 10 5 10h33c8 0 11 -3 16 -10l76 -103
c4 -5 1 -10 -5 -10z" />
    <glyph glyph-name="Zacute" unicode="&#x179;" horiz-adv-x="350" 
d="M306 0h-262c-6 0 -10 4 -10 10v27c0 6 1 9 3 14l224 579v1h-209c-6 0 -10 4 -10 10v29c0 6 4 10 10 10h253c6 0 10 -4 10 -10v-28c0 -5 0 -8 -2 -13l-223 -579v-1h216c6 0 10 -4 10 -10v-29c0 -6 -4 -10 -10 -10zM179 765h-21c-6 0 -8 5 -4 10l75 103c5 7 8 10 17 10h33
c6 0 8 -5 4 -10l-87 -103c-7 -8 -10 -10 -17 -10z" />
    <glyph glyph-name="Zcaron" unicode="&#x17d;" horiz-adv-x="350" 
d="M189 753h-20c-6 0 -11 2 -15 9l-76 122c-4 6 -1 10 5 10h22c8 0 11 -3 16 -10l57 -86h2l57 86c5 7 8 10 15 10h23c6 0 9 -4 5 -10l-76 -122c-4 -7 -9 -9 -15 -9zM306 0h-262c-6 0 -10 4 -10 10v27c0 6 1 9 3 14l224 579v1h-209c-6 0 -10 4 -10 10v29c0 6 4 10 10 10h253
c6 0 10 -4 10 -10v-28c0 -5 0 -8 -2 -13l-223 -579v-1h216c6 0 10 -4 10 -10v-29c0 -6 -4 -10 -10 -10z" />
    <glyph glyph-name="Zdotaccent" unicode="&#x17b;" horiz-adv-x="350" 
d="M199 787h-40c-6 0 -10 4 -10 10v54c0 6 4 10 10 10h40c6 0 10 -4 10 -10v-54c0 -6 -4 -10 -10 -10zM306 0h-262c-6 0 -10 4 -10 10v27c0 6 1 9 3 14l224 579v1h-209c-6 0 -10 4 -10 10v29c0 6 4 10 10 10h253c6 0 10 -4 10 -10v-28c0 -5 0 -8 -2 -13l-223 -579v-1h216
c6 0 10 -4 10 -10v-29c0 -6 -4 -10 -10 -10z" />
    <glyph glyph-name="agrave" unicode="&#xe0;" horiz-adv-x="359" 
d="M288 0h-28c-6 0 -10 4 -10 10v46h-1c-13 -41 -50 -64 -92 -64c-59 0 -110 36 -110 138s52 142 135 142h62c4 0 6 2 6 6v52c0 77 -25 108 -76 108c-38 0 -63 -13 -84 -35c-4 -5 -10 -5 -14 -1l-14 21c-3 5 -2 10 2 15c23 27 61 47 114 47c81 0 120 -41 120 -151v-324
c0 -6 -4 -10 -10 -10zM167 36c47 0 83 44 83 110v76c0 4 -2 6 -6 6h-57c-66 0 -91 -30 -91 -97c0 -66 28 -95 71 -95zM196 559h-20c-8 0 -11 2 -17 10l-82 121c-3 5 -1 10 5 10h33c8 0 12 -3 16 -10l71 -121c3 -6 0 -10 -6 -10z" />
    <glyph glyph-name="aacute" unicode="&#xe1;" horiz-adv-x="359" 
d="M288 0h-28c-6 0 -10 4 -10 10v46h-1c-13 -41 -50 -64 -92 -64c-59 0 -110 36 -110 138s52 142 135 142h62c4 0 6 2 6 6v52c0 77 -25 108 -76 108c-38 0 -63 -13 -84 -35c-4 -5 -10 -5 -14 -1l-14 21c-3 5 -2 10 2 15c23 27 61 47 114 47c81 0 120 -41 120 -151v-324
c0 -6 -4 -10 -10 -10zM167 36c47 0 83 44 83 110v76c0 4 -2 6 -6 6h-57c-66 0 -91 -30 -91 -97c0 -66 28 -95 71 -95zM179 559h-21c-6 0 -8 4 -5 10l71 121c4 7 8 10 16 10h32c6 0 9 -5 5 -10l-81 -121c-6 -8 -9 -10 -17 -10z" />
    <glyph glyph-name="acircumflex" unicode="&#xe2;" horiz-adv-x="359" 
d="M288 0h-28c-6 0 -10 4 -10 10v46h-1c-13 -41 -50 -64 -92 -64c-59 0 -110 36 -110 138s52 142 135 142h62c4 0 6 2 6 6v52c0 77 -25 108 -76 108c-38 0 -63 -13 -84 -35c-4 -5 -10 -5 -14 -1l-14 21c-3 5 -2 10 2 15c23 27 61 47 114 47c81 0 120 -41 120 -151v-324
c0 -6 -4 -10 -10 -10zM167 36c47 0 83 44 83 110v76c0 4 -2 6 -6 6h-57c-66 0 -91 -30 -91 -97c0 -66 28 -95 71 -95zM276 559h-23c-7 0 -10 3 -15 10l-57 86h-2l-57 -86c-5 -7 -8 -10 -16 -10h-22c-6 0 -9 4 -5 10l76 122c4 6 9 9 15 9h20c6 0 11 -3 15 -9l76 -122
c4 -6 1 -10 -5 -10z" />
    <glyph glyph-name="atilde" unicode="&#xe3;" horiz-adv-x="359" 
d="M288 0h-28c-6 0 -10 4 -10 10v46h-1c-13 -41 -50 -64 -92 -64c-59 0 -110 36 -110 138s52 142 135 142h62c4 0 6 2 6 6v52c0 77 -25 108 -76 108c-38 0 -63 -13 -84 -35c-4 -5 -10 -5 -14 -1l-14 21c-3 5 -2 10 2 15c23 27 61 47 114 47c81 0 120 -41 120 -151v-324
c0 -6 -4 -10 -10 -10zM167 36c47 0 83 44 83 110v76c0 4 -2 6 -6 6h-57c-66 0 -91 -30 -91 -97c0 -66 28 -95 71 -95zM218 597c-19 0 -33 10 -45 20s-21 17 -33 17c-16 0 -26 -10 -39 -29c-5 -5 -12 -4 -12 3v30c0 6 2 10 8 16c11 14 25 23 44 23s33 -9 46 -20
c12 -9 20 -16 32 -16c16 0 27 10 40 28c4 6 11 5 11 -2v-30c0 -6 -1 -10 -7 -16c-12 -14 -26 -24 -45 -24z" />
    <glyph glyph-name="adieresis" unicode="&#xe4;" horiz-adv-x="359" 
d="M288 0h-28c-6 0 -10 4 -10 10v46h-1c-13 -41 -50 -64 -92 -64c-59 0 -110 36 -110 138s52 142 135 142h62c4 0 6 2 6 6v52c0 77 -25 108 -76 108c-38 0 -63 -13 -84 -35c-4 -5 -10 -5 -14 -1l-14 21c-3 5 -2 10 2 15c23 27 61 47 114 47c81 0 120 -41 120 -151v-324
c0 -6 -4 -10 -10 -10zM167 36c47 0 83 44 83 110v76c0 4 -2 6 -6 6h-57c-66 0 -91 -30 -91 -97c0 -66 28 -95 71 -95zM266 606h-34c-6 0 -10 4 -10 10v54c0 6 4 10 10 10h34c6 0 10 -4 10 -10v-54c0 -6 -4 -10 -10 -10zM128 606h-34c-6 0 -10 4 -10 10v54c0 6 4 10 10 10h34
c6 0 10 -4 10 -10v-54c0 -6 -4 -10 -10 -10z" />
    <glyph glyph-name="amacron" unicode="&#x101;" horiz-adv-x="359" 
d="M288 0h-28c-6 0 -10 4 -10 10v46h-1c-13 -41 -50 -64 -92 -64c-59 0 -110 36 -110 138s52 142 135 142h62c4 0 6 2 6 6v52c0 77 -25 108 -76 108c-38 0 -63 -13 -84 -35c-4 -5 -10 -5 -14 -1l-14 21c-3 5 -2 10 2 15c23 27 61 47 114 47c81 0 120 -41 120 -151v-324
c0 -6 -4 -10 -10 -10zM167 36c47 0 83 44 83 110v76c0 4 -2 6 -6 6h-57c-66 0 -91 -30 -91 -97c0 -66 28 -95 71 -95zM271 621h-182c-6 0 -10 4 -10 10v23c0 6 4 10 10 10h182c6 0 10 -4 10 -10v-23c0 -6 -4 -10 -10 -10z" />
    <glyph glyph-name="abreve" unicode="&#x103;" horiz-adv-x="359" 
d="M288 0h-28c-6 0 -10 4 -10 10v46h-1c-13 -41 -50 -64 -92 -64c-59 0 -110 36 -110 138s52 142 135 142h62c4 0 6 2 6 6v52c0 77 -25 108 -76 108c-38 0 -63 -13 -84 -35c-4 -5 -10 -5 -14 -1l-14 21c-3 5 -2 10 2 15c23 27 61 47 114 47c81 0 120 -41 120 -151v-324
c0 -6 -4 -10 -10 -10zM167 36c47 0 83 44 83 110v76c0 4 -2 6 -6 6h-57c-66 0 -91 -30 -91 -97c0 -66 28 -95 71 -95zM180 572c-60 0 -94 41 -102 102c0 6 4 10 10 10h17c7 0 10 -4 11 -10c8 -40 30 -62 64 -62s55 22 64 62c1 6 4 10 11 10h17c6 0 10 -4 9 -10
c-7 -61 -41 -102 -101 -102z" />
    <glyph glyph-name="aring" unicode="&#xe5;" horiz-adv-x="359" 
d="M288 0h-28c-6 0 -10 4 -10 10v46h-1c-13 -41 -50 -64 -92 -64c-59 0 -110 36 -110 138s52 142 135 142h62c4 0 6 2 6 6v52c0 77 -25 108 -76 108c-38 0 -63 -13 -84 -35c-4 -5 -10 -5 -14 -1l-14 21c-3 5 -2 10 2 15c23 27 61 47 114 47c81 0 120 -41 120 -151v-324
c0 -6 -4 -10 -10 -10zM167 36c47 0 83 44 83 110v76c0 4 -2 6 -6 6h-57c-66 0 -91 -30 -91 -97c0 -66 28 -95 71 -95zM180 555c-47 0 -81 34 -81 81s34 81 81 81s81 -34 81 -81s-34 -81 -81 -81zM180 585c29 0 49 22 49 51s-20 51 -49 51s-49 -22 -49 -51s20 -51 49 -51z
" />
    <glyph glyph-name="aringacute" unicode="&#x1fb;" horiz-adv-x="359" 
d="M186 777h-20c-6 0 -8 5 -4 10l82 91c6 7 11 10 21 10h30c6 0 8 -5 4 -10l-94 -91c-8 -8 -12 -10 -19 -10zM288 0h-28c-6 0 -10 4 -10 10v46h-1c-13 -41 -50 -64 -92 -64c-59 0 -110 36 -110 138s52 142 135 142h62c4 0 6 2 6 6v52c0 77 -25 108 -76 108
c-38 0 -63 -13 -84 -35c-4 -5 -10 -5 -14 -1l-14 21c-3 5 -2 10 2 15c23 27 61 47 114 47c81 0 120 -41 120 -151v-324c0 -6 -4 -10 -10 -10zM167 36c47 0 83 44 83 110v76c0 4 -2 6 -6 6h-57c-66 0 -91 -30 -91 -97c0 -66 28 -95 71 -95zM180 555c-47 0 -81 34 -81 81
s34 81 81 81s81 -34 81 -81s-34 -81 -81 -81zM180 585c29 0 49 22 49 51s-20 51 -49 51s-49 -22 -49 -51s20 -51 49 -51z" />
    <glyph glyph-name="aogonek" unicode="&#x105;" horiz-adv-x="359" 
d="M174 438c-38 0 -63 -13 -84 -35c-4 -5 -10 -5 -14 -1l-14 21c-3 5 -2 10 2 15c23 27 61 47 114 47c81 0 120 -41 120 -151v-324c0 -5 -1 -7 -5 -10c-50 -54 -66 -80 -66 -103c0 -17 10 -28 24 -28c9 0 15 3 23 7c5 3 9 3 12 -2l8 -18c3 -5 1 -10 -4 -13
c-11 -8 -26 -14 -45 -14c-35 0 -61 23 -61 62c0 32 20 65 66 113v52h-1c-13 -41 -50 -64 -92 -64c-59 0 -110 36 -110 138s52 142 135 142h62c4 0 6 2 6 6v52c0 77 -25 108 -76 108zM167 36c47 0 83 44 83 110v76c0 4 -2 6 -6 6h-57c-66 0 -91 -30 -91 -97
c0 -66 28 -95 71 -95z" />
    <glyph glyph-name="ae" unicode="&#xe6;" horiz-adv-x="550" 
d="M373 -8c-50 0 -90 23 -107 69h-1c-24 -47 -59 -69 -107 -69c-59 0 -111 37 -111 138c0 102 52 142 135 142h62c4 0 6 2 6 6v52c0 77 -25 108 -76 108c-38 0 -63 -13 -84 -35c-4 -5 -10 -5 -14 -1l-14 21c-3 5 -2 10 2 15c23 27 61 47 114 47c47 0 80 -16 98 -53h1
c19 35 55 53 98 53c58 0 98 -28 115 -81c7 -21 11 -45 11 -166c0 -6 -4 -10 -10 -10h-187c-4 0 -6 -2 -6 -6c0 -98 4 -117 9 -134c11 -33 35 -49 67 -49c41 0 64 19 77 66c2 7 6 9 12 7l27 -6c5 -1 8 -5 6 -12c-14 -67 -57 -102 -123 -102zM446 272c4 0 6 2 6 6
c0 78 -4 97 -9 111c-11 33 -35 50 -68 50s-57 -17 -68 -50c-5 -14 -9 -33 -9 -111c0 -4 2 -6 6 -6h142zM167 36c47 0 83 44 83 110v76c0 4 -2 6 -6 6h-57c-66 0 -91 -30 -91 -97c0 -65 28 -95 71 -95z" />
    <glyph glyph-name="aeacute" unicode="&#x1fd;" horiz-adv-x="550" 
d="M282 559h-21c-6 0 -8 4 -5 10l71 121c4 7 8 10 16 10h32c6 0 9 -5 5 -10l-81 -121c-6 -8 -9 -10 -17 -10zM373 -8c-50 0 -90 23 -107 69h-1c-24 -47 -59 -69 -107 -69c-59 0 -111 37 -111 138c0 102 52 142 135 142h62c4 0 6 2 6 6v52c0 77 -25 108 -76 108
c-38 0 -63 -13 -84 -35c-4 -5 -10 -5 -14 -1l-14 21c-3 5 -2 10 2 15c23 27 61 47 114 47c47 0 80 -16 98 -53h1c19 35 55 53 98 53c58 0 98 -28 115 -81c7 -21 11 -45 11 -166c0 -6 -4 -10 -10 -10h-187c-4 0 -6 -2 -6 -6c0 -98 4 -117 9 -134c11 -33 35 -49 67 -49
c41 0 64 19 77 66c2 7 6 9 12 7l27 -6c5 -1 8 -5 6 -12c-14 -67 -57 -102 -123 -102zM446 272c4 0 6 2 6 6c0 78 -4 97 -9 111c-11 33 -35 50 -68 50s-57 -17 -68 -50c-5 -14 -9 -33 -9 -111c0 -4 2 -6 6 -6h142zM167 36c47 0 83 44 83 110v76c0 4 -2 6 -6 6h-57
c-66 0 -91 -30 -91 -97c0 -65 28 -95 71 -95z" />
    <glyph glyph-name="cacute" unicode="&#x107;" horiz-adv-x="336" 
d="M184 559h-21c-6 0 -8 4 -5 10l71 121c4 7 8 10 16 10h32c6 0 9 -5 5 -10l-81 -121c-6 -8 -9 -10 -17 -10zM53 238c0 124 2 138 11 166c17 53 56 81 114 81c68 0 112 -41 121 -113c1 -5 -1 -9 -6 -11l-29 -6c-6 -2 -11 1 -12 7c-8 54 -33 76 -74 76c-30 0 -55 -14 -67 -49
c-6 -22 -9 -34 -9 -151s3 -129 9 -151c12 -35 37 -49 67 -49c41 0 66 22 74 76c1 6 6 9 12 7l29 -6c5 -2 7 -6 6 -11c-9 -72 -53 -113 -121 -113c-58 0 -97 28 -114 81c-9 28 -11 42 -11 166z" />
    <glyph glyph-name="ccircumflex" unicode="&#x109;" horiz-adv-x="336" 
d="M275 559h-23c-7 0 -10 3 -15 10l-57 86h-2l-57 -86c-5 -7 -8 -10 -16 -10h-22c-6 0 -9 4 -5 10l76 122c4 6 9 9 15 9h20c6 0 11 -3 15 -9l76 -122c4 -6 1 -10 -5 -10zM53 238c0 124 2 138 11 166c17 53 56 81 114 81c68 0 112 -41 121 -113c1 -5 -1 -9 -6 -11l-29 -6
c-6 -2 -11 1 -12 7c-8 54 -33 76 -74 76c-30 0 -55 -14 -67 -49c-6 -22 -9 -34 -9 -151s3 -129 9 -151c12 -35 37 -49 67 -49c41 0 66 22 74 76c1 6 6 9 12 7l29 -6c5 -2 7 -6 6 -11c-9 -72 -53 -113 -121 -113c-58 0 -97 28 -114 81c-9 28 -11 42 -11 166z" />
    <glyph glyph-name="ccaron" unicode="&#x10d;" horiz-adv-x="336" 
d="M189 557h-20c-6 0 -11 3 -15 9l-76 123c-4 5 -1 10 5 10h22c8 0 11 -3 16 -10l57 -86h2l57 86c5 7 8 10 15 10h23c6 0 9 -5 5 -10l-76 -123c-4 -6 -9 -9 -15 -9zM53 238c0 124 2 138 11 166c17 53 56 81 114 81c68 0 112 -41 121 -113c1 -5 -1 -9 -6 -11l-29 -6
c-6 -2 -11 1 -12 7c-8 54 -33 76 -74 76c-30 0 -55 -14 -67 -49c-6 -22 -9 -34 -9 -151s3 -129 9 -151c12 -35 37 -49 67 -49c41 0 66 22 74 76c1 6 6 9 12 7l29 -6c5 -2 7 -6 6 -11c-9 -72 -53 -113 -121 -113c-58 0 -97 28 -114 81c-9 28 -11 42 -11 166z" />
    <glyph glyph-name="cdotaccent" unicode="&#x10b;" horiz-adv-x="336" 
d="M53 238c0 124 2 138 11 166c17 53 56 81 114 81c68 0 112 -41 121 -113c1 -5 -1 -9 -6 -11l-29 -6c-6 -2 -11 1 -12 7c-8 54 -33 76 -74 76c-30 0 -55 -14 -67 -49c-6 -22 -9 -34 -9 -151s3 -129 9 -151c12 -35 37 -49 67 -49c41 0 66 22 74 76c1 6 6 9 12 7l29 -6
c5 -2 7 -6 6 -11c-9 -72 -53 -113 -121 -113c-58 0 -97 28 -114 81c-9 28 -11 42 -11 166zM189 606h-40c-6 0 -10 4 -10 10v54c0 6 4 10 10 10h40c6 0 10 -4 10 -10v-54c0 -6 -4 -10 -10 -10z" />
    <glyph glyph-name="ccedilla" unicode="&#xe7;" horiz-adv-x="336" 
d="M106 -138l49 131c-46 6 -77 33 -91 79c-9 28 -11 42 -11 166s2 138 11 166c17 53 56 81 114 81c68 0 112 -41 121 -113c1 -5 -1 -9 -6 -11l-29 -6c-6 -2 -11 1 -12 7c-8 54 -33 76 -74 76c-30 0 -55 -14 -67 -49c-6 -22 -9 -34 -9 -151s3 -129 9 -151
c12 -35 37 -49 67 -49c41 0 66 22 74 76c1 6 6 9 12 7l29 -6c5 -2 7 -6 6 -11c-8 -65 -45 -104 -102 -112l-42 -130c-2 -7 -8 -10 -16 -10h-26c-6 0 -9 4 -7 10z" />
    <glyph glyph-name="dcaron" unicode="&#x10f;" horiz-adv-x="376" 
d="M345 539c-5 0 -8 3 -8 9v122c0 6 4 10 10 10h32c6 0 10 -4 10 -10v-42c0 -10 -1 -14 -5 -23l-28 -57c-3 -6 -6 -9 -11 -9zM168 -8c-50 0 -86 23 -103 76c-9 27 -11 47 -11 170c0 124 2 143 11 171c17 53 53 76 103 76c53 0 79 -27 92 -58h1v243c0 6 4 10 10 10h29
c6 0 10 -4 10 -10v-660c0 -6 -4 -10 -10 -10h-29c-6 0 -10 4 -10 10v39h-1c-13 -30 -39 -57 -92 -57zM182 39c34 0 59 18 69 50c7 21 10 36 10 149s-3 128 -10 150c-10 31 -35 50 -69 50c-35 0 -59 -16 -70 -50c-7 -22 -9 -37 -9 -150s2 -128 9 -149c11 -34 35 -50 70 -50z
" />
    <glyph glyph-name="dcroat" unicode="&#x111;" horiz-adv-x="376" 
d="M300 0h-29c-6 0 -10 4 -10 10v39h-1c-13 -30 -39 -57 -92 -57c-50 0 -86 23 -103 76c-9 27 -11 47 -11 170c0 124 2 143 11 171c17 53 53 76 103 76c53 0 79 -27 92 -58h1v131c0 4 -2 6 -6 6h-88c-6 0 -10 4 -10 10v20c0 6 4 10 10 10h88c4 0 6 2 6 6v60c0 6 4 10 10 10
h29c6 0 10 -4 10 -10v-60c0 -4 2 -6 6 -6h26c6 0 10 -4 10 -10v-20c0 -6 -4 -10 -10 -10h-26c-4 0 -6 -2 -6 -6v-548c0 -6 -4 -10 -10 -10zM182 39c34 0 59 18 69 50c7 21 10 36 10 149s-3 128 -10 150c-10 31 -35 50 -69 50c-35 0 -59 -16 -70 -50c-7 -22 -9 -37 -9 -150
s2 -128 9 -149c11 -34 35 -50 70 -50z" />
    <glyph glyph-name="eth" unicode="&#xf0;" 
d="M277 588l-57 -19l35 -66c47 -89 54 -122 54 -268c0 -116 -2 -134 -10 -161c-17 -54 -60 -82 -118 -82s-101 28 -118 82c-9 27 -10 45 -10 159c0 116 2 136 10 163c17 51 57 79 111 79c20 0 39 -5 49 -12h1l-48 92l-67 -21c-6 -2 -10 0 -12 6l-6 19c-2 6 0 11 6 13l60 19
l-41 79c-3 6 0 10 6 10h32c7 0 10 -2 14 -10l33 -65l64 21c6 2 10 0 12 -6l6 -20c2 -6 0 -10 -6 -12zM181 39c35 0 59 16 71 50c6 21 8 36 8 144c0 103 -4 125 -11 146c-11 34 -35 50 -68 50c-35 0 -60 -17 -71 -50c-7 -22 -8 -37 -8 -146c0 -108 1 -123 8 -144
c11 -34 36 -50 71 -50z" />
    <glyph glyph-name="egrave" unicode="&#xe8;" horiz-adv-x="355" 
d="M305 238c0 -6 -4 -10 -10 -10h-187c-4 0 -6 -2 -6 -6c0 -98 4 -117 9 -134c11 -33 35 -49 67 -49c41 0 64 19 77 66c2 7 6 9 12 7l27 -6c5 -1 8 -5 6 -12c-14 -67 -57 -102 -123 -102c-56 0 -96 28 -113 81c-7 20 -11 44 -11 165s4 145 11 166c17 53 57 81 115 81
s98 -28 115 -81c7 -21 11 -45 11 -166zM250 272c4 0 6 2 6 6c0 78 -4 97 -9 111c-11 33 -35 50 -68 50s-57 -17 -68 -50c-5 -14 -9 -33 -9 -111c0 -4 2 -6 6 -6h142zM187 559h-20c-8 0 -11 2 -17 10l-82 121c-3 5 -1 10 5 10h33c8 0 12 -3 16 -10l71 -121c3 -6 0 -10 -6 -10
z" />
    <glyph glyph-name="eacute" unicode="&#xe9;" horiz-adv-x="355" 
d="M179 559h-21c-6 0 -8 4 -5 10l71 121c4 7 8 10 16 10h32c6 0 9 -5 5 -10l-81 -121c-6 -8 -9 -10 -17 -10zM305 238c0 -6 -4 -10 -10 -10h-187c-4 0 -6 -2 -6 -6c0 -98 4 -117 9 -134c11 -33 35 -49 67 -49c41 0 64 19 77 66c2 7 6 9 12 7l27 -6c5 -1 8 -5 6 -12
c-14 -67 -57 -102 -123 -102c-56 0 -96 28 -113 81c-7 20 -11 44 -11 165s4 145 11 166c17 53 57 81 115 81s98 -28 115 -81c7 -21 11 -45 11 -166zM250 272c4 0 6 2 6 6c0 78 -4 97 -9 111c-11 33 -35 50 -68 50s-57 -17 -68 -50c-5 -14 -9 -33 -9 -111c0 -4 2 -6 6 -6h142
z" />
    <glyph glyph-name="ecircumflex" unicode="&#xea;" horiz-adv-x="355" 
d="M274 559h-23c-7 0 -10 3 -15 10l-57 86h-2l-57 -86c-5 -7 -8 -10 -16 -10h-22c-6 0 -9 4 -5 10l76 122c4 6 9 9 15 9h20c6 0 11 -3 15 -9l76 -122c4 -6 1 -10 -5 -10zM305 238c0 -6 -4 -10 -10 -10h-187c-4 0 -6 -2 -6 -6c0 -98 4 -117 9 -134c11 -33 35 -49 67 -49
c41 0 64 19 77 66c2 7 6 9 12 7l27 -6c5 -1 8 -5 6 -12c-14 -67 -57 -102 -123 -102c-56 0 -96 28 -113 81c-7 20 -11 44 -11 165s4 145 11 166c17 53 57 81 115 81s98 -28 115 -81c7 -21 11 -45 11 -166zM250 272c4 0 6 2 6 6c0 78 -4 97 -9 111c-11 33 -35 50 -68 50
s-57 -17 -68 -50c-5 -14 -9 -33 -9 -111c0 -4 2 -6 6 -6h142z" />
    <glyph glyph-name="ecaron" unicode="&#x11b;" horiz-adv-x="355" 
d="M188 557h-20c-6 0 -11 3 -15 9l-76 123c-4 5 -1 10 5 10h22c8 0 11 -3 16 -10l57 -86h2l57 86c5 7 8 10 15 10h23c6 0 9 -5 5 -10l-76 -123c-4 -6 -9 -9 -15 -9zM305 238c0 -6 -4 -10 -10 -10h-187c-4 0 -6 -2 -6 -6c0 -98 4 -117 9 -134c11 -33 35 -49 67 -49
c41 0 64 19 77 66c2 7 6 9 12 7l27 -6c5 -1 8 -5 6 -12c-14 -67 -57 -102 -123 -102c-56 0 -96 28 -113 81c-7 20 -11 44 -11 165s4 145 11 166c17 53 57 81 115 81s98 -28 115 -81c7 -21 11 -45 11 -166zM250 272c4 0 6 2 6 6c0 78 -4 97 -9 111c-11 33 -35 50 -68 50
s-57 -17 -68 -50c-5 -14 -9 -33 -9 -111c0 -4 2 -6 6 -6h142z" />
    <glyph glyph-name="edieresis" unicode="&#xeb;" horiz-adv-x="355" 
d="M264 606h-34c-6 0 -10 4 -10 10v54c0 6 4 10 10 10h34c6 0 10 -4 10 -10v-54c0 -6 -4 -10 -10 -10zM126 606h-34c-6 0 -10 4 -10 10v54c0 6 4 10 10 10h34c6 0 10 -4 10 -10v-54c0 -6 -4 -10 -10 -10zM305 238c0 -6 -4 -10 -10 -10h-187c-4 0 -6 -2 -6 -6
c0 -98 4 -117 9 -134c11 -33 35 -49 67 -49c41 0 64 19 77 66c2 7 6 9 12 7l27 -6c5 -1 8 -5 6 -12c-14 -67 -57 -102 -123 -102c-56 0 -96 28 -113 81c-7 20 -11 44 -11 165s4 145 11 166c17 53 57 81 115 81s98 -28 115 -81c7 -21 11 -45 11 -166zM250 272c4 0 6 2 6 6
c0 78 -4 97 -9 111c-11 33 -35 50 -68 50s-57 -17 -68 -50c-5 -14 -9 -33 -9 -111c0 -4 2 -6 6 -6h142z" />
    <glyph glyph-name="emacron" unicode="&#x113;" horiz-adv-x="355" 
d="M305 238c0 -6 -4 -10 -10 -10h-187c-4 0 -6 -2 -6 -6c0 -98 4 -117 9 -134c11 -33 35 -49 67 -49c41 0 64 19 77 66c2 7 6 9 12 7l27 -6c5 -1 8 -5 6 -12c-14 -67 -57 -102 -123 -102c-56 0 -96 28 -113 81c-7 20 -11 44 -11 165s4 145 11 166c17 53 57 81 115 81
s98 -28 115 -81c7 -21 11 -45 11 -166zM250 272c4 0 6 2 6 6c0 78 -4 97 -9 111c-11 33 -35 50 -68 50s-57 -17 -68 -50c-5 -14 -9 -33 -9 -111c0 -4 2 -6 6 -6h142zM269 621h-182c-6 0 -10 4 -10 10v23c0 6 4 10 10 10h182c6 0 10 -4 10 -10v-23c0 -6 -4 -10 -10 -10z" />
    <glyph glyph-name="ebreve" unicode="&#x115;" horiz-adv-x="355" 
d="M305 238c0 -6 -4 -10 -10 -10h-187c-4 0 -6 -2 -6 -6c0 -98 4 -117 9 -134c11 -33 35 -49 67 -49c41 0 64 19 77 66c2 7 6 9 12 7l27 -6c5 -1 8 -5 6 -12c-14 -67 -57 -102 -123 -102c-56 0 -96 28 -113 81c-7 20 -11 44 -11 165s4 145 11 166c17 53 57 81 115 81
s98 -28 115 -81c7 -21 11 -45 11 -166zM250 272c4 0 6 2 6 6c0 78 -4 97 -9 111c-11 33 -35 50 -68 50s-57 -17 -68 -50c-5 -14 -9 -33 -9 -111c0 -4 2 -6 6 -6h142zM178 572c-60 0 -94 41 -102 102c0 6 4 10 10 10h17c7 0 10 -4 11 -10c8 -40 30 -62 64 -62s55 22 64 62
c1 6 4 10 11 10h17c6 0 10 -4 9 -10c-7 -61 -41 -102 -101 -102z" />
    <glyph glyph-name="edotaccent" unicode="&#x117;" horiz-adv-x="355" 
d="M305 238c0 -6 -4 -10 -10 -10h-187c-4 0 -6 -2 -6 -6c0 -98 4 -117 9 -134c11 -33 35 -49 67 -49c41 0 64 19 77 66c2 7 6 9 12 7l27 -6c5 -1 8 -5 6 -12c-14 -67 -57 -102 -123 -102c-56 0 -96 28 -113 81c-7 20 -11 44 -11 165s4 145 11 166c17 53 57 81 115 81
s98 -28 115 -81c7 -21 11 -45 11 -166zM250 272c4 0 6 2 6 6c0 78 -4 97 -9 111c-11 33 -35 50 -68 50s-57 -17 -68 -50c-5 -14 -9 -33 -9 -111c0 -4 2 -6 6 -6h142zM198 606h-40c-6 0 -10 4 -10 10v54c0 6 4 10 10 10h40c6 0 10 -4 10 -10v-54c0 -6 -4 -10 -10 -10z" />
    <glyph glyph-name="eogonek" unicode="&#x119;" horiz-adv-x="355" 
d="M177 -8c-56 0 -96 28 -113 81c-7 20 -11 44 -11 165s4 145 11 166c17 53 57 81 115 81s98 -28 115 -81c7 -21 11 -45 11 -166c0 -6 -4 -10 -10 -10h-187c-4 0 -6 -2 -6 -6c0 -98 4 -117 9 -134c11 -33 35 -49 67 -49c41 0 64 19 77 66c2 7 6 8 12 7l27 -6
c5 -1 8 -5 6 -12c-6 -27 -17 -50 -31 -65c-59 -86 -66 -110 -66 -132c0 -17 10 -28 25 -28c9 0 15 3 22 7c5 3 10 3 13 -2l8 -18c2 -5 1 -10 -5 -13c-11 -8 -26 -14 -44 -14c-37 0 -62 23 -62 62c0 28 9 54 46 104c-9 -3 -19 -3 -29 -3zM250 272c4 0 6 2 6 6
c0 78 -4 97 -9 111c-11 33 -35 50 -68 50s-57 -17 -68 -50c-5 -14 -9 -33 -9 -111c0 -4 2 -6 6 -6h142z" />
    <glyph glyph-name="gcircumflex" unicode="&#x11d;" horiz-adv-x="372" 
d="M281 559h-23c-7 0 -10 3 -15 10l-57 86h-2l-57 -86c-5 -7 -8 -10 -16 -10h-22c-6 0 -9 4 -5 10l76 122c4 6 9 9 15 9h20c6 0 11 -3 15 -9l76 -122c4 -6 1 -10 -5 -10zM179 -188c-56 0 -103 30 -117 81c-1 5 0 10 5 12l28 10c6 3 11 0 13 -6c11 -33 39 -50 71 -50
c48 0 78 28 78 90v105h-1c-13 -31 -37 -58 -90 -58c-54 0 -86 27 -102 77c-7 24 -11 51 -11 167c0 117 4 144 11 168c16 49 48 77 102 77c53 0 77 -27 90 -58h1v40c0 6 4 10 10 10h29c6 0 10 -4 10 -10v-513c0 -95 -49 -142 -127 -142zM179 43c34 0 57 18 68 50
c6 18 10 38 10 147s-4 130 -10 148c-11 32 -34 50 -68 50c-36 0 -58 -17 -68 -50c-6 -18 -9 -39 -9 -148s3 -129 9 -147c10 -33 32 -50 68 -50z" />
    <glyph glyph-name="gbreve" unicode="&#x11f;" horiz-adv-x="372" 
d="M179 -188c-56 0 -103 30 -117 81c-1 5 0 10 5 12l28 10c6 3 11 0 13 -6c11 -33 39 -50 71 -50c48 0 78 28 78 90v105h-1c-13 -31 -37 -58 -90 -58c-54 0 -86 27 -102 77c-7 24 -11 51 -11 167c0 117 4 144 11 168c16 49 48 77 102 77c53 0 77 -27 90 -58h1v40
c0 6 4 10 10 10h29c6 0 10 -4 10 -10v-513c0 -95 -49 -142 -127 -142zM179 43c34 0 57 18 68 50c6 18 10 38 10 147s-4 130 -10 148c-11 32 -34 50 -68 50c-36 0 -58 -17 -68 -50c-6 -18 -9 -39 -9 -148s3 -129 9 -147c10 -33 32 -50 68 -50zM185 572c-60 0 -94 41 -102 102
c0 6 4 10 10 10h17c7 0 10 -4 11 -10c8 -40 30 -62 64 -62s55 22 64 62c1 6 4 10 11 10h17c6 0 10 -4 9 -10c-7 -61 -41 -102 -101 -102z" />
    <glyph glyph-name="gdotaccent" unicode="&#x121;" horiz-adv-x="372" 
d="M179 -188c-56 0 -103 30 -117 81c-1 5 0 10 5 12l28 10c6 3 11 0 13 -6c11 -33 39 -50 71 -50c48 0 78 28 78 90v105h-1c-13 -31 -37 -58 -90 -58c-54 0 -86 27 -102 77c-7 24 -11 51 -11 167c0 117 4 144 11 168c16 49 48 77 102 77c53 0 77 -27 90 -58h1v40
c0 6 4 10 10 10h29c6 0 10 -4 10 -10v-513c0 -95 -49 -142 -127 -142zM179 43c34 0 57 18 68 50c6 18 10 38 10 147s-4 130 -10 148c-11 32 -34 50 -68 50c-36 0 -58 -17 -68 -50c-6 -18 -9 -39 -9 -148s3 -129 9 -147c10 -33 32 -50 68 -50zM206 606h-40c-6 0 -10 4 -10 10
v54c0 6 4 10 10 10h40c6 0 10 -4 10 -10v-54c0 -6 -4 -10 -10 -10z" />
    <glyph glyph-name="gcommaaccent" unicode="&#x123;" horiz-adv-x="372" 
d="M202 572h-34c-6 0 -10 4 -10 10v41c0 10 2 15 5 23l30 58c2 6 5 8 10 8c6 0 9 -3 9 -9v-121c0 -6 -4 -10 -10 -10zM179 -188c-56 0 -103 30 -117 81c-1 5 0 10 5 12l28 10c6 3 11 0 13 -6c11 -33 39 -50 71 -50c48 0 78 28 78 90v105h-1c-13 -31 -37 -58 -90 -58
c-54 0 -86 27 -102 77c-7 24 -11 51 -11 167c0 117 4 144 11 168c16 49 48 77 102 77c53 0 77 -27 90 -58h1v40c0 6 4 10 10 10h29c6 0 10 -4 10 -10v-513c0 -95 -49 -142 -127 -142zM179 43c34 0 57 18 68 50c6 18 10 38 10 147s-4 130 -10 148c-11 32 -34 50 -68 50
c-36 0 -58 -17 -68 -50c-6 -18 -9 -39 -9 -148s3 -129 9 -147c10 -33 32 -50 68 -50z" />
    <glyph glyph-name="hcircumflex" unicode="&#x125;" horiz-adv-x="380" 
d="M308 0h-29c-6 0 -10 4 -10 10v322c0 69 -23 106 -77 106c-47 0 -77 -34 -77 -106v-322c0 -6 -4 -10 -10 -10h-29c-6 0 -10 4 -10 10v660c0 6 4 10 10 10h29c6 0 10 -4 10 -10v-242h1c13 31 41 57 91 57c75 0 111 -48 111 -145v-330c0 -6 -4 -10 -10 -10zM284 754h-23
c-7 0 -10 3 -15 10l-57 86h-2l-57 -86c-5 -7 -8 -10 -16 -10h-22c-6 0 -9 4 -5 10l76 122c4 6 9 9 15 9h20c6 0 11 -3 15 -9l76 -122c4 -6 1 -10 -5 -10z" />
    <glyph glyph-name="hbar" unicode="&#x127;" horiz-adv-x="380" 
d="M308 0h-29c-6 0 -10 4 -10 10v322c0 69 -23 106 -77 106c-47 0 -77 -34 -77 -106v-322c0 -6 -4 -10 -10 -10h-29c-6 0 -10 4 -10 10v548c0 4 -2 6 -6 6h-27c-6 0 -10 4 -10 10v20c0 6 4 10 10 10h27c4 0 6 2 6 6v60c0 6 4 10 10 10h29c6 0 10 -4 10 -10v-60
c0 -4 2 -6 6 -6h88c6 0 10 -4 10 -10v-20c0 -6 -4 -10 -10 -10h-88c-4 0 -6 -2 -6 -6v-130h1c13 31 41 57 91 57c75 0 111 -48 111 -145v-330c0 -6 -4 -10 -10 -10z" />
    <glyph glyph-name="dotlessi" unicode="&#x131;" horiz-adv-x="181" 
d="M105 0h-29c-6 0 -10 4 -10 10v457c0 6 4 10 10 10h29c6 0 10 -4 10 -10v-457c0 -6 -4 -10 -10 -10z" />
    <glyph glyph-name="igrave" unicode="&#xec;" horiz-adv-x="181" 
d="M105 0h-29c-6 0 -10 4 -10 10v457c0 6 4 10 10 10h29c6 0 10 -4 10 -10v-457c0 -6 -4 -10 -10 -10zM104 559h-20c-8 0 -11 2 -17 10l-82 121c-3 5 -1 10 5 10h33c8 0 12 -3 16 -10l71 -121c3 -6 0 -10 -6 -10z" />
    <glyph glyph-name="iacute" unicode="&#xed;" horiz-adv-x="181" 
d="M102 559h-21c-6 0 -8 4 -5 10l71 121c4 7 8 10 16 10h32c6 0 9 -5 5 -10l-81 -121c-6 -8 -9 -10 -17 -10zM105 0h-29c-6 0 -10 4 -10 10v457c0 6 4 10 10 10h29c6 0 10 -4 10 -10v-457c0 -6 -4 -10 -10 -10z" />
    <glyph glyph-name="ibreve" unicode="&#x12d;" horiz-adv-x="181" 
d="M105 0h-29c-6 0 -10 4 -10 10v457c0 6 4 10 10 10h29c6 0 10 -4 10 -10v-457c0 -6 -4 -10 -10 -10zM91 572c-60 0 -94 41 -102 102c0 6 4 10 10 10h17c7 0 10 -4 11 -10c8 -40 30 -62 64 -62s55 22 64 62c1 6 4 10 11 10h17c6 0 10 -4 9 -10c-7 -61 -41 -102 -101 -102z
" />
    <glyph glyph-name="icircumflex" unicode="&#xee;" horiz-adv-x="181" 
d="M187 559h-23c-7 0 -10 3 -15 10l-57 86h-2l-57 -86c-5 -7 -8 -10 -16 -10h-22c-6 0 -9 4 -5 10l76 122c4 6 9 9 15 9h20c6 0 11 -3 15 -9l76 -122c4 -6 1 -10 -5 -10zM105 0h-29c-6 0 -10 4 -10 10v457c0 6 4 10 10 10h29c6 0 10 -4 10 -10v-457c0 -6 -4 -10 -10 -10z
" />
    <glyph glyph-name="itilde" unicode="&#x129;" horiz-adv-x="181" 
d="M105 0h-29c-6 0 -10 4 -10 10v457c0 6 4 10 10 10h29c6 0 10 -4 10 -10v-457c0 -6 -4 -10 -10 -10zM130 597c-19 0 -33 10 -45 20s-21 17 -33 17c-16 0 -26 -10 -39 -29c-5 -5 -12 -4 -12 3v30c0 6 2 10 8 16c11 14 25 23 44 23s33 -9 46 -20c12 -9 20 -16 32 -16
c16 0 27 10 40 28c4 6 11 5 11 -2v-30c0 -6 -1 -10 -7 -16c-12 -14 -26 -24 -45 -24z" />
    <glyph glyph-name="idieresis" unicode="&#xef;" horiz-adv-x="181" 
d="M177 606h-34c-6 0 -10 4 -10 10v54c0 6 4 10 10 10h34c6 0 10 -4 10 -10v-54c0 -6 -4 -10 -10 -10zM39 606h-34c-6 0 -10 4 -10 10v54c0 6 4 10 10 10h34c6 0 10 -4 10 -10v-54c0 -6 -4 -10 -10 -10zM105 0h-29c-6 0 -10 4 -10 10v457c0 6 4 10 10 10h29
c6 0 10 -4 10 -10v-457c0 -6 -4 -10 -10 -10z" />
    <glyph glyph-name="imacron" unicode="&#x12b;" horiz-adv-x="181" 
d="M105 0h-29c-6 0 -10 4 -10 10v457c0 6 4 10 10 10h29c6 0 10 -4 10 -10v-457c0 -6 -4 -10 -10 -10zM182 621h-182c-6 0 -10 4 -10 10v23c0 6 4 10 10 10h182c6 0 10 -4 10 -10v-23c0 -6 -4 -10 -10 -10z" />
    <glyph glyph-name="iogonek" unicode="&#x12f;" horiz-adv-x="181" 
d="M110 606h-39c-6 0 -10 4 -10 10v54c0 6 4 10 10 10h39c6 0 10 -4 10 -10v-54c0 -6 -4 -10 -10 -10zM75 -171c-35 0 -61 23 -61 62c0 31 13 61 55 111c-2 1 -3 5 -3 8v457c0 6 4 10 10 10h29c6 0 10 -4 10 -10v-457c0 -4 -1 -6 -4 -10c-46 -57 -54 -81 -54 -103
c0 -17 10 -28 24 -28c9 0 16 3 23 7c5 3 9 3 12 -2l8 -18c3 -5 1 -10 -4 -13c-11 -8 -26 -14 -45 -14z" />
    <glyph glyph-name="dotlessj" unicode="&#x237;" horiz-adv-x="181" 
d="M29 -180h-7c-6 0 -10 4 -10 10v27c0 6 4 10 10 10h7c26 1 37 13 37 44v556c0 6 4 10 10 10h29c6 0 10 -4 10 -10v-555c0 -63 -28 -92 -86 -92z" />
    <glyph glyph-name="jcircumflex" unicode="&#x135;" horiz-adv-x="181" 
d="M29 -180h-7c-6 0 -10 4 -10 10v27c0 6 4 10 10 10h7c26 1 37 13 37 44v556c0 6 4 10 10 10h29c6 0 10 -4 10 -10v-555c0 -63 -28 -92 -86 -92zM187 559h-23c-7 0 -10 3 -15 10l-57 86h-2l-57 -86c-5 -7 -8 -10 -16 -10h-22c-6 0 -9 4 -5 10l76 122c4 6 9 9 15 9h20
c6 0 11 -3 15 -9l76 -122c4 -6 1 -10 -5 -10z" />
    <glyph glyph-name="kcommaaccent" unicode="&#x137;" horiz-adv-x="351" 
d="M169 -192c-6 0 -9 3 -9 9v121c0 6 4 10 10 10h34c6 0 10 -4 10 -10v-41c0 -10 -2 -15 -5 -23l-30 -58c-2 -6 -5 -8 -10 -8zM317 0h-31c-7 0 -11 3 -14 10l-100 232l-57 -102v-130c0 -6 -4 -10 -10 -10h-29c-6 0 -10 4 -10 10v660c0 6 4 10 10 10h29c6 0 10 -4 10 -10
v-450l137 247c4 7 7 10 14 10h33c6 0 9 -4 6 -10l-104 -178l124 -279c2 -6 -2 -10 -8 -10z" />
    <glyph glyph-name="kgreenlandic" unicode="&#x138;" horiz-adv-x="351" 
d="M317 0h-31c-7 0 -11 3 -14 10l-100 232l-57 -102v-130c0 -6 -4 -10 -10 -10h-29c-6 0 -10 4 -10 10v457c0 6 4 10 10 10h29c6 0 10 -4 10 -10v-247l137 247c4 7 7 10 14 10h33c6 0 9 -4 6 -10l-104 -178l124 -279c2 -6 -2 -10 -8 -10z" />
    <glyph glyph-name="lacute" unicode="&#x13a;" horiz-adv-x="207" 
d="M104 765h-21c-6 0 -8 5 -4 10l75 103c5 7 8 10 17 10h33c6 0 8 -5 4 -10l-87 -103c-7 -8 -10 -10 -17 -10zM165 -3h-7c-67 5 -92 35 -92 114v559c0 6 4 10 10 10h29c6 0 10 -4 10 -10v-565c0 -38 12 -54 44 -60l5 -1c7 -1 10 -4 10 -10v-28c0 -6 -3 -10 -9 -9z" />
    <glyph glyph-name="lcaron" unicode="&#x13e;" horiz-adv-x="207" 
d="M158 539c-5 0 -8 3 -8 9v122c0 6 4 10 10 10h32c6 0 10 -4 10 -10v-42c0 -10 -1 -14 -5 -23l-28 -57c-3 -6 -6 -9 -11 -9zM165 -3h-7c-67 5 -92 35 -92 114v559c0 6 4 10 10 10h29c6 0 10 -4 10 -10v-565c0 -38 12 -54 44 -60l5 -1c7 -1 10 -4 10 -10v-28
c0 -6 -3 -10 -9 -9z" />
    <glyph glyph-name="lcommaaccent" unicode="&#x13c;" horiz-adv-x="207" 
d="M91 -192c-6 0 -9 3 -9 9v121c0 6 4 10 10 10h34c6 0 10 -4 10 -10v-41c0 -10 -2 -15 -5 -23l-30 -58c-2 -6 -5 -8 -10 -8zM165 -3h-7c-67 5 -92 35 -92 114v559c0 6 4 10 10 10h29c6 0 10 -4 10 -10v-565c0 -38 12 -54 44 -60l5 -1c7 -1 10 -4 10 -10v-28
c0 -6 -3 -10 -9 -9z" />
    <glyph glyph-name="lslash" unicode="&#x142;" horiz-adv-x="207" 
d="M164 394l-49 -34v-255c0 -38 12 -54 44 -60l5 -1c7 -1 10 -4 10 -10v-28c0 -6 -3 -10 -9 -9h-7c-67 5 -92 35 -92 114v214l-32 -22c-5 -3 -10 0 -10 5v30c0 7 3 11 10 16l32 22v294c0 6 4 10 10 10h29c6 0 10 -4 10 -10v-259l49 34c5 3 10 0 10 -5v-30
c0 -7 -3 -11 -10 -16z" />
    <glyph glyph-name="ldot" unicode="&#x140;" horiz-adv-x="222" 
d="M165 -3h-7c-67 5 -92 35 -92 114v559c0 6 4 10 10 10h29c6 0 10 -4 10 -10v-565c0 -38 12 -54 44 -60l5 -1c7 -1 10 -4 10 -10v-28c0 -6 -3 -10 -9 -9zM223 273h-45c-6 0 -10 4 -10 10v65c0 6 4 10 10 10h45c6 0 10 -4 10 -10v-65c0 -6 -4 -10 -10 -10z" />
    <glyph glyph-name="nacute" unicode="&#x144;" horiz-adv-x="380" 
d="M174 559h-21c-6 0 -8 4 -5 10l71 121c4 7 8 10 16 10h32c6 0 9 -5 5 -10l-81 -121c-6 -8 -9 -10 -17 -10zM308 0h-29c-6 0 -10 4 -10 10v322c0 69 -23 106 -77 106c-47 0 -77 -34 -77 -106v-322c0 -6 -4 -10 -10 -10h-29c-6 0 -10 4 -10 10v457c0 6 4 10 10 10h29
c6 0 10 -4 10 -10v-39h1c13 31 41 57 91 57c75 0 111 -48 111 -145v-330c0 -6 -4 -10 -10 -10z" />
    <glyph glyph-name="ncaron" unicode="&#x148;" horiz-adv-x="380" 
d="M200 557h-20c-6 0 -11 3 -15 9l-76 123c-4 5 -1 10 5 10h22c8 0 11 -3 16 -10l57 -86h2l57 86c5 7 8 10 15 10h23c6 0 9 -5 5 -10l-76 -123c-4 -6 -9 -9 -15 -9zM308 0h-29c-6 0 -10 4 -10 10v322c0 69 -23 106 -77 106c-47 0 -77 -34 -77 -106v-322c0 -6 -4 -10 -10 -10
h-29c-6 0 -10 4 -10 10v457c0 6 4 10 10 10h29c6 0 10 -4 10 -10v-39h1c13 31 41 57 91 57c75 0 111 -48 111 -145v-330c0 -6 -4 -10 -10 -10z" />
    <glyph glyph-name="ntilde" unicode="&#xf1;" horiz-adv-x="380" 
d="M308 0h-29c-6 0 -10 4 -10 10v322c0 69 -23 106 -77 106c-47 0 -77 -34 -77 -106v-322c0 -6 -4 -10 -10 -10h-29c-6 0 -10 4 -10 10v457c0 6 4 10 10 10h29c6 0 10 -4 10 -10v-39h1c13 31 41 57 91 57c75 0 111 -48 111 -145v-330c0 -6 -4 -10 -10 -10zM228 597
c-19 0 -33 10 -45 20s-21 17 -33 17c-16 0 -26 -10 -39 -29c-5 -5 -12 -4 -12 3v30c0 6 2 10 8 16c11 14 25 23 44 23s33 -9 46 -20c12 -9 20 -16 32 -16c16 0 27 10 40 28c4 6 11 5 11 -2v-30c0 -6 -1 -10 -7 -16c-12 -14 -26 -24 -45 -24z" />
    <glyph glyph-name="ncommaaccent" unicode="&#x146;" horiz-adv-x="380" 
d="M172 -192c-6 0 -9 3 -9 9v121c0 6 4 10 10 10h34c6 0 10 -4 10 -10v-41c0 -10 -2 -15 -5 -23l-30 -58c-2 -6 -5 -8 -10 -8zM308 0h-29c-6 0 -10 4 -10 10v322c0 69 -23 106 -77 106c-47 0 -77 -34 -77 -106v-322c0 -6 -4 -10 -10 -10h-29c-6 0 -10 4 -10 10v457
c0 6 4 10 10 10h29c6 0 10 -4 10 -10v-39h1c13 31 41 57 91 57c75 0 111 -48 111 -145v-330c0 -6 -4 -10 -10 -10z" />
    <glyph glyph-name="ograve" unicode="&#xf2;" 
d="M309 239c0 -119 -2 -138 -10 -165c-17 -54 -60 -82 -118 -82s-101 28 -118 82c-8 27 -10 46 -10 165c0 118 2 137 10 164c17 54 60 82 118 82s101 -28 118 -82c8 -27 10 -46 10 -164zM260 239c0 112 -1 128 -8 149c-11 34 -36 50 -71 50s-60 -16 -71 -50
c-7 -21 -8 -37 -8 -149c0 -113 1 -129 8 -150c11 -34 36 -50 71 -50s60 16 71 50c7 21 8 37 8 150zM196 559h-20c-8 0 -11 2 -17 10l-82 121c-3 5 -1 10 5 10h33c8 0 12 -3 16 -10l71 -121c3 -6 0 -10 -6 -10z" />
    <glyph glyph-name="oacute" unicode="&#xf3;" 
d="M184 559h-21c-6 0 -8 4 -5 10l71 121c4 7 8 10 16 10h32c6 0 9 -5 5 -10l-81 -121c-6 -8 -9 -10 -17 -10zM309 239c0 -119 -2 -138 -10 -165c-17 -54 -60 -82 -118 -82s-101 28 -118 82c-8 27 -10 46 -10 165c0 118 2 137 10 164c17 54 60 82 118 82s101 -28 118 -82
c8 -27 10 -46 10 -164zM260 239c0 112 -1 128 -8 149c-11 34 -36 50 -71 50s-60 -16 -71 -50c-7 -21 -8 -37 -8 -149c0 -113 1 -129 8 -150c11 -34 36 -50 71 -50s60 16 71 50c7 21 8 37 8 150z" />
    <glyph glyph-name="ocircumflex" unicode="&#xf4;" 
d="M277 559h-23c-7 0 -10 3 -15 10l-57 86h-2l-57 -86c-5 -7 -8 -10 -16 -10h-22c-6 0 -9 4 -5 10l76 122c4 6 9 9 15 9h20c6 0 11 -3 15 -9l76 -122c4 -6 1 -10 -5 -10zM309 239c0 -119 -2 -138 -10 -165c-17 -54 -60 -82 -118 -82s-101 28 -118 82c-8 27 -10 46 -10 165
c0 118 2 137 10 164c17 54 60 82 118 82s101 -28 118 -82c8 -27 10 -46 10 -164zM260 239c0 112 -1 128 -8 149c-11 34 -36 50 -71 50s-60 -16 -71 -50c-7 -21 -8 -37 -8 -149c0 -113 1 -129 8 -150c11 -34 36 -50 71 -50s60 16 71 50c7 21 8 37 8 150z" />
    <glyph glyph-name="otilde" unicode="&#xf5;" 
d="M309 239c0 -119 -2 -138 -10 -165c-17 -54 -60 -82 -118 -82s-101 28 -118 82c-8 27 -10 46 -10 165c0 118 2 137 10 164c17 54 60 82 118 82s101 -28 118 -82c8 -27 10 -46 10 -164zM260 239c0 112 -1 128 -8 149c-11 34 -36 50 -71 50s-60 -16 -71 -50
c-7 -21 -8 -37 -8 -149c0 -113 1 -129 8 -150c11 -34 36 -50 71 -50s60 16 71 50c7 21 8 37 8 150zM219 597c-19 0 -33 10 -45 20s-21 17 -33 17c-16 0 -26 -10 -39 -29c-5 -5 -12 -4 -12 3v30c0 6 2 10 8 16c11 14 25 23 44 23s33 -9 46 -20c12 -9 20 -16 32 -16
c16 0 27 10 40 28c4 6 11 5 11 -2v-30c0 -6 -1 -10 -7 -16c-12 -14 -26 -24 -45 -24z" />
    <glyph glyph-name="odieresis" unicode="&#xf6;" 
d="M267 606h-34c-6 0 -10 4 -10 10v54c0 6 4 10 10 10h34c6 0 10 -4 10 -10v-54c0 -6 -4 -10 -10 -10zM129 606h-34c-6 0 -10 4 -10 10v54c0 6 4 10 10 10h34c6 0 10 -4 10 -10v-54c0 -6 -4 -10 -10 -10zM309 239c0 -119 -2 -138 -10 -165c-17 -54 -60 -82 -118 -82
s-101 28 -118 82c-8 27 -10 46 -10 165c0 118 2 137 10 164c17 54 60 82 118 82s101 -28 118 -82c8 -27 10 -46 10 -164zM260 239c0 112 -1 128 -8 149c-11 34 -36 50 -71 50s-60 -16 -71 -50c-7 -21 -8 -37 -8 -149c0 -113 1 -129 8 -150c11 -34 36 -50 71 -50s60 16 71 50
c7 21 8 37 8 150z" />
    <glyph glyph-name="omacron" unicode="&#x14d;" 
d="M272 621h-182c-6 0 -10 4 -10 10v23c0 6 4 10 10 10h182c6 0 10 -4 10 -10v-23c0 -6 -4 -10 -10 -10zM309 239c0 -119 -2 -138 -10 -165c-17 -54 -60 -82 -118 -82s-101 28 -118 82c-8 27 -10 46 -10 165c0 118 2 137 10 164c17 54 60 82 118 82s101 -28 118 -82
c8 -27 10 -46 10 -164zM260 239c0 112 -1 128 -8 149c-11 34 -36 50 -71 50s-60 -16 -71 -50c-7 -21 -8 -37 -8 -149c0 -113 1 -129 8 -150c11 -34 36 -50 71 -50s60 16 71 50c7 21 8 37 8 150z" />
    <glyph glyph-name="obreve" unicode="&#x14f;" 
d="M309 239c0 -119 -2 -138 -10 -165c-17 -54 -60 -82 -118 -82s-101 28 -118 82c-8 27 -10 46 -10 165c0 118 2 137 10 164c17 54 60 82 118 82s101 -28 118 -82c8 -27 10 -46 10 -164zM260 239c0 112 -1 128 -8 149c-11 34 -36 50 -71 50s-60 -16 -71 -50
c-7 -21 -8 -37 -8 -149c0 -113 1 -129 8 -150c11 -34 36 -50 71 -50s60 16 71 50c7 21 8 37 8 150zM181 572c-60 0 -94 41 -102 102c0 6 4 10 10 10h17c7 0 10 -4 11 -10c8 -40 30 -62 64 -62s55 22 64 62c1 6 4 10 11 10h17c6 0 10 -4 9 -10c-7 -61 -41 -102 -101 -102z
" />
    <glyph glyph-name="ohungarumlaut" unicode="&#x151;" 
d="M238 559h-17c-6 0 -8 4 -5 10l61 121c4 7 8 10 16 10h28c6 0 8 -5 5 -10l-70 -121c-5 -9 -10 -10 -18 -10zM125 559h-17c-6 0 -8 4 -5 10l61 121c4 7 8 10 16 10h28c6 0 8 -5 5 -10l-70 -121c-5 -9 -10 -10 -18 -10zM309 239c0 -119 -2 -138 -10 -165
c-17 -54 -60 -82 -118 -82s-101 28 -118 82c-8 27 -10 46 -10 165c0 118 2 137 10 164c17 54 60 82 118 82s101 -28 118 -82c8 -27 10 -46 10 -164zM260 239c0 112 -1 128 -8 149c-11 34 -36 50 -71 50s-60 -16 -71 -50c-7 -21 -8 -37 -8 -149c0 -113 1 -129 8 -150
c11 -34 36 -50 71 -50s60 16 71 50c7 21 8 37 8 150z" />
    <glyph glyph-name="oslash" unicode="&#xf8;" 
d="M74 -29h-12c-6 0 -10 4 -7 10l25 58c-7 10 -13 21 -17 35c-8 27 -10 46 -10 165c0 118 2 137 10 164c17 54 60 82 118 82c31 0 58 -8 79 -24l16 35c3 7 6 10 12 10h12c6 0 10 -4 8 -10l-26 -59c7 -10 13 -21 17 -34c8 -27 10 -46 10 -164c0 -119 -2 -138 -10 -165
c-17 -54 -60 -82 -118 -82c-31 0 -58 8 -79 24l-15 -35c-3 -7 -7 -10 -13 -10zM102 239c0 -94 0 -121 4 -139l132 313c-13 17 -33 25 -57 25c-35 0 -60 -16 -71 -50c-7 -21 -8 -37 -8 -149zM260 239c0 92 -1 119 -5 138l-132 -314c14 -17 33 -24 58 -24c35 0 60 16 71 50
c7 21 8 37 8 150z" />
    <glyph glyph-name="oslashacute" unicode="&#x1ff;" 
d="M74 -29h-12c-6 0 -10 4 -7 10l25 58c-7 10 -13 21 -17 35c-8 27 -10 46 -10 165c0 118 2 137 10 164c17 54 60 82 118 82c31 0 58 -8 79 -24l16 35c3 7 6 10 12 10h12c6 0 10 -4 8 -10l-26 -59c7 -10 13 -21 17 -34c8 -27 10 -46 10 -164c0 -119 -2 -138 -10 -165
c-17 -54 -60 -82 -118 -82c-31 0 -58 8 -79 24l-15 -35c-3 -7 -7 -10 -13 -10zM102 239c0 -94 0 -121 4 -139l132 313c-13 17 -33 25 -57 25c-35 0 -60 -16 -71 -50c-7 -21 -8 -37 -8 -149zM260 239c0 92 -1 119 -5 138l-132 -314c14 -17 33 -24 58 -24c35 0 60 16 71 50
c7 21 8 37 8 150zM184 559h-21c-6 0 -8 4 -5 10l71 121c4 7 8 10 16 10h32c6 0 9 -5 5 -10l-81 -121c-6 -8 -9 -10 -17 -10z" />
    <glyph glyph-name="oe" unicode="&#x153;" horiz-adv-x="561" 
d="M384 -8c-47 0 -84 21 -99 59h-1c-19 -40 -57 -59 -103 -59c-58 0 -101 28 -118 82c-8 27 -10 46 -10 165c0 118 2 137 10 164c17 54 60 82 118 82c49 0 84 -21 103 -59h1c18 38 52 59 101 59c58 0 98 -28 115 -81c7 -21 11 -45 11 -166c0 -6 -4 -10 -10 -10h-187
c-4 0 -6 -2 -6 -6c0 -98 4 -117 9 -134c11 -33 35 -49 67 -49c41 0 64 19 77 66c2 7 6 8 12 7l27 -6c5 -1 8 -5 6 -12c-14 -67 -57 -102 -123 -102zM457 272c4 0 6 2 6 6c0 78 -4 97 -9 111c-11 33 -35 50 -68 50s-57 -17 -68 -50c-5 -14 -9 -33 -9 -111c0 -4 2 -6 6 -6h142
zM260 239c0 112 -1 128 -8 149c-11 34 -36 50 -71 50s-60 -16 -71 -50c-7 -21 -8 -37 -8 -149c0 -113 1 -129 8 -150c11 -34 36 -50 71 -50s60 16 71 50c7 21 8 37 8 150z" />
    <glyph glyph-name="racute" unicode="&#x155;" horiz-adv-x="248" 
d="M141 559h-21c-6 0 -8 4 -5 10l71 121c4 7 8 10 16 10h32c6 0 9 -5 5 -10l-81 -121c-6 -8 -9 -10 -17 -10zM105 0h-29c-6 0 -10 4 -10 10v457c0 6 4 10 10 10h29c6 0 10 -4 10 -10v-43h1c12 34 42 61 85 61c7 0 15 -1 20 -3c6 -2 8 -6 6 -12l-8 -30c-2 -6 -6 -7 -12 -6
c-4 1 -9 1 -15 1c-41 0 -77 -37 -77 -115v-310c0 -6 -4 -10 -10 -10z" />
    <glyph glyph-name="rcaron" unicode="&#x159;" horiz-adv-x="248" 
d="M143 557h-20c-6 0 -11 3 -15 9l-76 123c-4 5 -1 10 5 10h22c8 0 11 -3 16 -10l57 -86h2l57 86c5 7 8 10 15 10h23c6 0 9 -5 5 -10l-76 -123c-4 -6 -9 -9 -15 -9zM105 0h-29c-6 0 -10 4 -10 10v457c0 6 4 10 10 10h29c6 0 10 -4 10 -10v-43h1c12 34 42 61 85 61
c7 0 15 -1 20 -3c6 -2 8 -6 6 -12l-8 -30c-2 -6 -6 -7 -12 -6c-4 1 -9 1 -15 1c-41 0 -77 -37 -77 -115v-310c0 -6 -4 -10 -10 -10z" />
    <glyph glyph-name="rcommaaccent" unicode="&#x157;" horiz-adv-x="248" 
d="M74 -192c-6 0 -9 3 -9 9v121c0 6 4 10 10 10h34c6 0 10 -4 10 -10v-41c0 -10 -2 -15 -5 -23l-30 -58c-2 -6 -5 -8 -10 -8zM105 0h-29c-6 0 -10 4 -10 10v457c0 6 4 10 10 10h29c6 0 10 -4 10 -10v-43h1c12 34 42 61 85 61c7 0 15 -1 20 -3c6 -2 8 -6 6 -12l-8 -30
c-2 -6 -6 -7 -12 -6c-4 1 -9 1 -15 1c-41 0 -77 -37 -77 -115v-310c0 -6 -4 -10 -10 -10z" />
    <glyph glyph-name="sacute" unicode="&#x15b;" horiz-adv-x="335" 
d="M163 559h-21c-6 0 -8 4 -5 10l71 121c4 7 8 10 16 10h32c6 0 9 -5 5 -10l-81 -121c-6 -8 -9 -10 -17 -10zM169 -8c-73 0 -117 41 -125 119c-1 6 1 11 7 12l27 5c6 1 11 -2 12 -8c6 -61 38 -84 79 -84c46 0 74 25 74 87c0 46 -13 72 -58 90l-42 16c-61 24 -91 62 -91 128
c0 76 42 128 117 128c72 0 109 -49 115 -104c1 -6 -2 -12 -7 -13l-24 -5c-6 -1 -11 2 -12 8c-8 41 -29 70 -73 70c-45 0 -68 -31 -68 -82c0 -38 12 -64 59 -82l41 -16c70 -27 91 -68 91 -136c0 -82 -43 -133 -122 -133z" />
    <glyph glyph-name="scircumflex" unicode="&#x15d;" horiz-adv-x="335" 
d="M265 559h-23c-7 0 -10 3 -15 10l-57 86h-2l-57 -86c-5 -7 -8 -10 -16 -10h-22c-6 0 -9 4 -5 10l76 122c4 6 9 9 15 9h20c6 0 11 -3 15 -9l76 -122c4 -6 1 -10 -5 -10zM169 -8c-73 0 -117 41 -125 119c-1 6 1 11 7 12l27 5c6 1 11 -2 12 -8c6 -61 38 -84 79 -84
c46 0 74 25 74 87c0 46 -13 72 -58 90l-42 16c-61 24 -91 62 -91 128c0 76 42 128 117 128c72 0 109 -49 115 -104c1 -6 -2 -12 -7 -13l-24 -5c-6 -1 -11 2 -12 8c-8 41 -29 70 -73 70c-45 0 -68 -31 -68 -82c0 -38 12 -64 59 -82l41 -16c70 -27 91 -68 91 -136
c0 -82 -43 -133 -122 -133z" />
    <glyph glyph-name="scaron" unicode="&#x161;" horiz-adv-x="335" 
d="M179 557h-20c-6 0 -11 3 -15 9l-76 123c-4 5 -1 10 5 10h22c8 0 11 -3 16 -10l57 -86h2l57 86c5 7 8 10 15 10h23c6 0 9 -5 5 -10l-76 -123c-4 -6 -9 -9 -15 -9zM169 -8c-73 0 -117 41 -125 119c-1 6 1 11 7 12l27 5c6 1 11 -2 12 -8c6 -61 38 -84 79 -84
c46 0 74 25 74 87c0 46 -13 72 -58 90l-42 16c-61 24 -91 62 -91 128c0 76 42 128 117 128c72 0 109 -49 115 -104c1 -6 -2 -12 -7 -13l-24 -5c-6 -1 -11 2 -12 8c-8 41 -29 70 -73 70c-45 0 -68 -31 -68 -82c0 -38 12 -64 59 -82l41 -16c70 -27 91 -68 91 -136
c0 -82 -43 -133 -122 -133z" />
    <glyph glyph-name="scedilla" unicode="&#x15f;" horiz-adv-x="335" 
d="M103 -138l49 131c-63 6 -101 46 -108 118c-1 6 1 11 7 12l27 5c6 1 11 -2 12 -8c6 -61 38 -84 79 -84c46 0 74 25 74 87c0 46 -13 72 -58 90l-42 16c-61 24 -91 62 -91 128c0 76 42 128 117 128c72 0 109 -49 115 -104c1 -6 -2 -12 -7 -13l-24 -5c-6 -1 -11 2 -12 8
c-8 41 -29 70 -73 70c-45 0 -68 -31 -68 -82c0 -38 12 -64 59 -82l41 -16c70 -27 91 -68 91 -136c0 -73 -34 -121 -96 -131l-43 -132c-2 -7 -8 -10 -16 -10h-26c-6 0 -9 4 -7 10z" />
    <glyph glyph-name="scommaaccent" unicode="&#x219;" horiz-adv-x="335" 
d="M150 -192c-6 0 -9 3 -9 9v121c0 6 4 10 10 10h34c6 0 10 -4 10 -10v-41c0 -10 -2 -15 -5 -23l-30 -58c-2 -6 -5 -8 -10 -8zM169 -8c-73 0 -117 41 -125 119c-1 6 1 11 7 12l27 5c6 1 11 -2 12 -8c6 -61 38 -84 79 -84c46 0 74 25 74 87c0 46 -13 72 -58 90l-42 16
c-61 24 -91 62 -91 128c0 76 42 128 117 128c72 0 109 -49 115 -104c1 -6 -2 -12 -7 -13l-24 -5c-6 -1 -11 2 -12 8c-8 41 -29 70 -73 70c-45 0 -68 -31 -68 -82c0 -38 12 -64 59 -82l41 -16c70 -27 91 -68 91 -136c0 -82 -43 -133 -122 -133z" />
    <glyph glyph-name="germandbls" unicode="&#xdf;" horiz-adv-x="392" 
d="M216 -3h-10c-6 0 -10 4 -10 10v27c0 6 4 10 10 10h7c34 0 55 12 66 44c5 15 7 36 7 130s-2 113 -7 129c-11 31 -33 44 -66 44h-7c-6 0 -10 4 -10 10v27c0 6 4 10 10 10h5c33 0 55 9 64 37c5 15 7 27 7 68c0 68 -31 98 -84 98c-52 0 -83 -30 -83 -98v-533
c0 -6 -4 -10 -10 -10h-29c-6 0 -10 4 -10 10v529c0 98 47 149 131 149s134 -48 134 -143c0 -78 -12 -106 -57 -126v-2c22 -9 41 -24 52 -58c7 -21 10 -43 10 -141c0 -102 -3 -128 -10 -149c-17 -52 -53 -72 -110 -72z" />
    <glyph glyph-name="tcaron" unicode="&#x165;" horiz-adv-x="229" 
d="M172 539c-5 0 -8 3 -8 9v122c0 6 4 10 10 10h32c6 0 10 -4 10 -10v-42c0 -10 -1 -14 -5 -23l-28 -57c-3 -6 -6 -9 -11 -9zM184 -3h-18c-61 0 -85 26 -85 91v341c0 4 -2 6 -6 6h-29c-6 0 -10 4 -10 10v22c0 6 4 10 10 10h29c4 0 6 2 6 6v137c0 6 4 10 10 10h29
c6 0 10 -4 10 -10v-137c0 -4 2 -6 6 -6h48c6 0 10 -4 10 -10v-22c0 -6 -4 -10 -10 -10h-48c-4 0 -6 -2 -6 -6v-341c0 -30 12 -44 41 -44h13c6 0 10 -4 10 -10v-27c0 -6 -4 -10 -10 -10z" />
    <glyph glyph-name="tcommaaccent" unicode="&#x163;" horiz-adv-x="229" 
d="M116 -192c-6 0 -9 3 -9 9v121c0 6 4 10 10 10h34c6 0 10 -4 10 -10v-41c0 -10 -2 -15 -5 -23l-30 -58c-2 -6 -5 -8 -10 -8zM184 -3h-18c-61 0 -85 26 -85 91v341c0 4 -2 6 -6 6h-29c-6 0 -10 4 -10 10v22c0 6 4 10 10 10h29c4 0 6 2 6 6v137c0 6 4 10 10 10h29
c6 0 10 -4 10 -10v-137c0 -4 2 -6 6 -6h48c6 0 10 -4 10 -10v-22c0 -6 -4 -10 -10 -10h-48c-4 0 -6 -2 -6 -6v-341c0 -30 12 -44 41 -44h13c6 0 10 -4 10 -10v-27c0 -6 -4 -10 -10 -10z" />
    <glyph glyph-name="uni021B" unicode="&#x21b;" horiz-adv-x="229" 
d="M116 -192c-6 0 -9 3 -9 9v121c0 6 4 10 10 10h34c6 0 10 -4 10 -10v-41c0 -10 -2 -15 -5 -23l-30 -58c-2 -6 -5 -8 -10 -8zM184 -3h-18c-61 0 -85 26 -85 91v341c0 4 -2 6 -6 6h-29c-6 0 -10 4 -10 10v22c0 6 4 10 10 10h29c4 0 6 2 6 6v137c0 6 4 10 10 10h29
c6 0 10 -4 10 -10v-137c0 -4 2 -6 6 -6h48c6 0 10 -4 10 -10v-22c0 -6 -4 -10 -10 -10h-48c-4 0 -6 -2 -6 -6v-341c0 -30 12 -44 41 -44h13c6 0 10 -4 10 -10v-27c0 -6 -4 -10 -10 -10z" />
    <glyph glyph-name="tbar" unicode="&#x167;" horiz-adv-x="229" 
d="M184 -3h-18c-61 0 -85 26 -85 91v218c0 4 -2 6 -6 6h-23c-6 0 -10 4 -10 10v20c0 6 4 10 10 10h23c4 0 6 2 6 6v71c0 4 -2 6 -6 6h-29c-6 0 -10 4 -10 10v22c0 6 4 10 10 10h29c4 0 6 2 6 6v137c0 6 4 10 10 10h29c6 0 10 -4 10 -10v-137c0 -4 2 -6 6 -6h48
c6 0 10 -4 10 -10v-22c0 -6 -4 -10 -10 -10h-48c-4 0 -6 -2 -6 -6v-71c0 -4 2 -6 6 -6h40c6 0 10 -4 10 -10v-20c0 -6 -4 -10 -10 -10h-40c-4 0 -6 -2 -6 -6v-218c0 -30 12 -44 41 -44h13c6 0 10 -4 10 -10v-27c0 -6 -4 -10 -10 -10z" />
    <glyph glyph-name="thorn" unicode="&#xfe;" horiz-adv-x="376" 
d="M105 -180h-29c-6 0 -10 4 -10 10v840c0 6 4 10 10 10h29c6 0 10 -4 10 -10v-243h1c13 31 39 58 92 58c50 0 86 -23 103 -76c9 -28 11 -47 11 -171c0 -123 -2 -143 -11 -170c-17 -53 -53 -76 -103 -76c-53 0 -79 27 -92 57h-1v-219c0 -6 -4 -10 -10 -10zM194 39
c35 0 59 16 70 50c7 21 9 36 9 149s-2 128 -9 150c-11 34 -35 50 -70 50c-34 0 -59 -19 -69 -50c-7 -22 -10 -37 -10 -150s3 -128 10 -149c10 -32 35 -50 69 -50z" />
    <glyph glyph-name="ugrave" unicode="&#xf9;" horiz-adv-x="376" 
d="M300 0h-29c-6 0 -10 4 -10 10v39h-1c-13 -31 -39 -57 -89 -57c-74 0 -110 47 -110 144v331c0 6 4 10 10 10h29c6 0 10 -4 10 -10v-322c0 -70 23 -106 76 -106c47 0 75 33 75 106v322c0 6 4 10 10 10h29c6 0 10 -4 10 -10v-457c0 -6 -4 -10 -10 -10zM207 559h-20
c-8 0 -11 2 -17 10l-82 121c-3 5 -1 10 5 10h33c8 0 12 -3 16 -10l71 -121c3 -6 0 -10 -6 -10z" />
    <glyph glyph-name="uacute" unicode="&#xfa;" horiz-adv-x="376" 
d="M182 559h-21c-6 0 -8 4 -5 10l71 121c4 7 8 10 16 10h32c6 0 9 -5 5 -10l-81 -121c-6 -8 -9 -10 -17 -10zM300 0h-29c-6 0 -10 4 -10 10v39h-1c-13 -31 -39 -57 -89 -57c-74 0 -110 47 -110 144v331c0 6 4 10 10 10h29c6 0 10 -4 10 -10v-322c0 -70 23 -106 76 -106
c47 0 75 33 75 106v322c0 6 4 10 10 10h29c6 0 10 -4 10 -10v-457c0 -6 -4 -10 -10 -10z" />
    <glyph glyph-name="ucircumflex" unicode="&#xfb;" horiz-adv-x="376" 
d="M283 559h-23c-7 0 -10 3 -15 10l-57 86h-2l-57 -86c-5 -7 -8 -10 -16 -10h-22c-6 0 -9 4 -5 10l76 122c4 6 9 9 15 9h20c6 0 11 -3 15 -9l76 -122c4 -6 1 -10 -5 -10zM300 0h-29c-6 0 -10 4 -10 10v39h-1c-13 -31 -39 -57 -89 -57c-74 0 -110 47 -110 144v331
c0 6 4 10 10 10h29c6 0 10 -4 10 -10v-322c0 -70 23 -106 76 -106c47 0 75 33 75 106v322c0 6 4 10 10 10h29c6 0 10 -4 10 -10v-457c0 -6 -4 -10 -10 -10z" />
    <glyph glyph-name="utilde" unicode="&#x169;" horiz-adv-x="376" 
d="M300 0h-29c-6 0 -10 4 -10 10v39h-1c-13 -31 -39 -57 -89 -57c-74 0 -110 47 -110 144v331c0 6 4 10 10 10h29c6 0 10 -4 10 -10v-322c0 -70 23 -106 76 -106c47 0 75 33 75 106v322c0 6 4 10 10 10h29c6 0 10 -4 10 -10v-457c0 -6 -4 -10 -10 -10zM225 597
c-19 0 -33 10 -45 20s-21 17 -33 17c-16 0 -26 -10 -39 -29c-5 -5 -12 -4 -12 3v30c0 6 2 10 8 16c11 14 25 23 44 23s33 -9 46 -20c12 -9 20 -16 32 -16c16 0 27 10 40 28c4 6 11 5 11 -2v-30c0 -6 -1 -10 -7 -16c-12 -14 -26 -24 -45 -24z" />
    <glyph glyph-name="udieresis" unicode="&#xfc;" horiz-adv-x="376" 
d="M273 606h-34c-6 0 -10 4 -10 10v54c0 6 4 10 10 10h34c6 0 10 -4 10 -10v-54c0 -6 -4 -10 -10 -10zM135 606h-34c-6 0 -10 4 -10 10v54c0 6 4 10 10 10h34c6 0 10 -4 10 -10v-54c0 -6 -4 -10 -10 -10zM300 0h-29c-6 0 -10 4 -10 10v39h-1c-13 -31 -39 -57 -89 -57
c-74 0 -110 47 -110 144v331c0 6 4 10 10 10h29c6 0 10 -4 10 -10v-322c0 -70 23 -106 76 -106c47 0 75 33 75 106v322c0 6 4 10 10 10h29c6 0 10 -4 10 -10v-457c0 -6 -4 -10 -10 -10z" />
    <glyph glyph-name="umacron" unicode="&#x16b;" horiz-adv-x="376" 
d="M300 0h-29c-6 0 -10 4 -10 10v39h-1c-13 -31 -39 -57 -89 -57c-74 0 -110 47 -110 144v331c0 6 4 10 10 10h29c6 0 10 -4 10 -10v-322c0 -70 23 -106 76 -106c47 0 75 33 75 106v322c0 6 4 10 10 10h29c6 0 10 -4 10 -10v-457c0 -6 -4 -10 -10 -10zM278 621h-182
c-6 0 -10 4 -10 10v23c0 6 4 10 10 10h182c6 0 10 -4 10 -10v-23c0 -6 -4 -10 -10 -10z" />
    <glyph glyph-name="ubreve" unicode="&#x16d;" horiz-adv-x="376" 
d="M300 0h-29c-6 0 -10 4 -10 10v39h-1c-13 -31 -39 -57 -89 -57c-74 0 -110 47 -110 144v331c0 6 4 10 10 10h29c6 0 10 -4 10 -10v-322c0 -70 23 -106 76 -106c47 0 75 33 75 106v322c0 6 4 10 10 10h29c6 0 10 -4 10 -10v-457c0 -6 -4 -10 -10 -10zM187 572
c-60 0 -94 41 -102 102c0 6 4 10 10 10h17c7 0 10 -4 11 -10c8 -40 30 -62 64 -62s55 22 64 62c1 6 4 10 11 10h17c6 0 10 -4 9 -10c-7 -61 -41 -102 -101 -102z" />
    <glyph glyph-name="uring" unicode="&#x16f;" horiz-adv-x="376" 
d="M187 555c-47 0 -81 34 -81 81s34 81 81 81s81 -34 81 -81s-34 -81 -81 -81zM187 585c29 0 49 22 49 51s-20 51 -49 51s-49 -22 -49 -51s20 -51 49 -51zM300 0h-29c-6 0 -10 4 -10 10v39h-1c-13 -31 -39 -57 -89 -57c-74 0 -110 47 -110 144v331c0 6 4 10 10 10h29
c6 0 10 -4 10 -10v-322c0 -70 23 -106 76 -106c47 0 75 33 75 106v322c0 6 4 10 10 10h29c6 0 10 -4 10 -10v-457c0 -6 -4 -10 -10 -10z" />
    <glyph glyph-name="uhungarumlaut" unicode="&#x171;" horiz-adv-x="376" 
d="M300 0h-29c-6 0 -10 4 -10 10v39h-1c-13 -31 -39 -57 -89 -57c-74 0 -110 47 -110 144v331c0 6 4 10 10 10h29c6 0 10 -4 10 -10v-322c0 -70 23 -106 76 -106c47 0 75 33 75 106v322c0 6 4 10 10 10h29c6 0 10 -4 10 -10v-457c0 -6 -4 -10 -10 -10zM246 559h-17
c-6 0 -8 4 -5 10l61 121c4 7 8 10 16 10h28c6 0 8 -5 5 -10l-70 -121c-5 -9 -10 -10 -18 -10zM133 559h-17c-6 0 -8 4 -5 10l61 121c4 7 8 10 16 10h28c6 0 8 -5 5 -10l-70 -121c-5 -9 -10 -10 -18 -10z" />
    <glyph glyph-name="uogonek" unicode="&#x173;" horiz-adv-x="376" 
d="M258 -171c-35 0 -61 23 -61 62c0 33 21 66 65 112c-1 2 -1 5 -1 7v39h-1c-13 -31 -39 -57 -89 -57c-74 0 -110 47 -110 144v331c0 6 4 10 10 10h29c6 0 10 -4 10 -10v-322c0 -70 23 -106 76 -106c47 0 75 33 75 106v322c0 6 4 10 10 10h29c6 0 10 -4 10 -10v-457
c0 -5 -2 -7 -5 -10c-51 -53 -66 -80 -66 -103c0 -17 11 -28 25 -28c9 0 15 3 22 7c5 3 10 3 13 -2l8 -18c3 -5 1 -10 -4 -13c-11 -8 -27 -14 -45 -14z" />
    <glyph glyph-name="wacute" unicode="&#x1e83;" horiz-adv-x="509" 
d="M267 559h-21c-6 0 -8 4 -5 10l71 121c4 7 8 10 16 10h32c6 0 9 -5 5 -10l-81 -121c-6 -8 -9 -10 -17 -10zM363 0h-26c-6 0 -9 4 -10 10l-72 354h-2l-71 -354c-1 -6 -4 -10 -10 -10h-26c-6 0 -9 4 -11 10l-98 457c-1 6 2 10 8 10h31c7 0 10 -4 11 -10l71 -361h2l73 361
c1 6 4 10 10 10h23c7 0 10 -4 11 -10l72 -361h2l72 361c1 6 4 10 10 10h31c6 0 9 -4 8 -10l-98 -457c-1 -6 -4 -10 -11 -10z" />
    <glyph glyph-name="wcircumflex" unicode="&#x175;" horiz-adv-x="509" 
d="M350 559h-23c-7 0 -10 3 -15 10l-57 86h-2l-57 -86c-5 -7 -8 -10 -16 -10h-22c-6 0 -9 4 -5 10l76 122c4 6 9 9 15 9h20c6 0 11 -3 15 -9l76 -122c4 -6 1 -10 -5 -10zM363 0h-26c-6 0 -9 4 -10 10l-72 354h-2l-71 -354c-1 -6 -4 -10 -10 -10h-26c-6 0 -9 4 -11 10
l-98 457c-1 6 2 10 8 10h31c7 0 10 -4 11 -10l71 -361h2l73 361c1 6 4 10 10 10h23c7 0 10 -4 11 -10l72 -361h2l72 361c1 6 4 10 10 10h31c6 0 9 -4 8 -10l-98 -457c-1 -6 -4 -10 -11 -10z" />
    <glyph glyph-name="wdieresis" unicode="&#x1e85;" horiz-adv-x="509" 
d="M340 606h-34c-6 0 -10 4 -10 10v54c0 6 4 10 10 10h34c6 0 10 -4 10 -10v-54c0 -6 -4 -10 -10 -10zM202 606h-34c-6 0 -10 4 -10 10v54c0 6 4 10 10 10h34c6 0 10 -4 10 -10v-54c0 -6 -4 -10 -10 -10zM363 0h-26c-6 0 -9 4 -10 10l-72 354h-2l-71 -354
c-1 -6 -4 -10 -10 -10h-26c-6 0 -9 4 -11 10l-98 457c-1 6 2 10 8 10h31c7 0 10 -4 11 -10l71 -361h2l73 361c1 6 4 10 10 10h23c7 0 10 -4 11 -10l72 -361h2l72 361c1 6 4 10 10 10h31c6 0 9 -4 8 -10l-98 -457c-1 -6 -4 -10 -11 -10z" />
    <glyph glyph-name="wgrave" unicode="&#x1e81;" horiz-adv-x="509" 
d="M363 0h-26c-6 0 -9 4 -10 10l-72 354h-2l-71 -354c-1 -6 -4 -10 -10 -10h-26c-6 0 -9 4 -11 10l-98 457c-1 6 2 10 8 10h31c7 0 10 -4 11 -10l71 -361h2l73 361c1 6 4 10 10 10h23c7 0 10 -4 11 -10l72 -361h2l72 361c1 6 4 10 10 10h31c6 0 9 -4 8 -10l-98 -457
c-1 -6 -4 -10 -11 -10zM268 559h-20c-8 0 -11 2 -17 10l-82 121c-3 5 -1 10 5 10h33c8 0 12 -3 16 -10l71 -121c3 -6 0 -10 -6 -10z" />
    <glyph glyph-name="yacute" unicode="&#xfd;" horiz-adv-x="339" 
d="M70 -180h-9c-6 0 -10 4 -10 10v27c0 6 4 10 10 10l11 1c27 0 41 12 52 55l22 89l-113 455c-1 6 2 10 8 10h33c6 0 9 -4 10 -10l86 -362h1l86 362c1 6 4 10 10 10h32c6 0 9 -4 8 -10l-136 -540c-20 -85 -46 -107 -101 -107zM170 559h-21c-6 0 -8 4 -5 10l71 121
c4 7 8 10 16 10h32c6 0 9 -5 5 -10l-81 -121c-6 -8 -9 -10 -17 -10z" />
    <glyph glyph-name="ycircumflex" unicode="&#x177;" horiz-adv-x="339" 
d="M70 -180h-9c-6 0 -10 4 -10 10v27c0 6 4 10 10 10l11 1c27 0 41 12 52 55l22 89l-113 455c-1 6 2 10 8 10h33c6 0 9 -4 10 -10l86 -362h1l86 362c1 6 4 10 10 10h32c6 0 9 -4 8 -10l-136 -540c-20 -85 -46 -107 -101 -107zM266 559h-23c-7 0 -10 3 -15 10l-57 86h-2
l-57 -86c-5 -7 -8 -10 -16 -10h-22c-6 0 -9 4 -5 10l76 122c4 6 9 9 15 9h20c6 0 11 -3 15 -9l76 -122c4 -6 1 -10 -5 -10z" />
    <glyph glyph-name="ydieresis" unicode="&#xff;" horiz-adv-x="339" 
d="M70 -180h-9c-6 0 -10 4 -10 10v27c0 6 4 10 10 10l11 1c27 0 41 12 52 55l22 89l-113 455c-1 6 2 10 8 10h33c6 0 9 -4 10 -10l86 -362h1l86 362c1 6 4 10 10 10h32c6 0 9 -4 8 -10l-136 -540c-20 -85 -46 -107 -101 -107zM256 606h-34c-6 0 -10 4 -10 10v54
c0 6 4 10 10 10h34c6 0 10 -4 10 -10v-54c0 -6 -4 -10 -10 -10zM118 606h-34c-6 0 -10 4 -10 10v54c0 6 4 10 10 10h34c6 0 10 -4 10 -10v-54c0 -6 -4 -10 -10 -10z" />
    <glyph glyph-name="ygrave" unicode="&#x1ef3;" horiz-adv-x="339" 
d="M70 -180h-9c-6 0 -10 4 -10 10v27c0 6 4 10 10 10l11 1c27 0 41 12 52 55l22 89l-113 455c-1 6 2 10 8 10h33c6 0 9 -4 10 -10l86 -362h1l86 362c1 6 4 10 10 10h32c6 0 9 -4 8 -10l-136 -540c-20 -85 -46 -107 -101 -107zM196 559h-20c-8 0 -11 2 -17 10l-82 121
c-3 5 -1 10 5 10h33c8 0 12 -3 16 -10l71 -121c3 -6 0 -10 -6 -10z" />
    <glyph glyph-name="zacute" unicode="&#x17a;" horiz-adv-x="321" 
d="M163 559h-21c-6 0 -8 4 -5 10l71 121c4 7 8 10 16 10h32c6 0 9 -5 5 -10l-81 -121c-6 -8 -9 -10 -17 -10zM276 0h-228c-6 0 -10 4 -10 10v25c0 4 1 7 3 11l186 384v2h-169c-6 0 -10 4 -10 10v25c0 6 4 10 10 10h218c6 0 10 -4 10 -10v-21c0 -5 -1 -8 -3 -12l-189 -386v-2
h182c6 0 10 -4 10 -10v-26c0 -6 -4 -10 -10 -10z" />
    <glyph glyph-name="zcaron" unicode="&#x17e;" horiz-adv-x="321" 
d="M172 557h-20c-6 0 -11 3 -15 9l-76 123c-4 5 -1 10 5 10h22c8 0 11 -3 16 -10l57 -86h2l57 86c5 7 8 10 15 10h23c6 0 9 -5 5 -10l-76 -123c-4 -6 -9 -9 -15 -9zM276 0h-228c-6 0 -10 4 -10 10v25c0 4 1 7 3 11l186 384v2h-169c-6 0 -10 4 -10 10v25c0 6 4 10 10 10h218
c6 0 10 -4 10 -10v-21c0 -5 -1 -8 -3 -12l-189 -386v-2h182c6 0 10 -4 10 -10v-26c0 -6 -4 -10 -10 -10z" />
    <glyph glyph-name="zdotaccent" unicode="&#x17c;" horiz-adv-x="321" 
d="M276 0h-228c-6 0 -10 4 -10 10v25c0 4 1 7 3 11l186 384v2h-169c-6 0 -10 4 -10 10v25c0 6 4 10 10 10h218c6 0 10 -4 10 -10v-21c0 -5 -1 -8 -3 -12l-189 -386v-2h182c6 0 10 -4 10 -10v-26c0 -6 -4 -10 -10 -10zM182 606h-40c-6 0 -10 4 -10 10v54c0 6 4 10 10 10h40
c6 0 10 -4 10 -10v-54c0 -6 -4 -10 -10 -10z" />
    <glyph glyph-name="grave.cap" 
d="M236 765h-20c-7 0 -11 2 -18 10l-87 103c-4 5 -1 10 5 10h33c8 0 11 -3 16 -10l76 -103c4 -5 1 -10 -5 -10z" />
    <glyph glyph-name="acute" unicode="&#xb4;" 
d="M145 559h-21c-6 0 -8 4 -5 10l71 121c4 7 8 10 16 10h32c6 0 9 -5 5 -10l-81 -121c-6 -8 -9 -10 -17 -10z" />
    <glyph glyph-name="acute.cap" 
d="M149 765h-21c-6 0 -8 5 -4 10l75 103c5 7 8 10 17 10h33c6 0 8 -5 4 -10l-87 -103c-7 -8 -10 -10 -17 -10z" />
    <glyph glyph-name="circumflex" unicode="&#x2c6;" 
d="M277 559h-23c-7 0 -10 3 -15 10l-57 86h-2l-57 -86c-5 -7 -8 -10 -16 -10h-22c-6 0 -9 4 -5 10l76 122c4 6 9 9 15 9h20c6 0 11 -3 15 -9l76 -122c4 -6 1 -10 -5 -10z" />
    <glyph glyph-name="circumflex.cap" 
d="M277 754h-23c-7 0 -10 3 -15 10l-57 86h-2l-57 -86c-5 -7 -8 -10 -16 -10h-22c-6 0 -9 4 -5 10l76 122c4 6 9 9 15 9h20c6 0 11 -3 15 -9l76 -122c4 -6 1 -10 -5 -10z" />
    <glyph glyph-name="caron" unicode="&#x2c7;" 
d="M191 557h-20c-6 0 -11 3 -15 9l-76 123c-4 5 -1 10 5 10h22c8 0 11 -3 16 -10l57 -86h2l57 86c5 7 8 10 15 10h23c6 0 9 -5 5 -10l-76 -123c-4 -6 -9 -9 -15 -9z" />
    <glyph glyph-name="caron.cap" 
d="M191 753h-20c-6 0 -11 2 -15 9l-76 122c-4 6 -1 10 5 10h22c8 0 11 -3 16 -10l57 -86h2l57 86c5 7 8 10 15 10h23c6 0 9 -4 5 -10l-76 -122c-4 -7 -9 -9 -15 -9z" />
    <glyph glyph-name="caron.alt" 
d="M163 539c-5 0 -8 3 -8 9v122c0 6 4 10 10 10h32c6 0 10 -4 10 -10v-42c0 -10 -1 -14 -5 -23l-28 -57c-3 -6 -6 -9 -11 -9z" />
    <glyph glyph-name="tilde" unicode="&#x2dc;" 
d="M219 597c-19 0 -33 10 -45 20s-21 17 -33 17c-16 0 -26 -10 -39 -29c-5 -5 -12 -4 -12 3v30c0 6 2 10 8 16c11 14 25 23 44 23s33 -9 46 -20c12 -9 20 -16 32 -16c16 0 27 10 40 28c4 6 11 5 11 -2v-30c0 -6 -1 -10 -7 -16c-12 -14 -26 -24 -45 -24z" />
    <glyph glyph-name="tilde.cap" 
d="M219 784c-19 0 -33 10 -45 21c-12 9 -21 16 -33 16c-16 0 -26 -10 -39 -29c-5 -5 -12 -4 -12 3v30c0 6 2 10 8 16c11 14 25 24 44 24s33 -10 46 -20c12 -10 20 -17 32 -17c16 0 27 10 40 29c4 5 11 4 11 -3v-30c0 -6 -1 -10 -7 -16c-12 -14 -26 -24 -45 -24z" />
    <glyph glyph-name="dieresis" unicode="&#xa8;" 
d="M267 606h-34c-6 0 -10 4 -10 10v54c0 6 4 10 10 10h34c6 0 10 -4 10 -10v-54c0 -6 -4 -10 -10 -10zM129 606h-34c-6 0 -10 4 -10 10v54c0 6 4 10 10 10h34c6 0 10 -4 10 -10v-54c0 -6 -4 -10 -10 -10z" />
    <glyph glyph-name="dieresis.cap" 
d="M267 787h-34c-6 0 -10 4 -10 10v54c0 6 4 10 10 10h34c6 0 10 -4 10 -10v-54c0 -6 -4 -10 -10 -10zM129 787h-34c-6 0 -10 4 -10 10v54c0 6 4 10 10 10h34c6 0 10 -4 10 -10v-54c0 -6 -4 -10 -10 -10z" />
    <glyph glyph-name="macron" unicode="&#xaf;" 
d="M272 621h-182c-6 0 -10 4 -10 10v23c0 6 4 10 10 10h182c6 0 10 -4 10 -10v-23c0 -6 -4 -10 -10 -10z" />
    <glyph glyph-name="macron.cap" 
d="M272 801h-182c-6 0 -10 4 -10 10v23c0 6 4 10 10 10h182c6 0 10 -4 10 -10v-23c0 -6 -4 -10 -10 -10z" />
    <glyph glyph-name="uni02C9" unicode="&#x2c9;" 
d="M272 801h-182c-6 0 -10 4 -10 10v23c0 6 4 10 10 10h182c6 0 10 -4 10 -10v-23c0 -6 -4 -10 -10 -10z" />
    <glyph glyph-name="breve" unicode="&#x2d8;" 
d="M181 572c-60 0 -94 41 -102 102c0 6 4 10 10 10h17c7 0 10 -4 11 -10c8 -40 30 -62 64 -62s55 22 64 62c1 6 4 10 11 10h17c6 0 10 -4 9 -10c-7 -61 -41 -102 -101 -102z" />
    <glyph glyph-name="breve.cap" 
d="M181 765c-60 0 -94 41 -102 102c0 6 4 10 10 10h17c7 0 10 -4 11 -10c8 -40 30 -62 64 -62s55 22 64 62c1 6 4 10 11 10h17c6 0 10 -4 9 -10c-7 -61 -41 -102 -101 -102z" />
    <glyph glyph-name="ring" unicode="&#x2da;" 
d="M181 555c-47 0 -81 34 -81 81s34 81 81 81s81 -34 81 -81s-34 -81 -81 -81zM181 585c29 0 49 22 49 51s-20 51 -49 51s-49 -22 -49 -51s20 -51 49 -51z" />
    <glyph glyph-name="ring.cap" 
d="M181 742c-47 0 -81 35 -81 82s34 81 81 81s81 -34 81 -81s-34 -82 -81 -82zM181 772c29 0 49 23 49 52s-20 51 -49 51s-49 -22 -49 -51s20 -52 49 -52z" />
    <glyph glyph-name="hungarumlaut" unicode="&#x2dd;" 
d="M235 559h-17c-6 0 -8 4 -5 10l61 121c4 7 8 10 16 10h28c6 0 8 -5 5 -10l-70 -121c-5 -9 -10 -10 -18 -10zM122 559h-17c-6 0 -8 4 -5 10l61 121c4 7 8 10 16 10h28c6 0 8 -5 5 -10l-70 -121c-5 -9 -10 -10 -18 -10z" />
    <glyph glyph-name="hungarumlaut.cap" 
d="M242 765h-18c-6 0 -8 4 -5 10l65 103c4 7 8 10 16 10h29c6 0 8 -5 4 -10l-74 -103c-6 -9 -9 -10 -17 -10zM129 765h-18c-6 0 -8 4 -5 10l65 103c4 7 8 10 16 10h29c6 0 8 -5 4 -10l-74 -103c-6 -9 -9 -10 -17 -10z" />
    <glyph glyph-name="dotaccent" unicode="&#x2d9;" 
d="M201 606h-40c-6 0 -10 4 -10 10v54c0 6 4 10 10 10h40c6 0 10 -4 10 -10v-54c0 -6 -4 -10 -10 -10z" />
    <glyph glyph-name="dotaccent.cap" 
d="M201 787h-40c-6 0 -10 4 -10 10v54c0 6 4 10 10 10h40c6 0 10 -4 10 -10v-54c0 -6 -4 -10 -10 -10z" />
    <glyph glyph-name="cedilla" unicode="&#xb8;" 
d="M135 -138l52 138c3 7 6 10 13 10h22c6 0 9 -4 7 -10l-45 -138c-2 -7 -8 -10 -16 -10h-26c-6 0 -9 4 -7 10z" />
    <glyph glyph-name="ogonek" unicode="&#x2db;" 
d="M188 -171c-35 0 -61 23 -61 62c0 33 19 63 61 109c6 6 11 10 17 10h29c6 0 7 -6 2 -10c-49 -51 -67 -80 -67 -103c0 -17 11 -28 25 -28c9 0 15 3 23 7c5 3 9 3 12 -2l8 -18c3 -5 1 -10 -4 -13c-11 -8 -26 -14 -45 -14z" />
    <glyph glyph-name="commaaccent" 
d="M163 -192c-6 0 -9 3 -9 9v121c0 6 4 10 10 10h34c6 0 10 -4 10 -10v-41c0 -10 -2 -15 -5 -23l-30 -58c-2 -6 -5 -8 -10 -8z" />
    <glyph glyph-name="commaaccent.alt" 
d="M198 572h-34c-6 0 -10 4 -10 10v41c0 10 2 15 5 23l30 58c2 6 5 8 10 8c6 0 9 -3 9 -9v-121c0 -6 -4 -10 -10 -10z" />
    <glyph glyph-name="ellipsis" unicode="&#x2026;" horiz-adv-x="513" 
d="M450 0h-45c-6 0 -10 4 -10 10v65c0 6 4 10 10 10h45c6 0 10 -4 10 -10v-65c0 -6 -4 -10 -10 -10zM279 0h-45c-6 0 -10 4 -10 10v65c0 6 4 10 10 10h45c6 0 10 -4 10 -10v-65c0 -6 -4 -10 -10 -10zM108 0h-45c-6 0 -10 4 -10 10v65c0 6 4 10 10 10h45c6 0 10 -4 10 -10
v-65c0 -6 -4 -10 -10 -10z" />
    <glyph glyph-name="uni00AD" unicode="&#xad;" horiz-adv-x="297" 
d="M247 243h-196c-6 0 -10 4 -10 10v27c0 6 4 10 10 10h196c6 0 10 -4 10 -10v-27c0 -6 -4 -10 -10 -10z" />
    <glyph glyph-name="exclamdown" unicode="&#xa1;" horiz-adv-x="211" 
d="M115 307c6 0 10 -4 10 -10l8 -490c0 -6 -4 -10 -10 -10h-34c-6 0 -10 4 -10 10l8 490c0 6 4 10 10 10h18zM138 467v-65c0 -6 -4 -10 -10 -10h-45c-6 0 -10 4 -10 10v65c0 6 4 10 10 10h45c6 0 10 -4 10 -10z" />
    <glyph glyph-name="questiondown" unicode="&#xbf;" horiz-adv-x="325" 
d="M181 307c6 0 10 -4 10 -10v-72c0 -26 -4 -45 -16 -69l-55 -104c-20 -37 -28 -62 -28 -109c0 -27 3 -44 7 -57c11 -33 32 -50 69 -50c35 0 59 15 70 50c4 13 7 27 7 78c0 7 4 11 11 10l28 -3c7 -1 10 -5 10 -12c0 -52 -3 -71 -9 -89c-17 -51 -59 -81 -117 -81
c-60 0 -100 28 -116 81c-6 16 -9 38 -9 73c0 51 6 77 31 125l54 103c10 19 14 33 14 56v70c0 6 4 10 10 10h29zM199 467v-65c0 -6 -4 -10 -10 -10h-45c-6 0 -10 4 -10 10v65c0 6 4 10 10 10h45c6 0 10 -4 10 -10z" />
    <glyph glyph-name="quoteleft" unicode="&#x2018;" horiz-adv-x="141" 
d="M89 529h-37c-6 0 -10 4 -10 10v52c0 10 2 15 6 23l32 59c2 5 5 8 10 8c6 0 9 -3 9 -9v-133c0 -6 -4 -10 -10 -10z" />
    <glyph glyph-name="quoteright" unicode="&#x2019;" horiz-adv-x="139" 
d="M51 522c-6 0 -9 4 -9 9v139c0 6 4 10 10 10h35c6 0 10 -4 10 -10v-61c0 -10 -1 -15 -5 -23l-31 -55c-2 -6 -5 -9 -10 -9z" />
    <glyph glyph-name="quotedblleft" unicode="&#x201c;" horiz-adv-x="243" 
d="M191 523h-35c-6 0 -10 4 -10 10v61c0 10 2 15 5 23l31 55c3 6 6 8 11 8s8 -3 8 -9v-138c0 -6 -4 -10 -10 -10zM87 523h-35c-6 0 -10 4 -10 10v61c0 10 2 15 6 23l30 55c3 6 6 8 11 8s8 -3 8 -9v-138c0 -6 -4 -10 -10 -10z" />
    <glyph glyph-name="quotedblright" unicode="&#x201d;" horiz-adv-x="243" 
d="M155 522c-6 0 -9 4 -9 9v139c0 6 4 10 10 10h35c6 0 10 -4 10 -10v-61c0 -10 -1 -15 -5 -23l-31 -55c-2 -6 -5 -9 -10 -9zM51 522c-6 0 -9 4 -9 9v139c0 6 4 10 10 10h35c6 0 10 -4 10 -10v-61c0 -10 -1 -15 -5 -23l-31 -55c-2 -6 -5 -9 -10 -9z" />
    <glyph glyph-name="quotesinglbase" unicode="&#x201a;" horiz-adv-x="139" 
d="M51 -84c-6 0 -9 3 -9 9v139c0 6 4 10 10 10h35c6 0 10 -4 10 -10v-60c0 -10 -1 -14 -5 -23l-31 -57c-2 -6 -5 -8 -10 -8z" />
    <glyph glyph-name="quotedblbase" unicode="&#x201e;" horiz-adv-x="243" 
d="M155 -87c-6 0 -9 3 -9 9v139c0 6 4 10 10 10h35c6 0 10 -4 10 -10v-62c0 -10 -1 -14 -5 -23l-31 -55c-2 -5 -5 -8 -10 -8zM51 -87c-6 0 -9 3 -9 9v139c0 6 4 10 10 10h35c6 0 10 -4 10 -10v-62c0 -10 -1 -14 -5 -23l-31 -55c-2 -5 -5 -8 -10 -8z" />
    <glyph glyph-name="guilsinglleft" unicode="&#x2039;" horiz-adv-x="256" 
d="M184 105l-143 152c-4 4 -4 10 0 14l143 152c4 4 10 2 10 -4v-37c0 -7 -1 -10 -8 -17l-90 -97c-3 -3 -3 -5 0 -8l90 -97c7 -7 8 -10 8 -17v-37c0 -6 -6 -8 -10 -4z" />
    <glyph glyph-name="guilsinglright" unicode="&#x203a;" horiz-adv-x="256" 
d="M71 105c-4 -4 -10 -2 -10 4v37c0 7 2 10 9 17l90 97c3 3 3 5 0 8l-90 97c-7 7 -9 10 -9 17v37c0 6 6 8 10 4l143 -152c4 -4 4 -10 0 -14z" />
    <glyph glyph-name="guillemotleft" unicode="&#xab;" horiz-adv-x="400" 
d="M329 105l-143 152c-4 4 -4 10 0 14l143 152c4 4 10 2 10 -4v-37c0 -7 -2 -10 -9 -17l-90 -97c-3 -3 -3 -5 0 -8l90 -97c7 -7 9 -10 9 -17v-37c0 -6 -6 -8 -10 -4zM184 105l-143 152c-4 4 -4 10 0 14l143 152c4 4 10 2 10 -4v-37c0 -7 -1 -10 -8 -17l-90 -97
c-3 -3 -3 -5 0 -8l90 -97c7 -7 8 -10 8 -17v-37c0 -6 -6 -8 -10 -4z" />
    <glyph glyph-name="guillemotright" unicode="&#xbb;" horiz-adv-x="400" 
d="M216 105c-4 -4 -10 -2 -10 4v37c0 7 1 10 8 17l90 97c3 3 3 5 0 8l-90 97c-7 7 -8 10 -8 17v37c0 6 6 8 10 4l143 -152c4 -4 4 -10 0 -14zM71 105c-4 -4 -10 -2 -10 4v37c0 7 2 10 9 17l90 97c3 3 3 5 0 8l-90 97c-7 7 -9 10 -9 17v37c0 6 6 8 10 4l143 -152
c4 -4 4 -10 0 -14z" />
    <glyph glyph-name="endash" unicode="&#x2013;" horiz-adv-x="374" 
d="M345 245h-316c-6 0 -10 4 -10 10v23c0 6 4 10 10 10h316c6 0 10 -4 10 -10v-23c0 -6 -4 -10 -10 -10z" />
    <glyph glyph-name="emdash" unicode="&#x2014;" horiz-adv-x="563" 
d="M534 245h-505c-6 0 -10 4 -10 10v23c0 6 4 10 10 10h505c6 0 10 -4 10 -10v-23c0 -6 -4 -10 -10 -10z" />
    <glyph glyph-name="bullet" unicode="&#x2022;" horiz-adv-x="388" 
d="M194 207c-57 0 -100 44 -100 101c0 58 43 101 100 101s100 -43 100 -101c0 -57 -43 -101 -100 -101z" />
    <glyph glyph-name="periodcentered" unicode="&#xb7;" horiz-adv-x="171" 
d="M108 223h-45c-6 0 -10 4 -10 10v65c0 6 4 10 10 10h45c6 0 10 -4 10 -10v-65c0 -6 -4 -10 -10 -10z" />
    <glyph glyph-name="uni2219" unicode="&#x2219;" horiz-adv-x="171" 
d="M108 223h-45c-6 0 -10 4 -10 10v65c0 6 4 10 10 10h45c6 0 10 -4 10 -10v-65c0 -6 -4 -10 -10 -10z" />
    <glyph glyph-name="dagger" unicode="&#x2020;" horiz-adv-x="431" 
d="M230 -180h-28c-6 0 -10 4 -10 10v546c0 4 -2 6 -6 6h-113c-6 0 -10 4 -10 10v26c0 6 4 10 10 10h113c4 0 6 2 6 6v236c0 6 4 10 10 10h28c6 0 10 -4 10 -10v-236c0 -4 2 -6 6 -6h113c6 0 10 -4 10 -10v-26c0 -6 -4 -10 -10 -10h-113c-4 0 -6 -2 -6 -6v-546
c0 -6 -4 -10 -10 -10z" />
    <glyph glyph-name="daggerdbl" unicode="&#x2021;" horiz-adv-x="431" 
d="M230 -180h-28c-6 0 -10 4 -10 10v209c0 4 -2 6 -6 6h-113c-6 0 -10 4 -10 10v26c0 6 4 10 10 10h113c4 0 6 2 6 6v308c0 4 -2 6 -6 6h-113c-6 0 -10 4 -10 10v26c0 6 4 10 10 10h113c4 0 6 2 6 6v207c0 6 4 10 10 10h28c6 0 10 -4 10 -10v-207c0 -4 2 -6 6 -6h113
c6 0 10 -4 10 -10v-26c0 -6 -4 -10 -10 -10h-113c-4 0 -6 -2 -6 -6v-308c0 -4 2 -6 6 -6h113c6 0 10 -4 10 -10v-26c0 -6 -4 -10 -10 -10h-113c-4 0 -6 -2 -6 -6v-209c0 -6 -4 -10 -10 -10z" />
    <glyph glyph-name="section" unicode="&#xa7;" horiz-adv-x="424" 
d="M213 -188c-62 0 -102 27 -118 77c-6 18 -9 36 -9 72c0 7 3 10 9 11l27 3c7 1 10 -3 10 -9c0 -37 3 -51 7 -63c10 -33 36 -48 74 -48c37 0 63 15 74 48c4 12 6 26 6 55c0 28 -1 44 -6 58c-12 36 -43 56 -99 68c-54 13 -81 39 -96 83c-6 21 -10 45 -10 86c0 39 3 61 9 81
c12 36 35 62 69 73v1c-28 10 -51 31 -63 67c-6 16 -9 36 -9 68s3 50 9 68c16 50 57 77 115 77s98 -27 114 -77c6 -18 9 -36 9 -72c0 -7 -3 -10 -9 -11l-27 -3c-7 -1 -10 3 -10 9c0 37 -3 51 -7 63c-10 33 -36 48 -69 48c-34 0 -60 -15 -71 -48c-4 -12 -6 -26 -6 -54
c0 -23 1 -38 6 -52c12 -36 41 -56 97 -68c53 -13 81 -39 96 -83c6 -21 10 -45 10 -87c0 -38 -3 -60 -10 -80c-12 -36 -34 -62 -69 -73v-1c29 -10 54 -31 66 -67c6 -16 9 -37 9 -73c0 -34 -3 -52 -9 -70c-16 -50 -57 -77 -119 -77zM213 127c39 0 65 17 77 53c5 15 7 33 7 73
c0 41 -2 59 -7 74c-12 36 -38 53 -77 53c-38 0 -64 -17 -76 -53c-5 -15 -8 -33 -8 -74c0 -40 3 -58 8 -73c12 -36 38 -53 76 -53z" />
    <glyph glyph-name="paragraph" unicode="&#xb6;" horiz-adv-x="421" 
d="M335 -180h-23c-6 0 -10 4 -10 10v800c0 4 -2 6 -6 6h-45c-4 0 -6 -2 -6 -6v-800c0 -6 -4 -10 -10 -10h-24c-6 0 -10 4 -10 10v428c-89 17 -141 97 -141 211c0 116 67 211 181 211h94c6 0 10 -4 10 -10v-840c0 -6 -4 -10 -10 -10z" />
    <glyph glyph-name="brokenbar" unicode="&#xa6;" horiz-adv-x="233" 
d="M128 388h-23c-6 0 -10 4 -10 10v332c0 6 4 10 10 10h23c6 0 10 -4 10 -10v-332c0 -6 -4 -10 -10 -10zM128 -84h-23c-6 0 -10 4 -10 10v336c0 6 4 10 10 10h23c6 0 10 -4 10 -10v-336c0 -6 -4 -10 -10 -10z" />
    <glyph glyph-name="copyright" unicode="&#xa9;" horiz-adv-x="734" 
d="M367 -8c-146 0 -252 73 -294 201c-11 34 -17 80 -17 147s6 113 17 147c42 128 148 201 294 201s253 -73 294 -201c11 -34 17 -80 17 -147s-6 -113 -17 -147c-41 -128 -148 -201 -294 -201zM367 30c127 0 218 61 254 172c11 31 17 73 17 138s-6 107 -17 139
c-36 111 -127 171 -254 171c-126 0 -218 -60 -254 -171c-11 -32 -16 -74 -16 -139s5 -107 16 -138c36 -111 128 -172 254 -172zM370 143c-47 0 -80 23 -94 66c-5 16 -8 34 -8 131s3 115 8 131c14 43 47 66 94 66c58 0 90 -36 97 -77c1 -5 -1 -9 -6 -10l-23 -5
c-4 -1 -9 2 -10 7c-8 28 -26 45 -58 45c-28 0 -45 -12 -54 -39c-4 -10 -6 -21 -6 -118s2 -108 6 -118c9 -27 26 -39 54 -39c32 0 50 17 58 45c1 5 6 8 10 7l23 -5c5 -1 7 -5 6 -10c-7 -41 -39 -77 -97 -77z" />
    <glyph glyph-name="registered" unicode="&#xae;" horiz-adv-x="428" 
d="M214 302c-81 0 -140 42 -163 113c-5 18 -10 40 -10 78s5 59 10 77c23 72 82 114 163 114c80 0 140 -45 163 -114c6 -18 10 -40 10 -77c0 -35 -5 -61 -10 -78c-26 -63 -86 -113 -163 -113zM214 327c67 0 116 36 136 97c6 17 9 37 9 69c0 31 -3 51 -9 69
c-19 60 -69 96 -136 96s-117 -36 -136 -96c-5 -18 -9 -38 -9 -69c0 -32 4 -52 9 -69c20 -61 69 -97 136 -97zM186 386h-14c-5 0 -7 3 -7 9v198c0 6 2 9 7 9h41c40 0 60 -17 60 -61c0 -29 -10 -45 -27 -54c9 -31 19 -60 28 -91c2 -6 0 -10 -7 -10h-14c-5 0 -7 3 -8 9v-1
c-8 28 -18 57 -26 85h-24c-2 0 -2 -1 -2 -3v-81c0 -6 -2 -9 -7 -9zM212 505c24 0 33 9 33 36c0 26 -9 35 -33 35h-17c-2 0 -2 -1 -2 -2v-67c0 -2 0 -2 2 -2h17z" />
    <glyph glyph-name="trademark" unicode="&#x2122;" horiz-adv-x="629" 
d="M559 286h-20c-6 0 -10 4 -10 10v268h-1l-62 -201c-2 -6 -5 -10 -11 -10h-13c-6 0 -9 4 -11 10l-63 201h-1v-268c0 -6 -4 -10 -10 -10h-19c-6 0 -10 4 -10 10v374c0 6 4 10 10 10h23c6 0 10 -3 12 -10l76 -251h1l74 251c2 7 6 10 12 10h23c6 0 10 -4 10 -10v-374
c0 -6 -4 -10 -10 -10zM179 286h-21c-6 0 -10 4 -10 10v340c0 4 -2 5 -4 5h-68c-6 0 -10 4 -10 10v19c0 6 4 10 10 10h184c6 0 10 -4 10 -10v-19c0 -6 -4 -10 -10 -10h-68c-2 0 -3 -1 -3 -5v-340c0 -6 -4 -10 -10 -10z" />
    <glyph glyph-name="currency" unicode="&#xa4;" horiz-adv-x="371" 
d="M327 196l-14 -15c-4 -4 -9 -4 -14 0l-37 39c-21 -16 -47 -25 -76 -25s-56 9 -77 25l-37 -39c-5 -4 -10 -4 -14 0l-14 15c-4 4 -5 9 0 14l38 38c-15 20 -23 46 -23 74c0 29 9 55 24 76l-38 38c-5 4 -5 9 0 14l14 14c4 4 9 5 14 0l37 -39c21 15 47 24 76 24
c28 0 54 -9 74 -24l39 39c5 5 10 4 14 0l13 -14c5 -5 5 -10 0 -14l-38 -38c15 -21 24 -47 24 -76c0 -28 -9 -54 -23 -74l38 -38c5 -5 4 -10 0 -14zM186 234c51 0 86 37 86 88c0 52 -35 88 -86 88c-52 0 -87 -36 -87 -88c0 -51 35 -88 87 -88z" />
    <glyph glyph-name="Euro" unicode="&#x20ac;" horiz-adv-x="371" 
d="M211 -8c-62 0 -103 30 -122 87c-8 25 -11 50 -11 177c0 4 -2 6 -6 6h-45c-6 0 -10 4 -10 10v20c0 6 4 10 10 10h45c4 0 6 2 6 6v71c0 4 -2 6 -6 6h-45c-6 0 -10 4 -10 10v20c0 6 4 10 10 10h45c4 0 6 2 6 6c0 121 3 145 11 170c19 57 60 87 122 87c77 0 122 -54 132 -129
c1 -6 0 -11 -6 -12l-28 -6c-7 -2 -11 1 -12 7c-10 56 -36 93 -86 93c-37 0 -63 -18 -75 -54c-6 -20 -9 -41 -9 -156c0 -4 2 -6 6 -6h146c6 0 10 -4 10 -10l-6 -20c-2 -6 -7 -10 -13 -10h-137c-4 0 -6 -2 -6 -6v-71c0 -4 2 -6 6 -6h126c6 0 10 -4 10 -10l-6 -20
c-2 -6 -7 -10 -13 -10h-117c-4 0 -6 -2 -6 -6c0 -122 3 -142 9 -163c12 -36 38 -54 75 -54c50 0 76 37 86 93c1 6 5 9 12 7l28 -5c6 -2 7 -6 6 -13c-10 -75 -55 -129 -132 -129z" />
    <glyph glyph-name="cent" unicode="&#xa2;" horiz-adv-x="371" 
d="M198 -102h-11c-6 0 -10 4 -10 10v85c-53 5 -87 30 -102 79c-9 28 -11 43 -11 166c0 124 2 138 11 166c15 48 49 75 102 80v84c0 6 4 10 10 10h11c6 0 10 -4 10 -10v-84c59 -5 99 -40 109 -104c1 -5 -1 -9 -6 -11l-29 -7c-6 -1 -11 1 -12 7c-8 42 -28 63 -62 68v-397
c34 4 54 25 62 67c1 6 6 9 12 7l29 -7c5 -1 7 -6 6 -11c-10 -63 -50 -98 -109 -103v-85c0 -6 -4 -10 -10 -10zM122 88c10 -30 28 -45 55 -48v397c-27 -4 -45 -19 -55 -48c-7 -22 -9 -33 -9 -151c0 -117 2 -129 9 -150z" />
    <glyph glyph-name="sterling" unicode="&#xa3;" horiz-adv-x="371" 
d="M314 0h-256c-6 0 -10 4 -10 10v27c0 5 2 8 5 11c25 25 34 47 34 97v149c0 4 -2 6 -6 6h-30c-6 0 -10 4 -10 10v21c0 6 4 10 10 10h30c4 0 6 2 6 6v201c0 89 41 140 116 140c79 0 113 -53 117 -136c0 -6 -2 -10 -8 -11l-27 -5c-7 -1 -12 2 -12 8c-3 69 -25 97 -71 97
c-43 0 -66 -31 -66 -91v-203c0 -4 2 -6 6 -6h99c6 0 10 -4 10 -10v-21c0 -6 -4 -10 -10 -10h-99c-4 0 -6 -2 -6 -6v-149c0 -50 -10 -78 -32 -97v-1h210c6 0 10 -4 10 -10v-27c0 -6 -4 -10 -10 -10z" />
    <glyph glyph-name="florin" unicode="&#x192;" horiz-adv-x="371" 
d="M308 350h-85l-52 -387c-13 -100 -46 -143 -132 -143h-14c-6 0 -10 4 -10 10v27c0 6 4 10 10 10h10c57 0 77 20 86 91l53 392h-71c-6 0 -10 4 -10 10v23c0 6 4 10 10 10h77l20 144c13 100 46 143 132 143h14c6 0 10 -4 10 -10v-27c0 -6 -4 -10 -10 -10h-10
c-56 0 -76 -20 -86 -91l-21 -149h79c6 0 10 -4 10 -10v-23c0 -6 -4 -10 -10 -10z" />
    <glyph glyph-name="yen" unicode="&#xa5;" horiz-adv-x="371" 
d="M200 0h-30c-6 0 -10 4 -10 10v152c0 4 -2 6 -6 6h-87c-6 0 -10 4 -10 10v20c0 6 4 10 10 10h87c4 0 6 2 6 6v63c0 4 -2 6 -6 6h-87c-6 0 -10 4 -10 10v20c0 6 4 10 10 10h82v2l-111 345c-2 6 0 10 6 10h34c6 0 9 -4 11 -10l96 -307h3l93 307c2 6 5 10 12 10h33
c7 0 9 -4 7 -10l-112 -345v-2h83c6 0 10 -4 10 -10v-20c0 -6 -4 -10 -10 -10h-88c-4 0 -6 -2 -6 -6v-63c0 -4 2 -6 6 -6h88c6 0 10 -4 10 -10v-20c0 -6 -4 -10 -10 -10h-88c-4 0 -6 -2 -6 -6v-152c0 -6 -4 -10 -10 -10z" />
    <glyph glyph-name="ordfeminine" unicode="&#xaa;" horiz-adv-x="259" 
d="M198 392h-17c-6 0 -10 4 -10 10v20h-1c-7 -19 -29 -34 -56 -34c-43 0 -73 28 -73 83c0 65 36 94 90 94h34c4 0 6 2 6 6v21c0 43 -16 58 -46 58c-17 0 -34 -6 -51 -20c-6 -4 -11 -4 -14 0l-8 15c-3 4 -2 9 3 13c17 17 43 28 73 28c51 0 80 -24 80 -91v-193
c0 -6 -4 -10 -10 -10zM121 422c28 0 50 24 50 59v45c0 4 -2 6 -6 6h-31c-38 0 -55 -20 -55 -59c0 -32 16 -51 42 -51z" />
    <glyph glyph-name="ordmasculine" unicode="&#xba;" horiz-adv-x="274" 
d="M137 388c-42 0 -71 20 -83 56c-5 16 -6 26 -6 93s1 77 6 93c12 36 41 56 83 56c41 0 71 -20 82 -56c5 -16 7 -26 7 -93s-2 -77 -7 -93c-11 -36 -41 -56 -82 -56zM137 424c24 0 39 11 46 32c3 9 5 19 5 81s-2 72 -5 81c-7 21 -22 32 -46 32s-40 -11 -47 -32
c-3 -9 -4 -19 -4 -81s1 -72 4 -81c7 -21 23 -32 47 -32z" />
    <glyph glyph-name="onesuperior" unicode="&#xb9;" horiz-adv-x="258" 
d="M160 430h-22c-6 0 -10 4 -10 10v346h-1l-55 -38c-6 -4 -11 -2 -11 4v27c0 6 2 9 7 12l55 39c5 4 9 6 15 6h22c6 0 10 -4 10 -10v-386c0 -6 -4 -10 -10 -10z" />
    <glyph glyph-name="twosuperior" unicode="&#xb2;" horiz-adv-x="258" 
d="M210 430h-161c-6 0 -10 4 -10 10v21c0 6 1 10 4 16l114 190c12 20 21 40 21 68c0 22 -2 31 -5 39c-6 18 -20 30 -45 30s-39 -12 -45 -30c-3 -8 -4 -17 -4 -41c0 -7 -4 -10 -11 -9l-21 2c-6 1 -9 5 -9 12c0 23 2 36 6 48c12 37 41 57 85 57c43 0 73 -20 85 -57
c4 -12 6 -25 6 -51c0 -37 -12 -65 -31 -96l-104 -169v-1h125c6 0 10 -4 10 -10v-19c0 -6 -4 -10 -10 -10z" />
    <glyph glyph-name="threesuperior" unicode="&#xb3;" horiz-adv-x="258" 
d="M128 423c-43 0 -73 20 -84 56c-4 13 -6 26 -6 43c0 7 3 11 9 12l21 3c7 1 10 -3 10 -10c0 -18 2 -27 5 -35c6 -18 20 -30 45 -30s39 12 45 30c3 8 5 17 5 51c0 37 -1 44 -3 51c-7 19 -23 28 -47 28h-8c-6 0 -10 4 -10 10v19c0 6 4 10 10 10h8c26 0 40 8 46 27
c3 8 4 16 4 45c0 24 -2 33 -5 41c-6 18 -20 30 -45 30s-39 -12 -45 -30c-3 -8 -5 -17 -5 -35c0 -7 -3 -11 -10 -10l-21 3c-6 1 -9 5 -9 12c0 17 2 30 6 43c11 36 41 56 84 56c44 0 74 -20 85 -56c4 -13 6 -26 6 -54c0 -32 -1 -44 -4 -54c-6 -18 -18 -29 -34 -36v-1
c17 -8 28 -19 33 -37c4 -11 5 -23 5 -62c0 -38 -2 -51 -6 -64c-11 -36 -41 -56 -85 -56z" />
    <glyph glyph-name="fraction" unicode="&#x2044;" horiz-adv-x="137" 
d="M-43 -8h-21c-6 0 -9 4 -7 10l237 676c3 8 7 10 13 10h22c6 0 9 -4 7 -10l-238 -676c-3 -8 -7 -10 -13 -10z" />
    <glyph glyph-name="uni2215" unicode="&#x2215;" horiz-adv-x="137" 
d="M-43 -8h-21c-6 0 -9 4 -7 10l237 676c3 8 7 10 13 10h22c6 0 9 -4 7 -10l-238 -676c-3 -8 -7 -10 -13 -10z" />
    <glyph glyph-name="onehalf" unicode="&#xbd;" horiz-adv-x="684" 
d="M178 274h-22c-6 0 -10 4 -10 10v346h-1l-55 -38c-6 -4 -11 -2 -11 4v27c0 6 2 9 7 12l55 39c5 4 9 6 15 6h22c6 0 10 -4 10 -10v-386c0 -6 -4 -10 -10 -10zM594 0h-161c-6 0 -10 4 -10 10v21c0 6 1 10 4 16l114 190c12 20 21 40 21 68c0 22 -2 31 -5 39
c-6 18 -20 30 -45 30s-39 -12 -45 -30c-3 -8 -4 -17 -4 -41c0 -7 -4 -10 -11 -9l-21 2c-6 1 -9 5 -9 12c0 23 2 36 6 48c12 37 41 57 85 57c43 0 73 -20 85 -57c4 -12 6 -25 6 -51c0 -37 -12 -65 -31 -96l-104 -169v-1h125c6 0 10 -4 10 -10v-19c0 -6 -4 -10 -10 -10z
M205 -8h-21c-6 0 -9 4 -7 10l237 676c3 8 7 10 13 10h22c6 0 9 -4 7 -10l-238 -676c-3 -8 -7 -10 -13 -10z" />
    <glyph glyph-name="onethird" unicode="&#x2153;" horiz-adv-x="684" 
d="M178 274h-22c-6 0 -10 4 -10 10v346h-1l-55 -38c-6 -4 -11 -2 -11 4v27c0 6 2 9 7 12l55 39c5 4 9 6 15 6h22c6 0 10 -4 10 -10v-386c0 -6 -4 -10 -10 -10zM205 -8h-21c-6 0 -9 4 -7 10l237 676c3 8 7 10 13 10h22c6 0 9 -4 7 -10l-238 -676c-3 -8 -7 -10 -13 -10z
M512 -7c-43 0 -73 20 -84 56c-4 13 -6 26 -6 43c0 7 3 11 9 12l21 3c7 1 10 -3 10 -10c0 -18 2 -27 5 -35c6 -18 20 -30 45 -30s39 12 45 30c3 8 5 17 5 51c0 37 -1 44 -3 51c-7 19 -23 28 -47 28h-8c-6 0 -10 4 -10 10v19c0 6 4 10 10 10h8c26 0 40 8 46 27c3 8 4 16 4 45
c0 24 -2 33 -5 41c-6 18 -20 30 -45 30s-39 -12 -45 -30c-3 -8 -5 -17 -5 -35c0 -7 -3 -11 -10 -10l-21 3c-6 1 -9 5 -9 12c0 17 2 30 6 43c11 36 41 56 84 56c44 0 74 -20 85 -56c4 -13 6 -26 6 -54c0 -32 -1 -44 -4 -54c-6 -18 -18 -29 -34 -36v-1c17 -8 28 -19 33 -37
c4 -11 5 -23 5 -62c0 -38 -2 -51 -6 -64c-11 -36 -41 -56 -85 -56z" />
    <glyph glyph-name="onequarter" unicode="&#xbc;" horiz-adv-x="666" 
d="M178 274h-22c-6 0 -10 4 -10 10v346h-1l-55 -38c-6 -4 -11 -2 -11 4v27c0 6 2 9 7 12l55 39c5 4 9 6 15 6h22c6 0 10 -4 10 -10v-386c0 -6 -4 -10 -10 -10zM527 0h-20c-6 0 -10 4 -10 10v57c0 4 -2 6 -6 6h-115c-6 0 -10 4 -10 10v20c0 6 1 10 3 16l89 277
c2 6 5 10 11 10h24c6 0 9 -4 7 -10l-90 -283v-1h81c4 0 6 2 6 6v105c0 6 4 10 10 10h20c6 0 10 -4 10 -10v-105c0 -4 2 -6 6 -6h32c6 0 10 -4 10 -10v-19c0 -6 -4 -10 -10 -10h-32c-4 0 -6 -2 -6 -6v-57c0 -6 -4 -10 -10 -10zM205 -8h-21c-6 0 -9 4 -7 10l237 676
c3 8 7 10 13 10h22c6 0 9 -4 7 -10l-238 -676c-3 -8 -7 -10 -13 -10z" />
    <glyph glyph-name="oneeighth" unicode="&#x215b;" horiz-adv-x="686" 
d="M178 274h-22c-6 0 -10 4 -10 10v346h-1l-55 -38c-6 -4 -11 -2 -11 4v27c0 6 2 9 7 12l55 39c5 4 9 6 15 6h22c6 0 10 -4 10 -10v-386c0 -6 -4 -10 -10 -10zM514 -7c-44 0 -75 21 -87 57c-4 13 -5 25 -5 63c0 37 1 47 5 59c6 18 18 32 33 41v1c-15 8 -27 23 -33 41
c-4 11 -5 23 -5 48c0 28 1 40 5 53c12 36 43 57 87 57c43 0 74 -21 86 -57c4 -13 5 -25 5 -53c0 -25 -1 -37 -5 -48c-5 -18 -17 -33 -33 -41v-1c16 -9 28 -23 33 -41c4 -12 5 -22 5 -59c0 -38 -1 -50 -5 -63c-12 -36 -43 -57 -86 -57zM514 232c24 0 40 13 46 31
c2 7 3 16 3 40s-1 32 -3 40c-6 18 -22 31 -46 31s-40 -13 -46 -31c-3 -8 -4 -16 -4 -40s1 -33 4 -40c6 -18 22 -31 46 -31zM514 32c24 0 40 13 46 31c2 8 3 16 3 50c0 33 -1 42 -3 50c-6 17 -22 30 -46 30s-40 -13 -46 -30c-3 -8 -4 -17 -4 -50c0 -34 1 -42 4 -50
c6 -18 22 -31 46 -31zM205 -8h-21c-6 0 -9 4 -7 10l237 676c3 8 7 10 13 10h22c6 0 9 -4 7 -10l-238 -676c-3 -8 -7 -10 -13 -10z" />
    <glyph glyph-name="twothirds" unicode="&#x2154;" horiz-adv-x="744" 
d="M251 274h-161c-6 0 -10 4 -10 10v21c0 6 1 10 4 16l114 190c12 20 21 40 21 68c0 22 -2 31 -5 39c-6 18 -20 30 -45 30s-39 -12 -45 -30c-3 -8 -4 -17 -4 -41c0 -7 -4 -10 -11 -9l-21 2c-6 1 -9 5 -9 12c0 23 2 36 6 48c12 37 41 57 85 57c43 0 73 -20 85 -57
c4 -12 6 -25 6 -51c0 -37 -12 -65 -31 -96l-104 -169v-1h125c6 0 10 -4 10 -10v-19c0 -6 -4 -10 -10 -10zM265 -8h-21c-6 0 -9 4 -7 10l237 676c3 8 7 10 13 10h22c6 0 9 -4 7 -10l-238 -676c-3 -8 -7 -10 -13 -10zM572 -7c-43 0 -73 20 -84 56c-4 13 -6 26 -6 43
c0 7 3 11 9 12l21 3c7 1 10 -3 10 -10c0 -18 2 -27 5 -35c6 -18 20 -30 45 -30s39 12 45 30c3 8 5 17 5 51c0 37 -1 44 -3 51c-7 19 -23 28 -47 28h-8c-6 0 -10 4 -10 10v19c0 6 4 10 10 10h8c26 0 40 8 46 27c3 8 4 16 4 45c0 24 -2 33 -5 41c-6 18 -20 30 -45 30
s-39 -12 -45 -30c-3 -8 -5 -17 -5 -35c0 -7 -3 -11 -10 -10l-21 3c-6 1 -9 5 -9 12c0 17 2 30 6 43c11 36 41 56 84 56c44 0 74 -20 85 -56c4 -13 6 -26 6 -54c0 -32 -1 -44 -4 -54c-6 -18 -18 -29 -34 -36v-1c17 -8 28 -19 33 -37c4 -11 5 -23 5 -62c0 -38 -2 -51 -6 -64
c-11 -36 -41 -56 -85 -56z" />
    <glyph glyph-name="threequarters" unicode="&#xbe;" horiz-adv-x="717" 
d="M579 0h-20c-6 0 -10 4 -10 10v57c0 4 -2 6 -6 6h-115c-6 0 -10 4 -10 10v20c0 6 1 10 3 16l89 277c2 6 5 10 11 10h24c6 0 9 -4 7 -10l-90 -283v-1h81c4 0 6 2 6 6v105c0 6 4 10 10 10h20c6 0 10 -4 10 -10v-105c0 -4 2 -6 6 -6h32c6 0 10 -4 10 -10v-19
c0 -6 -4 -10 -10 -10h-32c-4 0 -6 -2 -6 -6v-57c0 -6 -4 -10 -10 -10zM256 -8h-21c-6 0 -9 4 -7 10l237 676c3 8 7 10 13 10h22c6 0 9 -4 7 -10l-238 -676c-3 -8 -7 -10 -13 -10zM170 267c-43 0 -73 20 -84 56c-4 13 -6 26 -6 43c0 7 3 11 9 12l21 3c7 1 10 -3 10 -10
c0 -18 2 -27 5 -35c6 -18 20 -30 45 -30s39 12 45 30c3 8 5 17 5 51c0 37 -1 44 -3 51c-7 19 -23 28 -47 28h-8c-6 0 -10 4 -10 10v19c0 6 4 10 10 10h8c26 0 40 8 46 27c3 8 4 16 4 45c0 24 -2 33 -5 41c-6 18 -20 30 -45 30s-39 -12 -45 -30c-3 -8 -5 -17 -5 -35
c0 -7 -3 -11 -10 -10l-21 3c-6 1 -9 5 -9 12c0 17 2 30 6 43c11 36 41 56 84 56c44 0 74 -20 85 -56c4 -13 6 -26 6 -54c0 -32 -1 -44 -4 -54c-6 -18 -18 -29 -34 -36v-1c17 -8 28 -19 33 -37c4 -11 5 -23 5 -62c0 -38 -2 -51 -6 -64c-11 -36 -41 -56 -85 -56z" />
    <glyph glyph-name="threeeighths" unicode="&#x215c;" horiz-adv-x="737" 
d="M565 -7c-44 0 -75 21 -87 57c-4 13 -5 25 -5 63c0 37 1 47 5 59c6 18 18 32 33 41v1c-15 8 -27 23 -33 41c-4 11 -5 23 -5 48c0 28 1 40 5 53c12 36 43 57 87 57c43 0 74 -21 86 -57c4 -13 5 -25 5 -53c0 -25 -1 -37 -5 -48c-5 -18 -17 -33 -33 -41v-1
c16 -9 28 -23 33 -41c4 -12 5 -22 5 -59c0 -38 -1 -50 -5 -63c-12 -36 -43 -57 -86 -57zM565 232c24 0 40 13 46 31c2 7 3 16 3 40s-1 32 -3 40c-6 18 -22 31 -46 31s-40 -13 -46 -31c-3 -8 -4 -16 -4 -40s1 -33 4 -40c6 -18 22 -31 46 -31zM565 32c24 0 40 13 46 31
c2 8 3 16 3 50c0 33 -1 42 -3 50c-6 17 -22 30 -46 30s-40 -13 -46 -30c-3 -8 -4 -17 -4 -50c0 -34 1 -42 4 -50c6 -18 22 -31 46 -31zM256 -8h-21c-6 0 -9 4 -7 10l237 676c3 8 7 10 13 10h22c6 0 9 -4 7 -10l-238 -676c-3 -8 -7 -10 -13 -10zM170 267c-43 0 -73 20 -84 56
c-4 13 -6 26 -6 43c0 7 3 11 9 12l21 3c7 1 10 -3 10 -10c0 -18 2 -27 5 -35c6 -18 20 -30 45 -30s39 12 45 30c3 8 5 17 5 51c0 37 -1 44 -3 51c-7 19 -23 28 -47 28h-8c-6 0 -10 4 -10 10v19c0 6 4 10 10 10h8c26 0 40 8 46 27c3 8 4 16 4 45c0 24 -2 33 -5 41
c-6 18 -20 30 -45 30s-39 -12 -45 -30c-3 -8 -5 -17 -5 -35c0 -7 -3 -11 -10 -10l-21 3c-6 1 -9 5 -9 12c0 17 2 30 6 43c11 36 41 56 84 56c44 0 74 -20 85 -56c4 -13 6 -26 6 -54c0 -32 -1 -44 -4 -54c-6 -18 -18 -29 -34 -36v-1c17 -8 28 -19 33 -37c4 -11 5 -23 5 -62
c0 -38 -2 -51 -6 -64c-11 -36 -41 -56 -85 -56z" />
    <glyph glyph-name="fiveeighths" unicode="&#x215d;" horiz-adv-x="737" 
d="M565 -7c-44 0 -75 21 -87 57c-4 13 -5 25 -5 63c0 37 1 47 5 59c6 18 18 32 33 41v1c-15 8 -27 23 -33 41c-4 11 -5 23 -5 48c0 28 1 40 5 53c12 36 43 57 87 57c43 0 74 -21 86 -57c4 -13 5 -25 5 -53c0 -25 -1 -37 -5 -48c-5 -18 -17 -33 -33 -41v-1
c16 -9 28 -23 33 -41c4 -12 5 -22 5 -59c0 -38 -1 -50 -5 -63c-12 -36 -43 -57 -86 -57zM565 232c24 0 40 13 46 31c2 7 3 16 3 40s-1 32 -3 40c-6 18 -22 31 -46 31s-40 -13 -46 -31c-3 -8 -4 -16 -4 -40s1 -33 4 -40c6 -18 22 -31 46 -31zM565 32c24 0 40 13 46 31
c2 8 3 16 3 50c0 33 -1 42 -3 50c-6 17 -22 30 -46 30s-40 -13 -46 -30c-3 -8 -4 -17 -4 -50c0 -34 1 -42 4 -50c6 -18 22 -31 46 -31zM256 -8h-21c-6 0 -9 4 -7 10l237 676c3 8 7 10 13 10h22c6 0 9 -4 7 -10l-238 -676c-3 -8 -7 -10 -13 -10zM170 267c-44 0 -74 22 -86 57
c-3 11 -5 23 -5 38c0 7 3 11 9 12l21 3c7 1 11 -3 11 -10c0 -16 1 -23 3 -30c7 -20 22 -31 46 -31s39 12 45 30c3 8 5 18 5 66s-2 58 -5 66c-6 18 -21 29 -45 29c-21 0 -33 -8 -41 -17c-5 -8 -9 -10 -16 -10h-19c-6 0 -10 4 -10 10v190c0 6 4 10 10 10h156c6 0 10 -4 10 -10
v-19c0 -6 -4 -10 -10 -10h-120c-4 0 -6 -2 -6 -6v-118h1c10 11 28 19 51 19c42 0 68 -17 80 -53c4 -12 6 -28 6 -81c0 -51 -2 -66 -6 -79c-12 -36 -42 -56 -85 -56z" />
    <glyph glyph-name="seveneighths" unicode="&#x215e;" horiz-adv-x="683" 
d="M511 -7c-44 0 -75 21 -87 57c-4 13 -5 25 -5 63c0 37 1 47 5 59c6 18 18 32 33 41v1c-15 8 -27 23 -33 41c-4 11 -5 23 -5 48c0 28 1 40 5 53c12 36 43 57 87 57c43 0 74 -21 86 -57c4 -13 5 -25 5 -53c0 -25 -1 -37 -5 -48c-5 -18 -17 -33 -33 -41v-1
c16 -9 28 -23 33 -41c4 -12 5 -22 5 -59c0 -38 -1 -50 -5 -63c-12 -36 -43 -57 -86 -57zM511 232c24 0 40 13 46 31c2 7 3 16 3 40s-1 32 -3 40c-6 18 -22 31 -46 31s-40 -13 -46 -31c-3 -8 -4 -16 -4 -40s1 -33 4 -40c6 -18 22 -31 46 -31zM511 32c24 0 40 13 46 31
c2 8 3 16 3 50c0 33 -1 42 -3 50c-6 17 -22 30 -46 30s-40 -13 -46 -30c-3 -8 -4 -17 -4 -50c0 -34 1 -42 4 -50c6 -18 22 -31 46 -31zM141 274h-25c-6 0 -9 4 -7 10l116 355v2h-98c-4 0 -6 -2 -6 -6v-43c0 -6 -4 -10 -10 -10h-21c-6 0 -10 4 -10 10v78c0 6 4 10 10 10h169
c6 0 10 -4 10 -10v-20c0 -6 -1 -10 -3 -16l-113 -351c-2 -6 -5 -9 -12 -9zM202 -8h-21c-6 0 -9 4 -7 10l237 676c3 8 7 10 13 10h22c6 0 9 -4 7 -10l-238 -676c-3 -8 -7 -10 -13 -10z" />
    <glyph glyph-name="perthousand" unicode="&#x2030;" horiz-adv-x="853" 
d="M199 -8h-21c-6 0 -9 4 -7 10l238 676c3 8 7 10 13 10h21c6 0 9 -4 7 -10l-238 -676c-3 -8 -7 -10 -13 -10zM146 331c-41 0 -69 21 -79 54c-6 17 -7 29 -7 123c0 95 1 107 7 124c10 33 38 54 79 54c40 0 68 -21 79 -54c5 -17 6 -29 6 -124c0 -94 -1 -106 -6 -123
c-11 -33 -39 -54 -79 -54zM146 367c21 0 35 11 41 29c3 8 5 21 5 112c0 92 -2 105 -5 113c-6 18 -20 28 -41 28c-22 0 -36 -10 -41 -28c-3 -8 -5 -21 -5 -113c0 -91 2 -104 5 -112c5 -18 19 -29 41 -29zM708 -6c-41 0 -69 21 -79 54c-6 17 -7 29 -7 124c0 94 1 106 7 123
c10 33 38 54 79 54c40 0 68 -21 79 -54c5 -17 6 -29 6 -123c0 -95 -1 -107 -6 -124c-11 -33 -39 -54 -79 -54zM475 -6c-41 0 -68 21 -79 54c-5 17 -6 29 -6 124c0 94 1 106 6 123c11 33 38 54 79 54s68 -21 79 -54c5 -17 6 -29 6 -123c0 -95 -1 -107 -6 -124
c-11 -33 -38 -54 -79 -54zM708 31c21 0 35 11 41 28c3 8 4 21 4 113c0 91 -1 104 -4 112c-6 18 -20 29 -41 29c-22 0 -36 -11 -42 -29c-2 -8 -4 -21 -4 -112c0 -92 2 -105 4 -113c6 -17 20 -28 42 -28zM475 31c22 0 35 11 41 28c3 8 5 21 5 113c0 91 -2 104 -5 112
c-6 18 -19 29 -41 29s-35 -11 -41 -29c-3 -8 -5 -21 -5 -112c0 -92 2 -105 5 -113c6 -17 19 -28 41 -28z" />
    <glyph glyph-name="minus" unicode="&#x2212;" horiz-adv-x="371" 
d="M322 253h-273c-6 0 -10 4 -10 10v26c0 6 4 10 10 10h273c6 0 10 -4 10 -10v-26c0 -6 -4 -10 -10 -10z" />
    <glyph glyph-name="plusminus" unicode="&#xb1;" horiz-adv-x="371" 
d="M199 136h-27c-6 0 -10 4 -10 10v109c0 4 -2 6 -6 6h-107c-6 0 -10 4 -10 10v25c0 6 4 10 10 10h107c4 0 6 2 6 6v109c0 6 4 10 10 10h27c6 0 10 -4 10 -10v-109c0 -4 2 -6 6 -6h107c6 0 10 -4 10 -10v-25c0 -6 -4 -10 -10 -10h-107c-4 0 -6 -2 -6 -6v-109
c0 -6 -4 -10 -10 -10zM322 0h-273c-6 0 -10 4 -10 10v26c0 6 4 10 10 10h273c6 0 10 -4 10 -10v-26c0 -6 -4 -10 -10 -10z" />
    <glyph glyph-name="multiply" unicode="&#xd7;" horiz-adv-x="371" 
d="M307 172l-17 -18c-4 -4 -10 -4 -14 0l-86 86c-3 3 -5 3 -8 0l-87 -86c-4 -4 -10 -4 -14 0l-16 18c-5 4 -5 10 0 14l86 86c2 3 2 5 0 8l-86 86c-5 4 -5 10 0 14l16 18c4 4 10 4 14 0l87 -86c3 -3 5 -3 8 0l86 86c4 4 10 4 14 0l17 -18c4 -4 4 -10 0 -14l-86 -86
c-3 -3 -3 -5 0 -8l86 -86c4 -4 4 -10 0 -14z" />
    <glyph glyph-name="divide" unicode="&#xf7;" horiz-adv-x="371" 
d="M186 362c-24 0 -41 18 -41 41c0 24 17 42 41 42c23 0 40 -18 40 -42c0 -23 -17 -41 -40 -41zM322 253h-273c-6 0 -10 4 -10 10v26c0 6 4 10 10 10h273c6 0 10 -4 10 -10v-26c0 -6 -4 -10 -10 -10zM186 107c-24 0 -41 18 -41 42c0 23 17 41 41 41c23 0 40 -18 40 -41
c0 -24 -17 -42 -40 -42z" />
    <glyph glyph-name="notequal" unicode="&#x2260;" horiz-adv-x="371" 
d="M322 329h-89l-52 -106h141c6 0 10 -4 10 -10v-26c0 -6 -4 -10 -10 -10h-164l-40 -82c-4 -8 -7 -10 -13 -10h-22c-5 0 -8 4 -6 10l40 82h-68c-6 0 -10 4 -10 10v26c0 6 4 10 10 10h91l52 106h-143c-6 0 -10 4 -10 10v26c0 6 4 10 10 10h165l40 80c4 7 7 10 13 10h22
c5 0 8 -4 6 -10l-40 -80h67c6 0 10 -4 10 -10v-26c0 -6 -4 -10 -10 -10z" />
    <glyph glyph-name="approxequal" unicode="&#x2248;" horiz-adv-x="371" 
d="M245 301c-25 0 -46 13 -66 26c-18 11 -35 23 -52 23c-24 0 -38 -13 -57 -43c-3 -5 -8 -7 -14 -4l-17 10c-5 3 -7 9 -4 14c23 40 48 66 91 66c25 0 46 -13 66 -26c18 -11 36 -23 52 -23c24 0 38 12 57 43c3 5 8 7 14 4l17 -10c5 -3 7 -9 4 -14c-22 -40 -48 -66 -91 -66z
M245 160c-25 0 -46 13 -66 26c-18 11 -35 22 -52 22c-24 0 -38 -12 -57 -42c-3 -5 -8 -7 -14 -4l-17 10c-5 3 -7 9 -4 14c23 40 48 66 91 66c25 0 46 -13 66 -26c18 -12 36 -23 52 -23c24 0 38 12 57 43c3 5 8 7 14 4l17 -10c5 -3 7 -9 4 -15c-22 -39 -48 -65 -91 -65z" />
    <glyph glyph-name="lessequal" unicode="&#x2264;" horiz-adv-x="371" 
d="M322 144l-273 113c-6 2 -10 7 -10 14v22c0 7 4 12 10 14l273 113c6 2 10 0 10 -6v-31c0 -6 -3 -10 -10 -13l-216 -87v-2l216 -87c7 -3 10 -7 10 -13v-30c0 -6 -4 -9 -10 -7zM322 0h-273c-6 0 -10 4 -10 10v26c0 6 4 10 10 10h273c6 0 10 -4 10 -10v-26
c0 -6 -4 -10 -10 -10z" />
    <glyph glyph-name="greaterequal" unicode="&#x2265;" horiz-adv-x="371" 
d="M49 144c-5 -2 -10 1 -10 7v30c0 6 3 10 10 13l217 87v2l-217 87c-7 3 -10 7 -10 13v31c0 6 5 8 10 6l273 -113c6 -2 10 -7 10 -14v-22c0 -7 -4 -12 -10 -14zM322 0h-273c-6 0 -10 4 -10 10v26c0 6 4 10 10 10h273c6 0 10 -4 10 -10v-26c0 -6 -4 -10 -10 -10z" />
    <glyph glyph-name="logicalnot" unicode="&#xac;" horiz-adv-x="371" 
d="M322 154h-27c-6 0 -10 4 -10 10v83c0 4 -2 6 -6 6h-230c-6 0 -10 4 -10 10v26c0 6 4 10 10 10h273c6 0 10 -4 10 -10v-125c0 -6 -4 -10 -10 -10z" />
    <glyph glyph-name="Delta" unicode="&#x394;" horiz-adv-x="388" 
d="M354 0h-319c-6 0 -11 4 -10 10l143 660c2 6 5 10 11 10h33c6 0 10 -4 11 -10l140 -660c1 -6 -3 -10 -9 -10zM298 49c4 0 6 2 5 6l-107 512h-2l-108 -512c-1 -4 0 -6 4 -6h208z" />
    <glyph glyph-name="Delta" unicode="&#x2206;" horiz-adv-x="388" 
d="M354 0h-319c-6 0 -11 4 -10 10l143 660c2 6 5 10 11 10h33c6 0 10 -4 11 -10l140 -660c1 -6 -3 -10 -9 -10zM298 49c4 0 6 2 5 6l-107 512h-2l-108 -512c-1 -4 0 -6 4 -6h208z" />
    <glyph glyph-name="uni0394" horiz-adv-x="388" 
d="M354 0h-319c-6 0 -11 4 -10 10l143 660c2 6 5 10 11 10h33c6 0 10 -4 11 -10l140 -660c1 -6 -3 -10 -9 -10zM298 49c4 0 6 2 5 6l-107 512h-2l-108 -512c-1 -4 0 -6 4 -6h208z" />
    <glyph glyph-name="Omega" unicode="&#x3a9;" horiz-adv-x="414" 
d="M351 0h-104c-6 0 -10 4 -10 10v28c0 6 3 9 10 13c53 36 60 58 60 289c0 195 -3 215 -11 238c-13 41 -45 61 -89 61c-43 0 -75 -20 -89 -61c-7 -23 -10 -43 -10 -238c0 -231 6 -253 60 -289c7 -4 10 -7 10 -13v-28c0 -6 -4 -10 -10 -10h-105c-6 0 -10 4 -10 10v29
c0 6 4 10 10 10h45v1c-41 36 -52 66 -52 290c0 199 3 224 13 254c19 62 69 94 138 94c70 0 119 -32 139 -94c10 -30 13 -55 13 -254c0 -224 -11 -254 -52 -290v-1h44c6 0 10 -4 10 -10v-29c0 -6 -4 -10 -10 -10z" />
    <glyph glyph-name="Omega" unicode="&#x2126;" horiz-adv-x="414" 
d="M351 0h-104c-6 0 -10 4 -10 10v28c0 6 3 9 10 13c53 36 60 58 60 289c0 195 -3 215 -11 238c-13 41 -45 61 -89 61c-43 0 -75 -20 -89 -61c-7 -23 -10 -43 -10 -238c0 -231 6 -253 60 -289c7 -4 10 -7 10 -13v-28c0 -6 -4 -10 -10 -10h-105c-6 0 -10 4 -10 10v29
c0 6 4 10 10 10h45v1c-41 36 -52 66 -52 290c0 199 3 224 13 254c19 62 69 94 138 94c70 0 119 -32 139 -94c10 -30 13 -55 13 -254c0 -224 -11 -254 -52 -290v-1h44c6 0 10 -4 10 -10v-29c0 -6 -4 -10 -10 -10z" />
    <glyph glyph-name="uni03A9" horiz-adv-x="414" 
d="M351 0h-104c-6 0 -10 4 -10 10v28c0 6 3 9 10 13c53 36 60 58 60 289c0 195 -3 215 -11 238c-13 41 -45 61 -89 61c-43 0 -75 -20 -89 -61c-7 -23 -10 -43 -10 -238c0 -231 6 -253 60 -289c7 -4 10 -7 10 -13v-28c0 -6 -4 -10 -10 -10h-105c-6 0 -10 4 -10 10v29
c0 6 4 10 10 10h45v1c-41 36 -52 66 -52 290c0 199 3 224 13 254c19 62 69 94 138 94c70 0 119 -32 139 -94c10 -30 13 -55 13 -254c0 -224 -11 -254 -52 -290v-1h44c6 0 10 -4 10 -10v-29c0 -6 -4 -10 -10 -10z" />
    <glyph glyph-name="mu" unicode="&#xb5;" horiz-adv-x="381" 
d="M305 0h-29c-6 0 -10 4 -10 10v39h-1c-11 -32 -39 -57 -85 -57c-28 0 -54 10 -65 32v-194c0 -6 -4 -10 -10 -10h-29c-6 0 -10 4 -10 10v637c0 6 4 10 10 10h29c6 0 10 -4 10 -10v-323c0 -70 21 -106 75 -106c47 0 76 33 76 106v323c0 6 4 10 10 10h29c6 0 10 -4 10 -10
v-457c0 -6 -4 -10 -10 -10z" />
    <glyph glyph-name="mu" unicode="&#x3bc;" horiz-adv-x="381" 
d="M305 0h-29c-6 0 -10 4 -10 10v39h-1c-11 -32 -39 -57 -85 -57c-28 0 -54 10 -65 32v-194c0 -6 -4 -10 -10 -10h-29c-6 0 -10 4 -10 10v637c0 6 4 10 10 10h29c6 0 10 -4 10 -10v-323c0 -70 21 -106 75 -106c47 0 76 33 76 106v323c0 6 4 10 10 10h29c6 0 10 -4 10 -10
v-457c0 -6 -4 -10 -10 -10z" />
    <glyph glyph-name="uni03BC" horiz-adv-x="381" 
d="M305 0h-29c-6 0 -10 4 -10 10v39h-1c-11 -32 -39 -57 -85 -57c-28 0 -54 10 -65 32v-194c0 -6 -4 -10 -10 -10h-29c-6 0 -10 4 -10 10v637c0 6 4 10 10 10h29c6 0 10 -4 10 -10v-323c0 -70 21 -106 75 -106c47 0 76 33 76 106v323c0 6 4 10 10 10h29c6 0 10 -4 10 -10
v-457c0 -6 -4 -10 -10 -10z" />
    <glyph glyph-name="pi" unicode="&#x3c0;" horiz-adv-x="381" 
d="M345 -6h-6c-50 0 -71 24 -71 80v350c0 4 -2 6 -6 6h-137c-4 0 -6 -2 -6 -6v-414c0 -6 -4 -10 -10 -10h-30c-6 0 -10 4 -10 10v414c0 4 -3 6 -7 6h-31c-6 0 -10 4 -10 10v27c0 6 4 10 10 10h324c6 0 10 -4 10 -10v-27c0 -6 -4 -10 -10 -10h-32c-4 0 -6 -2 -6 -6v-352
c0 -24 8 -31 24 -31h4c6 0 10 -4 10 -10v-27c0 -6 -4 -10 -10 -10z" />
    <glyph glyph-name="degree" unicode="&#xb0;" horiz-adv-x="320" 
d="M160 461c-63 0 -110 47 -110 110s47 110 110 110s110 -47 110 -110s-47 -110 -110 -110zM160 497c43 0 73 31 73 74s-30 74 -73 74s-72 -31 -72 -74s29 -74 72 -74z" />
    <glyph glyph-name="afii61289" unicode="&#x2113;" horiz-adv-x="355" 
d="M90 221c-3 -4 -10 -6 -15 -1l-15 14c-4 4 -4 11 0 15l61 71v211c0 109 29 157 85 157c49 0 76 -40 76 -109c0 -72 -30 -160 -111 -263v-235c0 -31 10 -44 30 -44c12 0 24 5 37 17c5 4 10 3 13 -1l13 -17c3 -4 2 -9 -2 -13c-19 -20 -45 -31 -71 -31c-44 0 -70 28 -70 93
v172zM171 545v-161c48 73 68 131 68 196c0 44 -12 67 -32 67c-23 0 -36 -29 -36 -102z" />
    <glyph glyph-name="estimated" unicode="&#x212e;" horiz-adv-x="595" 
d="M297 -8c-140 0 -230 110 -230 247c0 138 90 246 230 246c138 0 230 -101 231 -246h-360v-162c34 -33 78 -51 129 -51c73 0 127 32 171 107l32 -21c-55 -83 -110 -120 -203 -120zM427 272v128c-38 36 -80 55 -130 55c-51 0 -95 -19 -129 -55v-128h259z" />
    <glyph glyph-name="eng" unicode="&#x14b;" horiz-adv-x="380" 
d="M232 -180h-6c-6 0 -10 4 -10 10v27c0 6 4 10 10 10h6c25 1 37 13 37 44v421c0 69 -23 106 -77 106c-47 0 -77 -34 -77 -106v-322c0 -6 -4 -10 -10 -10h-29c-6 0 -10 4 -10 10v457c0 6 4 10 10 10h29c6 0 10 -4 10 -10v-39h1c13 31 41 57 91 57c75 0 111 -48 111 -145
v-428c0 -63 -28 -92 -86 -92z" />
    <glyph glyph-name="Eng" unicode="&#x14a;" horiz-adv-x="441" 
d="M267 -180h-7c-6 0 -10 4 -10 10v29c0 6 4 10 10 10h7c38 1 55 18 55 60v53l-203 585h-3v-557c0 -6 -4 -10 -10 -10h-28c-6 0 -10 4 -10 10v660c0 6 4 10 10 10h39c8 0 14 -2 17 -10l188 -550h3v550c0 6 4 10 10 10h28c6 0 10 -4 10 -10v-736c0 -80 -34 -114 -106 -114z
" />
    <glyph glyph-name="infinity" unicode="&#x221e;" horiz-adv-x="628" 
d="M472 104c-69 0 -112 42 -158 107c-57 -78 -100 -107 -158 -107c-83 0 -137 59 -137 143c0 89 59 144 137 144c66 0 108 -40 158 -108c57 78 100 108 158 108c83 0 137 -59 137 -144c0 -88 -59 -143 -137 -143zM471 145c56 0 95 40 95 103c0 60 -38 102 -95 102
c-42 0 -76 -22 -133 -103c48 -68 83 -102 133 -102zM156 145c42 0 76 21 133 102c-47 68 -83 103 -132 103c-56 0 -95 -39 -95 -102c0 -60 37 -103 94 -103z" />
    <glyph glyph-name="partialdiff" unicode="&#x2202;" horiz-adv-x="407" 
d="M184 -8c-88 0 -134 86 -134 205c0 132 56 224 151 224c41 0 80 -16 108 -63h1c2 171 -39 284 -129 284c-27 0 -53 -11 -74 -27c-5 -4 -10 -3 -14 2l-14 20c-3 5 -2 10 3 14c30 23 62 37 104 37c113 0 171 -116 171 -319c0 -234 -51 -377 -173 -377zM189 38
c66 0 110 78 119 257c-22 50 -59 81 -99 81c-71 0 -112 -67 -112 -175c0 -90 24 -163 92 -163z" />
    <glyph glyph-name="integral" unicode="&#x222b;" horiz-adv-x="269" 
d="M48 -180h-10c-6 1 -10 4 -10 10v29c0 6 4 10 10 10h8c44 0 63 21 63 85v648c0 93 34 138 111 138h11c6 -1 10 -4 10 -10v-29c0 -6 -4 -10 -10 -10h-8c-44 0 -63 -21 -63 -85v-648c0 -93 -34 -138 -112 -138z" />
    <glyph glyph-name="radical" unicode="&#x221a;" horiz-adv-x="531" 
d="M285 -180h-25c-6 0 -10 4 -12 10l-116 291c-2 4 -5 5 -9 3l-61 -26c-7 -3 -11 -1 -13 4l-10 22c-3 7 -1 11 4 13l101 45c6 3 11 1 14 -4l109 -278h2l196 830c2 6 6 10 12 10h28c6 0 10 -4 8 -10l-216 -900c-2 -6 -6 -10 -12 -10z" />
    <glyph glyph-name="summation" unicode="&#x2211;" horiz-adv-x="425" 
d="M382 -180h-339c-6 0 -10 4 -10 10v29c0 4 1 7 2 9l176 455l-171 366c-2 4 -3 7 -3 11v30c0 6 4 10 10 10h325c6 0 10 -4 10 -10v-29c0 -6 -4 -10 -10 -10h-277l169 -358c2 -5 2 -9 0 -14l-176 -450h294c6 0 10 -4 10 -10v-29c0 -6 -4 -10 -10 -10z" />
    <glyph glyph-name="product" unicode="&#x220f;" horiz-adv-x="496" 
d="M421 -180h-32c-6 0 -10 4 -10 10v855c0 4 -2 6 -6 6h-250c-4 0 -6 -2 -6 -6v-855c0 -6 -4 -10 -10 -10h-32c-6 0 -10 4 -10 10v900c0 6 4 10 10 10h346c6 0 10 -4 10 -10v-900c0 -6 -4 -10 -10 -10z" />
    <glyph glyph-name="lozenge" unicode="&#x25ca;" horiz-adv-x="409" 
d="M179 -42l-150 364c-2 5 -2 9 0 14l150 364c3 7 6 10 13 10h25c7 0 10 -3 13 -10l150 -364c2 -5 2 -9 0 -14l-150 -364c-3 -7 -6 -10 -13 -10h-25c-7 0 -10 3 -13 10zM205 12h2l126 317l-128 316h-2l-127 -316z" />
    <glyph glyph-name="uniF8FF" unicode="&#xf8ff;" horiz-adv-x="361" 
d="M351 0h-341c-6 0 -10 4 -10 10v660c0 6 4 10 10 10h341c6 0 10 -4 10 -10v-660c0 -6 -4 -10 -10 -10zM318 35c4 0 6 2 6 6v598c0 4 -2 6 -6 6h-275c-4 0 -6 -2 -6 -6v-598c0 -4 2 -6 6 -6h275zM192 221h-18c-6 0 -10 4 -10 10v47c0 17 3 29 11 45l35 67
c14 28 19 41 19 71c0 18 -1 28 -4 37c-7 21 -22 30 -43 30c-22 0 -37 -9 -43 -30c-3 -9 -4 -18 -4 -48c0 -6 -5 -9 -11 -8l-18 2c-6 1 -9 5 -9 11c0 33 3 45 6 54c11 33 38 54 79 54s69 -21 79 -54c3 -9 6 -23 6 -47c0 -35 -6 -51 -21 -82l-35 -67c-7 -12 -9 -21 -9 -36v-46
c0 -6 -4 -10 -10 -10zM197 115h-28c-6 0 -10 4 -10 10v37c0 6 4 10 10 10h28c6 0 10 -4 10 -10v-37c0 -6 -4 -10 -10 -10z" />
    <glyph glyph-name="exclam.sc" horiz-adv-x="177" 
d="M97 170h-18c-6 0 -10 4 -10 10l-8 326c0 6 4 10 10 10h34c6 0 10 -4 10 -10l-8 -326c0 -6 -4 -10 -10 -10zM111 0h-45c-6 0 -10 4 -10 10v65c0 6 4 10 10 10h45c6 0 10 -4 10 -10v-65c0 -6 -4 -10 -10 -10z" />
    <glyph glyph-name="dollar.sc" horiz-adv-x="344" 
d="M178 -60h-10c-6 0 -10 4 -10 10v43c-76 5 -111 49 -115 128c-1 6 2 10 8 11l26 4c6 1 10 -2 10 -8c4 -57 23 -87 71 -92v212l-8 3c-73 23 -100 60 -100 140c0 85 39 129 108 133v27c0 6 4 10 10 10h10c6 0 10 -4 10 -10v-27c66 -6 101 -48 104 -120c1 -7 -1 -11 -7 -12
l-24 -3c-6 -1 -11 2 -11 8c-4 49 -22 76 -62 81v-189l8 -2c76 -25 102 -63 102 -150c0 -93 -34 -138 -110 -144v-43c0 -6 -4 -10 -10 -10zM96 393c0 -54 15 -78 62 -94v180c-42 -4 -62 -31 -62 -86zM251 136c0 58 -16 86 -63 103v-203c44 5 63 30 63 100z" />
    <glyph glyph-name="percent.sc" horiz-adv-x="578" 
d="M207 -8h-21c-6 0 -10 4 -8 10l180 512c3 7 7 10 13 10h21c6 0 9 -4 7 -10l-180 -512c-2 -7 -6 -10 -12 -10zM141 253c-37 0 -64 19 -73 49c-4 13 -6 25 -6 85s2 72 6 85c9 30 36 49 73 49c36 0 63 -19 72 -49c5 -13 6 -25 6 -85s-1 -72 -6 -85c-9 -30 -36 -49 -72 -49z
M141 289c17 0 30 9 35 25c3 8 4 18 4 73s-1 65 -4 74c-5 15 -18 24 -35 24c-18 0 -31 -9 -36 -24c-2 -9 -3 -19 -3 -74s1 -65 3 -73c5 -16 18 -25 36 -25zM437 -5c-37 0 -63 19 -73 49c-4 13 -6 25 -6 85s2 72 6 85c10 30 36 49 73 49s63 -19 73 -49c4 -13 5 -25 5 -85
s-1 -72 -5 -85c-10 -30 -36 -49 -73 -49zM437 31c17 0 30 9 35 25c3 8 4 18 4 73s-1 65 -4 73c-5 16 -18 25 -35 25c-18 0 -30 -9 -35 -25c-3 -8 -4 -18 -4 -73s1 -65 4 -73c5 -16 17 -25 35 -25z" />
    <glyph glyph-name="ampersand.sc" horiz-adv-x="474" 
d="M412 -3h-12c-25 0 -36 7 -52 30l-29 42c-36 -49 -74 -77 -127 -77c-72 0 -115 46 -115 112c0 50 26 94 101 174l-14 21c-36 53 -53 85 -53 121c0 61 43 105 106 105c64 0 106 -44 106 -105c0 -42 -20 -73 -87 -145l85 -125l42 71c3 5 7 7 13 4l20 -13c6 -3 7 -8 4 -13
l-53 -88l34 -48c11 -17 18 -20 28 -20h3c6 0 10 -4 10 -10v-25c0 -6 -4 -11 -10 -11zM158 421c0 -29 13 -51 52 -108c54 58 66 76 66 108c0 36 -23 62 -59 62c-35 0 -59 -26 -59 -62zM195 37c36 0 65 19 99 69l-91 135c-61 -65 -78 -95 -78 -133c0 -44 26 -71 70 -71z" />
    <glyph glyph-name="zero.sc" horiz-adv-x="344" 
d="M172 -8c-55 0 -95 28 -110 76c-6 19 -8 40 -8 190c0 151 2 172 8 191c15 48 55 76 110 76s95 -28 110 -76c6 -19 8 -40 8 -191c0 -150 -2 -171 -8 -190c-15 -48 -55 -76 -110 -76zM172 39c31 0 53 15 63 44c3 11 6 26 6 175s-3 165 -6 176c-10 28 -32 44 -63 44
s-53 -16 -63 -44c-3 -11 -6 -27 -6 -176s3 -164 6 -175c10 -29 32 -44 63 -44z" />
    <glyph glyph-name="one.sc" horiz-adv-x="344" 
d="M205 0h-29c-6 0 -10 4 -10 10v445h-2l-76 -50c-6 -3 -11 -1 -11 7v33c0 6 2 10 7 14l76 52c5 3 10 5 16 5h29c6 0 10 -4 10 -10v-496c0 -6 -4 -10 -10 -10z" />
    <glyph glyph-name="two.sc" horiz-adv-x="344" 
d="M279 0h-215c-5 0 -9 4 -9 9v27c0 6 0 9 3 12l151 234c24 37 31 56 31 106c0 27 -2 37 -6 48c-9 28 -31 42 -63 42c-31 0 -53 -14 -63 -42c-3 -11 -5 -20 -5 -49c0 -6 -4 -10 -11 -9l-28 3c-6 1 -9 5 -9 12c0 28 1 41 6 57c16 48 56 75 110 75c55 0 95 -27 111 -75
c5 -16 7 -30 7 -62c0 -62 -11 -91 -42 -138l-134 -202v-1h166c6 0 10 -4 10 -10v-27c0 -6 -4 -10 -10 -10z" />
    <glyph glyph-name="three.sc" horiz-adv-x="344" 
d="M171 -8c-54 0 -94 27 -110 74c-5 16 -6 30 -6 51c0 7 3 11 9 12l28 3c7 1 11 -3 11 -9c0 -22 2 -31 5 -42c10 -28 32 -42 63 -42c32 0 54 14 63 42c4 11 6 20 6 62s-1 53 -4 61c-9 27 -31 41 -68 41h-14c-6 0 -10 4 -10 10v27c0 6 4 10 10 10h14c37 0 59 14 68 40
c3 8 4 18 4 52c0 31 -2 41 -6 52c-9 28 -31 42 -63 42c-31 0 -53 -14 -63 -42c-3 -11 -5 -21 -5 -41c0 -7 -4 -11 -11 -10l-28 3c-6 1 -9 5 -9 12c0 21 1 34 6 50c16 48 56 75 110 75c55 0 95 -27 111 -75c5 -16 7 -29 7 -66s-2 -50 -6 -62c-8 -24 -24 -41 -48 -52v-1
c24 -11 40 -28 48 -52c4 -12 6 -25 6 -74c0 -46 -2 -60 -7 -77c-16 -47 -56 -74 -111 -74z" />
    <glyph glyph-name="four.sc" horiz-adv-x="344" 
d="M242 0h-29c-6 0 -10 4 -10 10v73c0 4 -2 6 -6 6h-158c-6 0 -10 4 -10 10v27c0 4 1 9 2 12l124 370c2 6 5 8 12 8h30c6 0 9 -4 7 -11l-123 -367v-2h116c4 0 6 2 6 6v145c0 6 4 10 10 10h29c6 0 10 -4 10 -10v-145c0 -4 2 -6 6 -6h47c6 0 10 -4 10 -10v-27
c0 -6 -4 -10 -10 -10h-47c-4 0 -6 -2 -6 -6v-73c0 -6 -4 -10 -10 -10z" />
    <glyph glyph-name="five.sc" horiz-adv-x="344" 
d="M171 -8c-55 0 -94 26 -110 74c-4 14 -6 26 -6 46c0 7 3 11 9 12l28 3c7 1 11 -3 12 -9c0 -19 2 -27 5 -37c9 -29 31 -42 63 -42c31 0 53 13 62 41c4 11 6 21 6 83c0 61 -3 72 -7 83c-9 28 -30 40 -61 40c-28 0 -48 -10 -60 -25c-5 -6 -8 -8 -15 -8h-26c-6 0 -10 4 -10 10
v243c0 6 4 10 10 10h208c6 0 10 -4 10 -10v-27c0 -6 -4 -10 -10 -10h-165c-4 0 -6 -2 -6 -6v-155h1c15 15 39 25 71 25c51 0 87 -25 101 -69c5 -17 8 -33 8 -101c0 -66 -2 -81 -7 -98c-16 -47 -56 -73 -111 -73z" />
    <glyph glyph-name="six.sc" horiz-adv-x="344" 
d="M172 -8c-55 0 -95 27 -110 74c-5 17 -8 31 -8 80c0 74 7 100 29 148l98 214c3 6 7 8 13 8h33c6 0 8 -4 5 -10l-100 -214l2 -1c7 5 26 10 45 10c52 0 88 -26 103 -71c5 -17 8 -33 8 -84c0 -49 -3 -63 -8 -80c-15 -47 -55 -74 -110 -74zM172 39c32 0 53 14 63 42
c3 11 5 20 5 65s-2 55 -5 66c-10 28 -31 42 -63 42s-53 -14 -63 -42c-3 -11 -5 -21 -5 -66s2 -54 5 -65c10 -28 31 -42 63 -42z" />
    <glyph glyph-name="seven.sc" horiz-adv-x="344" 
d="M127 0h-30c-6 0 -9 4 -7 12l161 456v1h-143c-4 0 -6 -2 -6 -6v-57c0 -6 -4 -10 -10 -10h-27c-6 0 -10 4 -10 10v100c0 6 4 10 10 10h226c6 0 10 -4 10 -10v-29c0 -4 -1 -8 -2 -13l-159 -454c-2 -7 -5 -10 -13 -10z" />
    <glyph glyph-name="eight.sc" horiz-adv-x="344" 
d="M172 -8c-55 0 -95 27 -110 74c-5 17 -8 31 -8 77c0 44 3 57 7 72c8 24 22 44 42 55v1c-20 12 -34 30 -42 54c-4 15 -7 29 -7 61c0 33 3 48 8 64c15 48 55 75 110 75s95 -27 110 -75c5 -16 8 -31 8 -64c0 -32 -3 -46 -7 -61c-8 -24 -22 -42 -42 -54v-1
c20 -11 34 -31 42 -55c4 -15 7 -28 7 -72c0 -46 -3 -60 -8 -77c-15 -47 -55 -74 -110 -74zM172 294c32 0 53 14 63 42c3 11 5 20 5 50c0 29 -2 39 -5 50c-10 28 -31 42 -63 42s-53 -14 -63 -42c-3 -11 -5 -21 -5 -50c0 -30 2 -39 5 -50c10 -28 31 -42 63 -42zM172 39
c32 0 53 14 63 42c3 11 5 20 5 62s-2 51 -5 62c-10 28 -31 42 -63 42s-53 -14 -63 -42c-3 -11 -5 -20 -5 -62s2 -51 5 -62c10 -28 31 -42 63 -42z" />
    <glyph glyph-name="nine.sc" horiz-adv-x="344" 
d="M150 0h-33c-6 0 -8 4 -5 10l100 215h-2c-7 -4 -26 -9 -45 -9c-52 0 -88 25 -103 71c-5 16 -8 32 -8 83c0 49 3 64 8 80c15 48 55 75 110 75s95 -27 110 -75c5 -16 8 -31 8 -80c0 -73 -7 -99 -29 -148l-98 -213c-3 -6 -7 -9 -13 -9zM172 263c32 0 53 14 63 42
c3 11 5 20 5 65s-2 55 -5 66c-10 28 -31 42 -63 42s-53 -14 -63 -42c-3 -11 -5 -21 -5 -66s2 -54 5 -65c10 -28 31 -42 63 -42z" />
    <glyph glyph-name="question.sc" horiz-adv-x="283" 
d="M155 141h-30c-6 0 -10 4 -10 10v43c0 22 3 36 14 54l48 73c20 30 26 45 26 79c0 19 -2 31 -6 39c-8 24 -27 39 -60 39c-29 0 -49 -14 -59 -39c-3 -9 -6 -19 -6 -51c0 -6 -4 -10 -11 -9l-29 4c-6 1 -9 4 -9 11c0 36 4 49 9 63c15 42 53 68 106 68c54 0 92 -25 107 -69
c4 -13 8 -30 8 -54c0 -41 -9 -63 -29 -95l-47 -71c-9 -14 -12 -26 -12 -44v-41c0 -6 -4 -10 -10 -10zM162 0h-45c-6 0 -10 4 -10 10v65c0 6 4 10 10 10h45c6 0 10 -4 10 -10v-65c0 -6 -4 -10 -10 -10z" />
    <glyph glyph-name="a.sc" horiz-adv-x="346" 
d="M317 0h-30c-6 0 -9 3 -11 10l-28 114h-149l-28 -114c-2 -7 -5 -10 -12 -10h-30c-6 0 -10 3 -8 10l126 496c2 7 5 10 11 10h31c6 0 10 -3 12 -10l124 -496c2 -7 -1 -10 -8 -10zM172 422l-62 -252h127l-62 252h-3z" />
    <glyph glyph-name="b.sc" 
d="M169 0h-92c-6 0 -10 4 -10 10v496c0 6 4 10 10 10h99c103 0 141 -36 141 -130c0 -68 -23 -102 -69 -116v-1c47 -13 75 -46 75 -125c0 -106 -47 -144 -154 -144zM176 289c59 0 90 23 90 90c0 69 -23 91 -92 91h-52c-4 0 -6 -2 -6 -6v-169c0 -4 2 -6 6 -6h54zM170 46
c75 0 103 22 103 99c0 75 -31 98 -98 98h-53c-4 0 -6 -2 -6 -6v-185c0 -4 2 -6 6 -6h48z" />
    <glyph glyph-name="c.sc" horiz-adv-x="351" 
d="M185 -8c-63 0 -101 33 -119 86c-7 23 -11 48 -11 180s4 157 11 180c18 54 56 87 119 87c71 0 117 -40 128 -116c1 -5 -1 -10 -8 -12l-26 -5c-6 -2 -11 2 -12 8c-10 53 -38 78 -81 78c-36 0 -61 -19 -73 -54c-5 -17 -9 -38 -9 -166c0 -127 4 -149 9 -165
c12 -36 37 -54 73 -54c43 0 71 25 81 78c1 6 6 9 12 7l26 -5c7 -2 9 -6 8 -12c-11 -75 -57 -115 -128 -115z" />
    <glyph glyph-name="d.sc" horiz-adv-x="389" 
d="M191 0h-114c-6 0 -10 4 -10 10v496c0 6 4 10 10 10h114c73 0 113 -29 130 -84c10 -27 13 -62 13 -174s-3 -146 -13 -173c-17 -56 -57 -85 -130 -85zM184 47c50 0 77 18 90 57c8 23 10 51 10 154s-2 132 -10 154c-13 40 -40 57 -90 57h-62c-4 0 -6 -2 -6 -6v-410
c0 -4 2 -6 6 -6h62z" />
    <glyph glyph-name="e.sc" horiz-adv-x="326" 
d="M285 0h-208c-6 0 -10 4 -10 10v496c0 6 4 10 10 10h208c6 0 10 -4 10 -10v-27c0 -6 -4 -10 -10 -10h-163c-4 0 -6 -2 -6 -6v-172c0 -4 2 -6 6 -6h142c6 0 10 -4 10 -10v-27c0 -6 -4 -10 -10 -10h-142c-4 0 -6 -2 -6 -6v-179c0 -4 2 -6 6 -6h163c6 0 10 -4 10 -10v-27
c0 -6 -4 -10 -10 -10z" />
    <glyph glyph-name="f.sc" horiz-adv-x="324" 
d="M106 0h-29c-6 0 -10 4 -10 10v496c0 6 4 10 10 10h208c6 0 10 -4 10 -10v-27c0 -6 -4 -10 -10 -10h-163c-4 0 -6 -2 -6 -6v-174c0 -4 2 -6 6 -6h142c6 0 10 -4 10 -10v-27c0 -6 -4 -10 -10 -10h-142c-4 0 -6 -2 -6 -6v-220c0 -6 -4 -10 -10 -10z" />
    <glyph glyph-name="g.sc" horiz-adv-x="379" 
d="M189 -8c-64 0 -105 32 -123 86c-8 23 -11 48 -11 180s3 158 11 181c18 54 59 86 123 86c76 0 122 -42 132 -113c1 -5 -1 -10 -7 -12l-27 -5c-6 -2 -11 1 -12 7c-10 50 -37 76 -85 76c-40 0 -65 -18 -77 -54c-5 -16 -9 -38 -9 -166c0 -127 3 -149 9 -166
c11 -36 38 -53 77 -53s66 17 78 53c5 17 8 39 8 130c0 4 -2 6 -6 6h-70c-6 0 -10 4 -10 10v26c0 6 4 10 10 10h114c6 0 10 -4 10 -10v-14c0 -124 -3 -149 -10 -172c-17 -54 -60 -86 -125 -86z" />
    <glyph glyph-name="h.sc" horiz-adv-x="401" 
d="M324 0h-29c-6 0 -10 4 -10 10v226c0 4 -2 6 -6 6h-157c-4 0 -6 -2 -6 -6v-226c0 -6 -4 -10 -10 -10h-29c-6 0 -10 4 -10 10v496c0 6 4 10 10 10h29c6 0 10 -4 10 -10v-211c0 -4 2 -6 6 -6h157c4 0 6 2 6 6v211c0 6 4 10 10 10h29c6 0 10 -4 10 -10v-496
c0 -6 -4 -10 -10 -10z" />
    <glyph glyph-name="i.sc" horiz-adv-x="183" 
d="M106 0h-29c-6 0 -10 4 -10 10v496c0 6 4 10 10 10h29c6 0 10 -4 10 -10v-496c0 -6 -4 -10 -10 -10z" />
    <glyph glyph-name="j.sc" horiz-adv-x="302" 
d="M117 -8c-36 0 -66 12 -84 30c-4 4 -4 9 1 14l20 19c5 5 10 4 15 0c12 -9 29 -16 48 -16c43 0 70 22 70 75v392c0 6 4 10 10 10h30c6 0 10 -4 10 -10v-390c0 -83 -47 -124 -120 -124z" />
    <glyph glyph-name="k.sc" horiz-adv-x="369" 
d="M336 0h-35c-6 0 -9 3 -11 8l-115 257l-59 -100v-155c0 -6 -4 -10 -10 -10h-29c-6 0 -10 4 -10 10v496c0 6 4 10 10 10h29c6 0 10 -4 10 -10v-259l154 262c3 5 6 7 13 7h34c5 0 8 -4 5 -9l-118 -194l137 -303c3 -6 1 -10 -5 -10z" />
    <glyph glyph-name="l.sc" horiz-adv-x="312" 
d="M277 0h-200c-6 0 -10 4 -10 10v496c0 6 4 10 10 10h29c6 0 10 -4 10 -10v-453c0 -4 2 -6 6 -6h155c6 0 10 -4 10 -10v-27c0 -6 -4 -10 -10 -10z" />
    <glyph glyph-name="m.sc" horiz-adv-x="483" 
d="M406 0h-27c-6 0 -10 4 -10 10v383h-2l-105 -291c-2 -7 -5 -10 -11 -10h-19c-7 0 -10 3 -12 10l-103 291h-3v-383c0 -6 -4 -10 -10 -10h-27c-6 0 -10 4 -10 10v496c0 6 4 10 10 10h32c6 0 11 -3 13 -10l119 -335h2l119 335c2 7 6 10 13 10h31c6 0 10 -4 10 -10v-496
c0 -6 -4 -10 -10 -10z" />
    <glyph glyph-name="n.sc" horiz-adv-x="409" 
d="M332 0h-36c-8 0 -13 2 -16 10l-165 411h-2v-411c0 -6 -4 -10 -10 -10h-26c-6 0 -10 4 -10 10v496c0 6 4 10 10 10h37c9 0 14 -3 16 -10l163 -410h3v410c0 6 4 10 10 10h26c6 0 10 -4 10 -10v-496c0 -6 -4 -10 -10 -10z" />
    <glyph glyph-name="o.sc" horiz-adv-x="380" 
d="M190 -8c-64 0 -107 32 -124 86c-8 23 -11 48 -11 180s3 158 11 181c17 54 60 86 124 86c65 0 108 -32 125 -86c7 -23 10 -49 10 -181s-3 -157 -10 -180c-17 -54 -60 -86 -125 -86zM276 258c0 128 -4 150 -9 166c-12 36 -38 54 -77 54s-65 -18 -77 -54
c-5 -16 -9 -38 -9 -166c0 -127 4 -149 9 -165c12 -36 38 -54 77 -54s65 18 77 54c5 16 9 38 9 165z" />
    <glyph glyph-name="p.sc" horiz-adv-x="357" 
d="M106 0h-29c-6 0 -10 4 -10 10v496c0 6 4 10 10 10h101c93 0 145 -43 145 -151c0 -107 -53 -152 -145 -152h-56c-4 0 -6 -2 -6 -6v-197c0 -6 -4 -10 -10 -10zM174 259c68 0 100 25 100 106c0 80 -32 105 -100 105h-52c-4 0 -6 -2 -6 -6v-199c0 -4 2 -6 6 -6h52z" />
    <glyph glyph-name="q.sc" horiz-adv-x="380" 
d="M338 0l-16 -16c-4 -3 -9 -3 -13 2l-31 33c-22 -19 -52 -29 -88 -29c-64 0 -107 33 -124 86c-8 22 -11 48 -11 182s3 161 11 183c17 52 60 85 124 85s108 -33 125 -85c7 -22 10 -49 10 -183s-3 -160 -10 -182c-3 -9 -7 -18 -11 -25l34 -37c5 -5 4 -10 0 -14zM190 37
c22 0 41 6 55 18l-41 46c-4 5 -4 10 0 14l16 15c4 3 9 3 13 -2l34 -38l1 1c4 14 8 36 8 167s-4 154 -8 168c-12 35 -39 53 -78 53s-65 -18 -77 -53c-4 -14 -8 -37 -8 -168s4 -153 8 -167c12 -35 38 -54 77 -54z" />
    <glyph glyph-name="r.sc" horiz-adv-x="374" 
d="M322 0h-33c-7 0 -10 3 -12 9l-75 217c-8 -1 -17 -1 -26 -1h-53c-4 0 -6 -2 -6 -6v-209c0 -6 -4 -10 -10 -10h-30c-6 0 -10 4 -10 10v496c0 6 4 10 10 10h99c96 0 145 -46 145 -145c0 -70 -26 -114 -74 -134l81 -227c2 -6 0 -10 -6 -10zM173 272c70 0 98 27 98 99
c0 71 -28 99 -98 99h-50c-4 0 -6 -2 -6 -6v-186c0 -4 2 -6 6 -6h50z" />
    <glyph glyph-name="s.sc" horiz-adv-x="348" 
d="M177 -8c-87 0 -127 47 -134 131c0 6 2 10 8 11l28 5c6 1 10 -1 11 -9c6 -64 33 -92 86 -92s80 24 80 102c0 58 -17 82 -67 99l-37 12c-76 25 -101 59 -101 140c0 85 45 134 123 134c79 0 120 -42 126 -121c1 -8 -2 -11 -8 -12l-27 -4c-6 -1 -10 3 -11 9
c-6 57 -29 82 -79 82c-51 0 -75 -29 -75 -88c0 -52 17 -76 66 -93l37 -12c77 -24 102 -60 102 -145c0 -102 -41 -149 -128 -149z" />
    <glyph glyph-name="t.sc" horiz-adv-x="330" 
d="M180 0h-30c-6 0 -10 4 -10 10v453c0 4 -2 6 -6 6h-106c-6 0 -10 4 -10 10v27c0 6 4 10 10 10h274c6 0 10 -4 10 -10v-27c0 -6 -4 -10 -10 -10h-106c-4 0 -6 -2 -6 -6v-453c0 -6 -4 -10 -10 -10z" />
    <glyph glyph-name="u.sc" horiz-adv-x="396" 
d="M198 -8c-80 0 -133 50 -133 141v373c0 6 4 10 10 10h30c6 0 10 -4 10 -10v-372c0 -63 31 -95 83 -95s83 32 83 95v372c0 6 4 10 10 10h30c6 0 10 -4 10 -10v-373c0 -91 -53 -141 -133 -141z" />
    <glyph glyph-name="v.sc" horiz-adv-x="343" 
d="M186 0h-29c-6 0 -9 4 -10 10l-119 496c-1 6 1 10 8 10h31c6 0 9 -3 10 -10l95 -403h1l93 403c1 7 5 10 11 10h30c7 0 9 -4 8 -10l-119 -496c-1 -6 -4 -10 -10 -10z" />
    <glyph glyph-name="w.sc" horiz-adv-x="515" 
d="M377 0h-27c-6 0 -9 4 -10 10l-81 396h-2l-82 -396c-1 -6 -4 -10 -10 -10h-27c-6 0 -9 4 -10 10l-98 496c-1 6 1 10 8 10h31c6 0 9 -3 10 -10l74 -398h2l80 398c1 7 4 10 10 10h25c6 0 10 -3 11 -10l81 -398h1l73 398c1 7 5 10 11 10h30c7 0 9 -4 8 -10l-98 -496
c-1 -6 -4 -10 -10 -10z" />
    <glyph glyph-name="x.sc" horiz-adv-x="354" 
d="M315 0h-33c-7 0 -10 2 -13 9l-91 201h-1l-92 -201c-3 -7 -6 -9 -12 -9h-33c-7 0 -10 4 -7 10l118 259l-107 237c-3 6 0 10 6 10h32c7 0 10 -2 13 -9l82 -181h1l82 181c3 7 6 9 13 9h31c7 0 10 -4 7 -10l-108 -237l118 -259c3 -6 0 -10 -6 -10z" />
    <glyph glyph-name="y.sc" horiz-adv-x="324" 
d="M177 0h-30c-6 0 -10 4 -10 10v208l-116 288c-2 6 0 10 7 10h33c6 0 9 -3 11 -10l90 -229h2l89 229c2 7 5 10 11 10h32c7 0 9 -4 7 -10l-116 -288v-208c0 -6 -4 -10 -10 -10z" />
    <glyph glyph-name="z.sc" horiz-adv-x="321" 
d="M277 0h-233c-6 0 -10 4 -10 10v27c0 5 1 9 3 13l196 418v1h-179c-6 0 -10 4 -10 10v27c0 6 4 10 10 10h221c6 0 10 -4 10 -10v-26c0 -6 -1 -9 -3 -14l-194 -418v-1h189c6 0 10 -4 10 -10v-27c0 -6 -4 -10 -10 -10z" />
    <glyph glyph-name="agrave.sc" horiz-adv-x="346" 
d="M186 599h-20c-8 0 -11 2 -17 10l-82 121c-3 5 -1 10 5 10h33c8 0 12 -3 16 -10l71 -121c3 -6 0 -10 -6 -10zM317 0h-30c-6 0 -9 3 -11 10l-28 114h-149l-28 -114c-2 -7 -5 -10 -12 -10h-30c-6 0 -10 3 -8 10l126 496c2 7 5 10 11 10h31c6 0 10 -3 12 -10l124 -496
c2 -7 -1 -10 -8 -10zM172 422l-62 -252h127l-62 252h-3z" />
    <glyph glyph-name="aacute.sc" horiz-adv-x="346" 
d="M317 0h-30c-6 0 -9 3 -11 10l-28 114h-149l-28 -114c-2 -7 -5 -10 -12 -10h-30c-6 0 -10 3 -8 10l126 496c2 7 5 10 11 10h31c6 0 10 -3 12 -10l124 -496c2 -7 -1 -10 -8 -10zM172 422l-62 -252h127l-62 252h-3zM182 599h-21c-6 0 -8 4 -5 10l71 121c4 7 8 10 16 10h32
c6 0 9 -5 5 -10l-81 -121c-6 -8 -9 -10 -17 -10z" />
    <glyph glyph-name="acircumflex.sc" horiz-adv-x="346" 
d="M317 0h-30c-6 0 -9 3 -11 10l-28 114h-149l-28 -114c-2 -7 -5 -10 -12 -10h-30c-6 0 -10 3 -8 10l126 496c2 7 5 10 11 10h31c6 0 10 -3 12 -10l124 -496c2 -7 -1 -10 -8 -10zM172 422l-62 -252h127l-62 252h-3zM270 599h-23c-7 0 -10 3 -15 10l-57 86h-2l-57 -86
c-5 -7 -8 -10 -16 -10h-22c-6 0 -9 4 -5 10l76 122c4 6 9 9 15 9h20c6 0 11 -3 15 -9l76 -122c4 -6 1 -10 -5 -10z" />
    <glyph glyph-name="atilde.sc" horiz-adv-x="346" 
d="M212 637c-19 0 -33 10 -45 20s-21 17 -33 17c-16 0 -26 -10 -39 -29c-5 -5 -12 -4 -12 3v30c0 6 2 10 8 16c11 14 25 23 44 23s33 -9 46 -20c12 -9 20 -16 32 -16c16 0 27 10 40 28c4 6 11 5 11 -2v-30c0 -6 -1 -10 -7 -16c-12 -14 -26 -24 -45 -24zM317 0h-30
c-6 0 -9 3 -11 10l-28 114h-149l-28 -114c-2 -7 -5 -10 -12 -10h-30c-6 0 -10 3 -8 10l126 496c2 7 5 10 11 10h31c6 0 10 -3 12 -10l124 -496c2 -7 -1 -10 -8 -10zM172 422l-62 -252h127l-62 252h-3z" />
    <glyph glyph-name="adieresis.sc" horiz-adv-x="346" 
d="M317 0h-30c-6 0 -9 3 -11 10l-28 114h-149l-28 -114c-2 -7 -5 -10 -12 -10h-30c-6 0 -10 3 -8 10l126 496c2 7 5 10 11 10h31c6 0 10 -3 12 -10l124 -496c2 -7 -1 -10 -8 -10zM172 422l-62 -252h127l-62 252h-3zM260 646h-34c-6 0 -10 4 -10 10v54c0 6 4 10 10 10h34
c6 0 10 -4 10 -10v-54c0 -6 -4 -10 -10 -10zM122 646h-34c-6 0 -10 4 -10 10v54c0 6 4 10 10 10h34c6 0 10 -4 10 -10v-54c0 -6 -4 -10 -10 -10z" />
    <glyph glyph-name="amacron.sc" horiz-adv-x="346" 
d="M317 0h-30c-6 0 -9 3 -11 10l-28 114h-149l-28 -114c-2 -7 -5 -10 -12 -10h-30c-6 0 -10 3 -8 10l126 496c2 7 5 10 11 10h31c6 0 10 -3 12 -10l124 -496c2 -7 -1 -10 -8 -10zM172 422l-62 -252h127l-62 252h-3zM265 661h-182c-6 0 -10 4 -10 10v23c0 6 4 10 10 10h182
c6 0 10 -4 10 -10v-23c0 -6 -4 -10 -10 -10z" />
    <glyph glyph-name="abreve.sc" horiz-adv-x="346" 
d="M174 612c-60 0 -95 41 -102 102c-1 6 3 10 9 10h18c7 0 9 -4 11 -10c8 -40 30 -62 64 -62s56 22 64 62c2 6 4 10 11 10h17c6 0 10 -4 10 -10c-7 -61 -42 -102 -102 -102zM317 0h-30c-6 0 -9 3 -11 10l-28 114h-149l-28 -114c-2 -7 -5 -10 -12 -10h-30c-6 0 -10 3 -8 10
l126 496c2 7 5 10 11 10h31c6 0 10 -3 12 -10l124 -496c2 -7 -1 -10 -8 -10zM172 422l-62 -252h127l-62 252h-3z" />
    <glyph glyph-name="aring.sc" horiz-adv-x="346" 
d="M174 594c-47 0 -82 35 -82 82s35 82 82 82s82 -35 82 -82s-35 -82 -82 -82zM174 624c30 0 50 22 50 52s-20 52 -50 52s-50 -22 -50 -52s20 -52 50 -52zM317 0h-30c-6 0 -9 3 -11 10l-28 114h-149l-28 -114c-2 -7 -5 -10 -12 -10h-30c-6 0 -10 3 -8 10l126 496
c2 7 5 10 11 10h31c6 0 10 -3 12 -10l124 -496c2 -7 -1 -10 -8 -10zM172 422l-62 -252h127l-62 252h-3z" />
    <glyph glyph-name="aringacute.sc" horiz-adv-x="346" 
d="M180 701h-20c-6 0 -9 5 -5 10l76 103c5 7 8 10 17 10h32c6 0 9 -5 5 -10l-87 -103c-7 -8 -11 -10 -18 -10zM317 0h-30c-6 0 -9 3 -11 10l-28 114h-149l-28 -114c-2 -7 -5 -10 -12 -10h-30c-6 0 -10 3 -8 10l122 481c-31 11 -51 41 -51 77c0 47 34 82 81 82s82 -35 82 -82
c0 -36 -20 -65 -51 -77l121 -481c2 -7 -1 -10 -8 -10zM123 568c0 -28 18 -50 45 -52h9c28 2 46 24 46 52c0 30 -20 52 -50 52c-29 0 -50 -22 -50 -52zM172 422l-62 -252h127l-62 252h-3z" />
    <glyph glyph-name="aogonek.sc" horiz-adv-x="346" 
d="M274 -171c-36 0 -62 23 -62 62c0 34 19 63 67 112c-1 1 -2 3 -3 7l-28 114h-149l-28 -114c-1 -6 -4 -10 -10 -10h-31c-7 0 -11 3 -9 10l126 496c2 7 5 10 11 10h31c6 0 10 -3 12 -10l124 -496c1 -4 0 -7 -3 -10c-50 -53 -67 -78 -67 -103c0 -17 10 -28 25 -28
c9 0 15 3 22 7c5 3 10 3 12 -2l9 -18c2 -5 1 -10 -5 -13c-11 -8 -26 -14 -44 -14zM236 170l-61 252h-3l-63 -252h127z" />
    <glyph glyph-name="ae.sc" horiz-adv-x="529" 
d="M488 0h-208c-6 0 -10 4 -10 10v108c0 4 -2 6 -6 6h-142l-48 -114c-3 -7 -7 -10 -13 -10h-32c-7 0 -10 4 -7 10l210 496c3 7 7 10 13 10h243c6 0 10 -4 10 -10v-27c0 -6 -4 -10 -10 -10h-163c-4 0 -6 -2 -6 -6v-172c0 -4 2 -6 6 -6h142c6 0 10 -4 10 -10v-27
c0 -6 -4 -10 -10 -10h-142c-4 0 -6 -2 -6 -6v-179c0 -4 2 -6 6 -6h163c6 0 10 -4 10 -10v-27c0 -6 -4 -10 -10 -10zM268 469l-127 -299h123c4 0 6 2 6 6v293h-2z" />
    <glyph glyph-name="aeacute.sc" horiz-adv-x="528" 
d="M488 0h-208c-6 0 -10 4 -10 10v108c0 4 -2 6 -6 6h-142l-48 -114c-3 -7 -7 -10 -13 -10h-32c-7 0 -10 4 -7 10l210 496c3 7 7 10 13 10h243c6 0 10 -4 10 -10v-27c0 -6 -4 -10 -10 -10h-163c-4 0 -6 -2 -6 -6v-172c0 -4 2 -6 6 -6h142c6 0 10 -4 10 -10v-27
c0 -6 -4 -10 -10 -10h-142c-4 0 -6 -2 -6 -6v-179c0 -4 2 -6 6 -6h163c6 0 10 -4 10 -10v-27c0 -6 -4 -10 -10 -10zM268 469l-127 -299h123c4 0 6 2 6 6v293h-2zM306 599h-21c-6 0 -8 4 -5 10l71 121c4 7 8 10 16 10h32c6 0 9 -5 5 -10l-81 -121c-6 -8 -9 -10 -17 -10z" />
    <glyph glyph-name="cacute.sc" horiz-adv-x="351" 
d="M189 599h-21c-6 0 -8 4 -5 10l71 121c4 7 8 10 16 10h32c6 0 9 -5 5 -10l-81 -121c-6 -8 -9 -10 -17 -10zM185 -8c-63 0 -101 33 -119 86c-7 23 -11 48 -11 180s4 157 11 180c18 54 56 87 119 87c71 0 117 -40 128 -116c1 -5 -1 -10 -8 -12l-26 -5c-6 -2 -11 2 -12 8
c-10 53 -38 78 -81 78c-36 0 -61 -19 -73 -54c-5 -17 -9 -38 -9 -166c0 -127 4 -149 9 -165c12 -36 37 -54 73 -54c43 0 71 25 81 78c1 6 6 9 12 7l26 -5c7 -2 9 -6 8 -12c-11 -75 -57 -115 -128 -115z" />
    <glyph glyph-name="ccircumflex.sc" horiz-adv-x="351" 
d="M185 -8c-63 0 -101 33 -119 86c-7 23 -11 48 -11 180s4 157 11 180c18 54 56 87 119 87c71 0 117 -40 128 -116c1 -5 -1 -10 -8 -12l-26 -5c-6 -2 -11 2 -12 8c-10 53 -38 78 -81 78c-36 0 -61 -19 -73 -54c-5 -17 -9 -38 -9 -166c0 -127 4 -149 9 -165
c12 -36 37 -54 73 -54c43 0 71 25 81 78c1 6 6 9 12 7l26 -5c7 -2 9 -6 8 -12c-11 -75 -57 -115 -128 -115zM279 599h-23c-7 0 -10 3 -15 10l-57 86h-2l-57 -86c-5 -7 -8 -10 -16 -10h-22c-6 0 -9 4 -5 10l76 122c4 6 9 9 15 9h20c6 0 11 -3 15 -9l76 -122
c4 -6 1 -10 -5 -10z" />
    <glyph glyph-name="ccaron.sc" horiz-adv-x="351" 
d="M193 597h-20c-6 0 -11 3 -15 9l-76 123c-4 5 -1 10 5 10h22c8 0 11 -3 16 -10l57 -86h2l57 86c5 7 8 10 15 10h23c6 0 9 -5 5 -10l-76 -123c-4 -6 -9 -9 -15 -9zM185 -8c-63 0 -101 33 -119 86c-7 23 -11 48 -11 180s4 157 11 180c18 54 56 87 119 87
c71 0 117 -40 128 -116c1 -5 -1 -10 -8 -12l-26 -5c-6 -2 -11 2 -12 8c-10 53 -38 78 -81 78c-36 0 -61 -19 -73 -54c-5 -17 -9 -38 -9 -166c0 -127 4 -149 9 -165c12 -36 37 -54 73 -54c43 0 71 25 81 78c1 6 6 9 12 7l26 -5c7 -2 9 -6 8 -12c-11 -75 -57 -115 -128 -115z
" />
    <glyph glyph-name="cdotaccent.sc" horiz-adv-x="351" 
d="M203 646h-40c-6 0 -10 4 -10 10v54c0 6 4 10 10 10h40c6 0 10 -4 10 -10v-54c0 -6 -4 -10 -10 -10zM185 -8c-63 0 -101 33 -119 86c-7 23 -11 48 -11 180s4 157 11 180c18 54 56 87 119 87c71 0 117 -40 128 -116c1 -5 -1 -10 -8 -12l-26 -5c-6 -2 -11 2 -12 8
c-10 53 -38 78 -81 78c-36 0 -61 -19 -73 -54c-5 -17 -9 -38 -9 -166c0 -127 4 -149 9 -165c12 -36 37 -54 73 -54c43 0 71 25 81 78c1 6 6 9 12 7l26 -5c7 -2 9 -6 8 -12c-11 -75 -57 -115 -128 -115z" />
    <glyph glyph-name="ccedilla.sc" horiz-adv-x="351" 
d="M117 -138l49 131c-52 6 -84 37 -100 85c-7 23 -11 48 -11 180s4 157 11 180c18 54 56 87 119 87c71 0 117 -40 128 -116c1 -5 -1 -10 -8 -12l-26 -5c-6 -2 -11 2 -12 8c-10 53 -38 78 -81 78c-36 0 -61 -19 -73 -54c-5 -17 -9 -38 -9 -166c0 -127 4 -149 9 -165
c12 -36 37 -54 73 -54c43 0 71 25 81 78c1 6 6 9 12 7l26 -5c7 -2 9 -6 8 -12c-10 -66 -47 -105 -104 -113l-43 -132c-2 -7 -8 -10 -16 -10h-26c-6 0 -9 4 -7 10z" />
    </font>
</defs>
</svg>
